SplineFontDB: 3.0
FontName: FaKacstOne
FullName: FaKacstOne
FamilyName: FaKacstOne
Weight: Medium
Copyright: KACST holds the copyright of the included Arabic font which is donated under GPL by KACST. \nURW Design and Development holds the copyright of the included Latin font which is donated under GPL by URW.\n(c) 2008, Edited by Saeed Rasooli (saeed.gnu@gmail.com) to add full persian support, and renamed from KacstOne to FaKacstOne.
Version: 1
ItalicAngle: 0
UnderlinePosition: -700
UnderlineWidth: 100
Ascent: 1638
Descent: 410
sfntRevision: 0x00010000
LayerCount: 2
Layer: 0 1 "Back"  1
Layer: 1 1 "Fore"  0
XUID: [1021 465 1748518782 11392386]
FSType: 0
OS2Version: 1
OS2_WeightWidthSlopeOnly: 0
OS2_UseTypoMetrics: 1
CreationTime: 1010123079
ModificationTime: 1205692309
PfmFamily: 81
TTFWeight: 500
TTFWidth: 5
LineGap: 0
VLineGap: 0
Panose: 0 0 0 0 0 0 0 0 0 0
OS2TypoAscent: 1600
OS2TypoAOffset: 0
OS2TypoDescent: -600
OS2TypoDOffset: 0
OS2TypoLinegap: 59
OS2WinAscent: 2163
OS2WinAOffset: 0
OS2WinDescent: 1000
OS2WinDOffset: 0
HheadAscent: 2163
HheadAOffset: 0
HheadDescent: -1000
HheadDOffset: 0
OS2SubXSize: 1434
OS2SubYSize: 1331
OS2SubXOff: 0
OS2SubYOff: 293
OS2SupXSize: 1434
OS2SupYSize: 1331
OS2SupXOff: 0
OS2SupYOff: 928
OS2StrikeYSize: 102
OS2StrikeYPos: 530
OS2Vendor: 'Glyf'
OS2CodePages: 20000040.a0180000
OS2UnicodeRanges: 8000202f.90000008.00000008.00000000
DEI: 91125
TtTable: prep
PUSHW_1
 0
CALL
EndTTInstrs
TtTable: fpgm
PUSHW_1
 0
FDEF
MPPEM
PUSHW_1
 9
LT
IF
PUSHB_2
 1
 1
INSTCTRL
EIF
PUSHW_1
 511
SCANCTRL
PUSHW_1
 68
SCVTCI
PUSHW_2
 9
 3
SDS
SDB
ENDF
PUSHW_1
 1
FDEF
DUP
DUP
RCVT
ROUND[Black]
WCVTP
PUSHB_1
 1
ADD
ENDF
PUSHW_1
 2
FDEF
PUSHW_1
 1
LOOPCALL
POP
ENDF
PUSHW_1
 3
FDEF
DUP
GC[cur]
PUSHB_1
 3
CINDEX
GC[cur]
GT
IF
SWAP
EIF
DUP
ROLL
DUP
ROLL
MD[grid]
ABS
ROLL
DUP
GC[cur]
DUP
ROUND[Grey]
SUB
ABS
PUSHB_1
 4
CINDEX
GC[cur]
DUP
ROUND[Grey]
SUB
ABS
GT
IF
SWAP
NEG
ROLL
EIF
MDAP[rnd]
DUP
PUSHB_1
 0
GTEQ
IF
ROUND[Black]
DUP
PUSHB_1
 0
EQ
IF
POP
PUSHB_1
 64

StartChar: .notdef
Encoding: 65536 -1 0
Width: 1024
Flags: W
LayerCount: 2
Fore
SplineSet
128 0 m 1,0,-1
 128 1450 l 1,1,-1
 896 1450 l 1,2,-1
 896 0 l 1,3,-1
 128 0 l 1,0,-1
256 128 m 1,4,-1
 768 128 l 1,5,-1
 768 1322 l 1,6,-1
 256 1322 l 1,7,-1
 256 128 l 1,4,-1
EndSplineSet
EndChar

StartChar: nonmarkingreturn
Encoding: 12 12 2
Width: 1606
GlyphClass: 2
Flags: W
LayerCount: 2
Fore
SplineSet
1369 328 m 0,0,1
 1369 231 1369 231 1365.5 167 c 128,-1,2
 1362 103 1362 103 1355 67 c 0,3,4
 1352 53 1352 53 1089 20 c 1,5,6
 977 7 977 7 889.5 2.5 c 128,-1,7
 802 -2 802 -2 733 -2 c 0,8,9
 682 -2 682 -2 643 -1 c 128,-1,10
 604 0 604 0 575 2 c 0,11,12
 558 3 558 3 544 3.5 c 128,-1,13
 530 4 530 4 519 4 c 0,14,15
 340 4 340 4 226 79 c 1,16,17
 94 164 94 164 94 333 c 0,18,19
 94 453 94 453 196 608 c 0,20,21
 206 623 206 623 213 633.5 c 128,-1,22
 220 644 220 644 225 650 c 1,23,24
 224 641 224 641 222 631 c 128,-1,25
 220 621 220 621 219 613 c 0,26,27
 218 608 218 608 217.5 606 c 128,-1,28
 217 604 217 604 217 606 c 1,29,30
 204 568 204 568 204 503 c 0,31,32
 204 435 204 435 225.5 384.5 c 128,-1,33
 247 334 247 334 293.5 300 c 128,-1,34
 340 266 340 266 413.5 249 c 128,-1,35
 487 232 487 232 592 232 c 2,36,-1
 646 232 l 1,37,-1
 674 232 l 1,38,-1
 689 232 l 2,39,40
 698 232 698 232 703 231 c 256,41,42
 708 230 708 230 718 230 c 2,43,-1
 733 230 l 1,44,-1
 765 230 l 1,45,-1
 830 230 l 2,46,47
 918 230 918 230 1012.5 234.5 c 128,-1,48
 1107 239 1107 239 1210 256 c 1,49,-1
 1221 272 l 1,50,51
 1213 299 1213 299 1203 326.5 c 128,-1,52
 1193 354 1193 354 1177 383 c 128,-1,53
 1161 412 1161 412 1138.5 443.5 c 128,-1,54
 1116 475 1116 475 1083 510 c 1,55,-1
 1221 695 l 1,56,-1
 1222 696 l 2,57,58
 1222 697 1222 697 1223.5 696 c 128,-1,59
 1225 695 1225 695 1227 693 c 0,60,61
 1369 545 1369 545 1369 328 c 0,0,1
644 -490 m 1,62,-1
 728 -345 l 1,63,-1
 725 -329 l 1,64,-1
 634 -269 l 1,65,-1
 728 -97 l 1,66,-1
 840 -173 l 1,67,-1
 750 -331 l 1,68,-1
 753 -346 l 1,69,-1
 848 -405 l 1,70,-1
 759 -563 l 1,71,-1
 644 -490 l 1,62,-1
EndSplineSet
EndChar

StartChar: exclam
Encoding: 33 33 4
Width: 614
GlyphClass: 2
Flags: W
LayerCount: 2
Fore
SplineSet
373 238 m 0,0,1
 452 238 452 238 490 166 c 1,2,3
 504 136 504 136 504 106 c 0,4,5
 504 25 504 25 432 -12 c 0,6,7
 403 -27 403 -27 373 -27 c 0,8,9
 292 -27 292 -27 254 47 c 1,10,11
 240 77 240 77 240 106 c 0,12,13
 240 183 240 183 309 221 c 0,14,15
 341 238 341 238 373 238 c 0,0,1
406 356 m 1,16,-1
 332 356 l 1,17,-1
 332 422 l 1,18,-1
 322 598 l 1,19,20
 311 704 311 704 301 762 c 2,21,-1
 256 1030 l 1,22,-1
 232 1186 l 1,23,-1
 232 1214 l 2,24,25
 232 1421 232 1421 379 1421 c 0,26,27
 494 1421 494 1421 520 1296 c 1,28,-1
 520 1294 l 1,29,-1
 527 1233 l 1,30,31
 527 1202 527 1202 519.5 1150.5 c 128,-1,32
 512 1099 512 1099 498 1024 c 1,33,-1
 440 745 l 1,34,-1
 420 602 l 1,35,36
 415 559 415 559 411.5 522 c 128,-1,37
 408 485 408 485 406 453 c 1,38,-1
 406 420 l 1,39,-1
 406 356 l 1,16,-1
EndSplineSet
EndChar

StartChar: quotedbl
Encoding: 34 34 5
Width: 778
GlyphClass: 2
Flags: W
LayerCount: 2
Fore
SplineSet
234 911 m 1,0,-1
 177 1257 l 1,1,-1
 175 1286 l 1,2,3
 173 1288 173 1288 173 1311 c 0,4,5
 173 1405 173 1405 242 1419 c 0,6,7
 247 1420 247 1420 252.5 1420.5 c 128,-1,8
 258 1421 258 1421 263 1421 c 0,9,10
 330 1421 330 1421 345 1352 c 1,11,-1
 347 1350 l 1,12,-1
 349 1321 l 1,13,-1
 347 1290 l 1,14,-1
 347 1288 l 1,15,-1
 343 1262 l 1,16,-1
 279 911 l 1,17,-1
 234 911 l 1,0,-1
605 911 m 1,18,-1
 547 1257 l 1,19,-1
 545 1286 l 1,20,21
 543 1288 543 1288 543 1311 c 0,22,23
 543 1406 543 1406 613 1419 c 1,24,-1
 615 1419 l 1,25,26
 620 1420 620 1420 624.5 1420.5 c 128,-1,27
 629 1421 629 1421 633 1421 c 0,28,29
 701 1421 701 1421 715 1352 c 1,30,-1
 717 1350 l 1,31,-1
 720 1321 l 1,32,-1
 717 1290 l 1,33,-1
 717 1288 l 1,34,-1
 713 1262 l 1,35,-1
 650 911 l 1,36,-1
 605 911 l 1,18,-1
EndSplineSet
EndChar

StartChar: numbersign
Encoding: 35 35 6
Width: 1269
GlyphClass: 2
Flags: W
LayerCount: 2
Fore
SplineSet
922 831 m 1,0,-1
 881 559 l 1,1,-1
 1087 559 l 1,2,-1
 1087 442 l 1,3,-1
 864 442 l 1,4,-1
 797 0 l 1,5,-1
 674 0 l 1,6,-1
 741 442 l 1,7,-1
 473 442 l 1,8,-1
 408 0 l 1,9,-1
 285 0 l 1,10,-1
 350 442 l 1,11,-1
 133 442 l 1,12,-1
 133 559 l 1,13,-1
 369 559 l 1,14,-1
 410 831 l 1,15,-1
 184 831 l 1,16,-1
 184 948 l 1,17,-1
 426 948 l 1,18,-1
 489 1364 l 1,19,-1
 612 1364 l 1,20,-1
 549 948 l 1,21,-1
 817 948 l 1,22,-1
 879 1364 l 1,23,-1
 1001 1364 l 1,24,-1
 940 948 l 1,25,-1
 1139 948 l 1,26,-1
 1139 831 l 1,27,-1
 922 831 l 1,0,-1
799 831 m 1,28,-1
 532 831 l 1,29,-1
 492 559 l 1,30,-1
 758 559 l 1,31,-1
 799 831 l 1,28,-1
EndSplineSet
EndChar

StartChar: dollar
Encoding: 36 36 7
Width: 1269
GlyphClass: 2
Flags: W
LayerCount: 2
Fore
SplineSet
637 1620 m 1,0,-1
 713 1620 l 1,1,-1
 713 1370 l 1,2,3
 919 1353 919 1353 1032 1272 c 0,4,5
 1165 1178 1165 1178 1168 1063 c 1,6,7
 1168 971 1168 971 1088 944 c 1,8,-1
 1086 942 l 1,9,-1
 1041 936 l 1,10,11
 956 936 956 936 934 1012 c 1,12,-1
 930 1051 l 1,13,-1
 930 1067 l 1,14,-1
 932 1083 l 1,15,-1
 936 1118 l 1,16,-1
 936 1124 l 2,17,18
 936 1233 936 1233 793 1272 c 1,19,-1
 713 1286 l 1,20,-1
 713 815 l 1,21,-1
 897 782 l 1,22,23
 994 763 994 763 1049 739 c 1,24,25
 1247 657 1247 657 1249 451 c 1,26,27
 1249 229 1249 229 1020 115 c 1,28,29
 894 51 894 51 713 35 c 1,30,-1
 713 -225 l 1,31,-1
 637 -225 l 1,32,-1
 637 35 l 1,33,34
 107 86 107 86 105 365 c 0,35,36
 105 469 105 469 189 504 c 0,37,38
 217 516 217 516 250 516 c 0,39,40
 334 516 334 516 363 442 c 0,41,42
 367 432 367 432 369.5 419 c 128,-1,43
 372 406 372 406 373 389 c 1,44,-1
 365 322 l 1,45,-1
 359 262 l 1,46,47
 359 137 359 137 637 119 c 1,48,-1
 637 623 l 1,49,50
 261 676 261 676 170 825 c 0,51,52
 133 886 133 886 133 975 c 0,53,54
 133 1181 133 1181 326 1290 c 1,55,56
 454 1364 454 1364 637 1370 c 1,57,-1
 637 1620 l 1,0,-1
637 1286 m 1,58,-1
 617 1286 l 2,59,60
 578 1286 578 1286 527 1274 c 0,61,62
 499 1267 499 1267 474.5 1257.5 c 128,-1,63
 450 1248 450 1248 430 1237 c 0,64,65
 342 1186 342 1186 330 1087 c 0,66,67
 329 1082 329 1082 328.5 1076.5 c 128,-1,68
 328 1071 328 1071 328 1065 c 0,69,70
 328 956 328 956 420 899 c 1,71,-1
 424 897 l 1,72,-1
 453 881 l 2,73,74
 470 871 470 871 490 864 c 128,-1,75
 510 857 510 857 533 852 c 0,76,77
 545 849 545 849 559 846.5 c 128,-1,78
 573 844 573 844 590 842 c 2,79,-1
 637 834 l 1,80,-1
 637 1286 l 1,58,-1
713 608 m 1,81,-1
 713 119 l 1,82,83
 928 125 928 125 1016 252 c 0,84,85
 1055 307 1055 307 1055 379 c 0,86,87
 1055 505 1055 505 901 563 c 1,88,-1
 826 586 l 1,89,-1
 713 608 l 1,81,-1
EndSplineSet
EndChar

StartChar: percent
Encoding: 37 37 8
Width: 1843
GlyphClass: 2
Flags: W
LayerCount: 2
Fore
SplineSet
422 1411 m 0,0,1
 612 1411 612 1411 713 1241 c 1,2,3
 777 1130 777 1130 779 971 c 1,4,5
 779 735 779 735 633 616 c 0,6,7
 545 543 545 543 422 543 c 0,8,9
 233 543 233 543 136 709 c 1,10,11
 68 822 68 822 68 979 c 2,12,-1
 68 1006 l 1,13,14
 78 1190 78 1190 183 1307 c 1,15,-1
 185 1309 l 1,16,-1
 193 1319 l 1,17,18
 285 1411 285 1411 422 1411 c 0,0,1
426 1335 m 1,19,20
 346 1335 346 1335 297 1274 c 0,21,22
 238 1201 238 1201 224 1024 c 0,23,24
 224 1017 224 1017 223.5 1009 c 128,-1,25
 223 1001 223 1001 222 993 c 1,26,-1
 222 967 l 2,27,28
 222 686 222 686 361 631 c 1,29,30
 387 618 387 618 422 618 c 0,31,32
 591 618 591 618 619 877 c 1,33,-1
 625 979 l 1,34,35
 625 1309 625 1309 453 1333 c 1,36,-1
 426 1335 l 1,19,20
1477 1395 m 1,37,-1
 527 0 l 1,38,-1
 406 0 l 1,39,-1
 1356 1395 l 1,40,-1
 1477 1395 l 1,37,-1
1455 852 m 0,41,42
 1644 852 1644 852 1745 682 c 0,43,44
 1765 647 1765 647 1779 608.5 c 128,-1,45
 1793 570 1793 570 1801 526 c 1,46,47
 1811 479 1811 479 1811 412 c 0,48,49
 1811 176 1811 176 1665 57 c 1,50,-1
 1663 55 l 1,51,52
 1571 -16 1571 -16 1455 -16 c 0,53,54
 1265 -16 1265 -16 1168 150 c 1,55,56
 1100 263 1100 263 1100 420 c 2,57,-1
 1100 446 l 1,58,59
 1110 631 1110 631 1215 748 c 1,60,-1
 1217 750 l 1,61,-1
 1225 760 l 1,62,63
 1317 852 1317 852 1455 852 c 0,41,42
1459 776 m 1,64,65
 1379 776 1379 776 1330 715 c 1,66,67
 1270 643 1270 643 1256 465 c 1,68,-1
 1254 434 l 1,69,-1
 1254 408 l 2,70,71
 1254 117 1254 117 1401 68 c 1,72,-1
 1403 68 l 1,73,-1
 1405 68 l 1,74,-1
 1407 66 l 1,75,-1
 1457 59 l 1,76,77
 1616 59 1616 59 1649 299 c 1,78,-1
 1657 420 l 1,79,80
 1657 750 1657 750 1485 774 c 1,81,-1
 1459 776 l 1,64,65
EndSplineSet
EndChar

StartChar: ampersand
Encoding: 38 38 9
Width: 1638
GlyphClass: 2
Flags: W
LayerCount: 2
Fore
SplineSet
1616 938 m 1,0,-1
 1616 877 l 1,1,-1
 1583 870 l 2,2,3
 1480 848 1480 848 1444 803 c 1,4,5
 1421 769 1421 769 1403 707 c 1,6,-1
 1376 606 l 1,7,-1
 1368 578 l 1,8,9
 1331 441 1331 441 1276 346 c 1,10,-1
 1249 303 l 1,11,12
 1325 193 1325 193 1386 141 c 1,13,14
 1466 76 1466 76 1593 76 c 1,15,-1
 1659 78 l 1,16,-1
 1659 0 l 1,17,-1
 1460 0 l 2,18,19
 1323 0 1323 0 1278 18 c 1,20,-1
 1276 20 l 1,21,-1
 1237 39 l 1,22,23
 1218 50 1218 50 1202 63 c 128,-1,24
 1186 76 1186 76 1173 90 c 0,25,26
 1162 103 1162 103 1149.5 120 c 128,-1,27
 1137 137 1137 137 1124 158 c 1,28,29
 1028 74 1028 74 948 33 c 0,30,31
 832 -27 832 -27 680 -27 c 2,32,-1
 663 -27 l 1,33,34
 455 -20 455 -20 317 78 c 1,35,36
 182 172 182 172 147 332 c 0,37,38
 142 352 142 352 141 373 c 0,39,40
 140 381 140 381 139.5 390 c 128,-1,41
 139 399 139 399 139 410 c 0,42,43
 139 571 139 571 274 700 c 1,44,-1
 301 723 l 2,45,46
 366 779 366 779 467 813 c 0,47,48
 481 818 481 818 498 823.5 c 128,-1,49
 515 829 515 829 534 836 c 1,50,51
 391 967 391 967 391 1126 c 0,52,53
 391 1272 391 1272 528 1358 c 0,54,55
 628 1421 628 1421 758 1421 c 0,56,57
 931 1421 931 1421 1020 1305 c 1,58,59
 1067 1237 1067 1237 1067 1157 c 0,60,61
 1067 1010 1067 1010 919 905 c 1,62,63
 858 859 858 859 782 836 c 1,64,65
 858 778 858 778 1192 406 c 1,66,-1
 948 688 l 1,67,68
 1014 622 1014 622 1074.5 551.5 c 128,-1,69
 1135 481 1135 481 1192 406 c 1,70,71
 1286 572 1286 572 1290 748 c 1,72,73
 1290 818 1290 818 1243 844 c 0,74,75
 1229 851 1229 851 1208 857 c 128,-1,76
 1187 863 1187 863 1159 870 c 1,77,-1
 1124 877 l 1,78,-1
 1124 938 l 1,79,-1
 1616 938 l 1,0,-1
713 899 m 1,80,-1
 774 926 l 1,81,-1
 778 928 l 1,82,-1
 788 934 l 1,83,84
 889 991 889 991 917 1112 c 1,85,-1
 924 1171 l 1,86,87
 924 1277 924 1277 831 1321 c 0,88,89
 792 1339 792 1339 747 1339 c 0,90,91
 643 1339 643 1339 594 1249 c 1,92,-1
 592 1247 l 1,93,94
 573 1210 573 1210 571 1161 c 1,95,96
 571 1120 571 1120 584 1085 c 1,97,98
 608 1005 608 1005 713 899 c 1,80,-1
594 770 m 1,99,100
 349 698 349 698 348 446 c 0,101,102
 348 227 348 227 504 125 c 0,103,104
 592 68 592 68 711 68 c 0,105,106
 917 68 917 68 1073 233 c 1,107,-1
 1081 244 l 1,108,109
 962 418 962 418 838 553 c 0,110,111
 775 622 775 622 714.5 675 c 128,-1,112
 654 728 654 728 594 770 c 1,99,100
EndSplineSet
EndChar

StartChar: quotesingle
Encoding: 39 39 10
Width: 450
GlyphClass: 2
Flags: W
LayerCount: 2
Fore
SplineSet
212 975 m 1,0,-1
 189 1020 l 1,1,-1
 208 1032 l 1,2,3
 308 1102 308 1102 316 1208 c 1,4,5
 288 1186 288 1186 269 1182 c 0,6,7
 259 1180 259 1180 253 1180 c 0,8,9
 173 1180 173 1180 148 1253 c 1,10,-1
 142 1296 l 1,11,12
 142 1369 142 1369 210 1407 c 1,13,14
 241 1421 241 1421 269 1421 c 0,15,16
 353 1421 353 1421 394 1337 c 0,17,18
 413 1300 413 1300 413 1253 c 0,19,20
 413 1095 413 1095 255 997 c 1,21,-1
 212 975 l 1,0,-1
EndSplineSet
EndChar

StartChar: parenleft
Encoding: 40 40 11
Width: 614
GlyphClass: 2
Flags: W
LayerCount: 2
Fore
SplineSet
648 1468 m 1,0,-1
 648 1391 l 1,1,2
 522 1346 522 1346 476 1186 c 1,3,-1
 476 1184 l 1,4,5
 429 1019 429 1019 429 627 c 2,6,-1
 429 532 l 2,7,8
 429 47 429 47 507 -104 c 1,9,10
 546 -184 546 -184 620 -219 c 1,11,-1
 648 -231 l 1,12,-1
 648 -309 l 1,13,14
 542 -291 542 -291 485 -258 c 0,15,16
 475 -252 475 -252 465 -244.5 c 128,-1,17
 455 -237 455 -237 444 -229 c 0,18,19
 312 -126 312 -126 272 68 c 1,20,21
 235 229 235 229 235 580 c 0,22,23
 235 1011 235 1011 296 1178 c 0,24,25
 304 1201 304 1201 314 1223.5 c 128,-1,26
 324 1246 324 1246 337 1268 c 0,27,28
 368 1323 368 1323 412.5 1363.5 c 128,-1,29
 457 1404 457 1404 515 1432 c 1,30,-1
 534 1440 l 2,31,32
 565 1453 565 1453 618 1464 c 1,33,-1
 648 1468 l 1,0,-1
EndSplineSet
EndChar

StartChar: parenright
Encoding: 41 41 12
Width: 614
GlyphClass: 2
Flags: W
LayerCount: 2
Fore
SplineSet
52 -309 m 1,0,-1
 52 -231 l 1,1,2
 177 -186 177 -186 224 -27 c 1,3,4
 271 138 271 138 271 532 c 2,5,-1
 271 627 l 2,6,7
 271 1112 271 1112 193 1264 c 1,8,9
 154 1343 154 1343 80 1378 c 2,10,-1
 52 1391 l 1,11,-1
 52 1468 l 1,12,13
 158 1450 158 1450 216 1417 c 1,14,-1
 257 1389 l 1,15,16
 386 1284 386 1284 429 1098 c 1,17,-1
 429 1096 l 1,18,19
 466 935 466 935 466 580 c 0,20,21
 466 156 466 156 406 -12 c 0,22,23
 398 -37 398 -37 387 -61.5 c 128,-1,24
 376 -86 376 -86 363 -109 c 0,25,26
 302 -217 302 -217 185 -272 c 1,27,-1
 167 -281 l 1,28,29
 134 -295 134 -295 83 -305 c 1,30,-1
 52 -309 l 1,0,-1
EndSplineSet
EndChar

StartChar: asterisk
Encoding: 42 42 13
Width: 901
GlyphClass: 2
Flags: W
LayerCount: 2
Fore
SplineSet
492 1124 m 1,0,-1
 437 1268 l 2,1,2
 421 1310 421 1310 421 1335 c 0,3,4
 421 1407 421 1407 494 1419 c 1,5,-1
 515 1421 l 1,6,7
 587 1421 587 1421 603 1366 c 1,8,-1
 605 1364 l 1,9,-1
 607 1341 l 1,10,11
 607 1312 607 1312 591 1268 c 2,12,-1
 541 1124 l 1,13,-1
 574 1100 l 1,14,-1
 670 1219 l 1,15,16
 696 1253 696 1253 718 1266 c 0,17,18
 741 1280 741 1280 765 1280 c 0,19,20
 815 1280 815 1280 844 1221 c 1,21,22
 857 1199 857 1199 857 1174 c 0,23,24
 857 1106 857 1106 746 1085 c 2,25,-1
 599 1057 l 1,26,-1
 593 1018 l 1,27,-1
 744 993 l 2,28,29
 855 975 855 975 855 907 c 0,30,31
 855 844 855 844 801 811 c 0,32,33
 783 799 783 799 763 799 c 0,34,35
 747 799 747 799 728 807 c 0,36,37
 702 817 702 817 668 860 c 1,38,-1
 568 975 l 1,39,-1
 531 958 l 1,40,-1
 586 815 l 1,41,42
 603 767 603 767 603 745 c 0,43,44
 603 678 603 678 535 664 c 1,45,-1
 511 662 l 1,46,47
 437 662 437 662 421 719 c 1,48,-1
 416 741 l 1,49,50
 416 767 416 767 433 815 c 2,51,-1
 482 958 l 1,52,-1
 449 983 l 1,53,-1
 353 864 l 2,54,55
 337 845 337 845 323 832.5 c 128,-1,56
 309 820 309 820 298 813 c 1,57,58
 279 803 279 803 259 803 c 0,59,60
 208 803 208 803 179 862 c 1,61,62
 167 884 167 884 167 909 c 0,63,64
 167 977 167 977 277 997 c 1,65,-1
 425 1026 l 1,66,-1
 431 1065 l 1,67,-1
 279 1090 l 2,68,69
 169 1108 169 1108 169 1176 c 0,70,71
 169 1241 169 1241 224 1272 c 1,72,73
 242 1284 242 1284 263 1284 c 1,74,-1
 275 1282 l 2,75,76
 307 1276 307 1276 357 1223 c 1,77,-1
 455 1108 l 1,78,-1
 492 1124 l 1,0,-1
EndSplineSet
EndChar

StartChar: plus
Encoding: 43 43 14
Width: 1228
GlyphClass: 2
Flags: W
LayerCount: 2
Fore
SplineSet
1137 803 m 1,0,-1
 1137 643 l 1,1,-1
 700 643 l 1,2,-1
 700 227 l 1,3,-1
 541 227 l 1,4,-1
 541 643 l 1,5,-1
 104 643 l 1,6,-1
 104 803 l 1,7,-1
 541 803 l 1,8,-1
 541 1219 l 1,9,-1
 700 1219 l 1,10,-1
 700 803 l 1,11,-1
 1137 803 l 1,0,-1
EndSplineSet
EndChar

StartChar: comma
Encoding: 44 44 15
Width: 655
GlyphClass: 2
Flags: W
LayerCount: 2
Fore
SplineSet
330 -229 m 1,0,-1
 307 -188 l 1,1,2
 432 -117 432 -117 459 18 c 1,3,4
 431 -4 431 -4 411 -8 c 0,5,6
 401 -10 401 -10 399 -10 c 1,7,-1
 397 -12 l 1,8,-1
 383 -12 l 2,9,10
 312 -12 312 -12 287 57 c 1,11,12
 278 78 278 78 278 104 c 0,13,14
 278 192 278 192 352 227 c 1,15,16
 377 240 377 240 407 240 c 0,17,18
 495 240 495 240 534 150 c 1,19,20
 551 108 551 108 551 63 c 0,21,22
 551 -128 551 -128 330 -229 c 1,0,-1
EndSplineSet
EndChar

StartChar: hyphen
Encoding: 45 45 16
Width: 819
GlyphClass: 2
Flags: W
LayerCount: 2
Fore
SplineSet
717 592 m 1,0,-1
 659 475 l 1,1,-1
 102 475 l 1,2,-1
 162 592 l 1,3,-1
 717 592 l 1,0,-1
EndSplineSet
EndChar

StartChar: period
Encoding: 46 46 17
Width: 655
GlyphClass: 2
Flags: W
LayerCount: 2
Fore
SplineSet
418 236 m 0,0,1
 493 236 493 236 530 166 c 1,2,3
 547 137 547 137 547 104 c 0,4,5
 547 25 547 25 475 -12 c 0,6,7
 446 -27 446 -27 415 -27 c 0,8,9
 338 -27 338 -27 301 43 c 1,10,11
 284 72 284 72 284 106 c 0,12,13
 284 186 284 186 358 221 c 1,14,15
 385 236 385 236 418 236 c 0,0,1
EndSplineSet
EndChar

StartChar: slash
Encoding: 47 47 18
Width: 1228
GlyphClass: 2
Flags: W
LayerCount: 2
Fore
SplineSet
1090 1468 m 1,0,-1
 324 -289 l 1,1,-1
 152 -289 l 1,2,-1
 913 1468 l 1,3,-1
 1090 1468 l 1,0,-1
EndSplineSet
EndChar

StartChar: zero
Encoding: 48 48 19
Width: 1269
GlyphClass: 2
Flags: W
LayerCount: 2
Fore
SplineSet
680 1421 m 0,0,1
 949 1421 949 1421 1106 1192 c 1,2,3
 1241 992 1241 992 1241 688 c 0,4,5
 1241 337 1241 337 1051 135 c 0,6,7
 899 -27 899 -27 680 -27 c 0,8,9
 416 -27 416 -27 260 201 c 0,10,11
 123 401 123 401 123 702 c 1,12,-1
 125 756 l 1,13,14
 142 1024 142 1024 281 1217 c 1,15,-1
 322 1268 l 1,16,17
 448 1403 448 1403 641 1419 c 0,18,19
 650 1420 650 1420 659.5 1420.5 c 128,-1,20
 669 1421 669 1421 680 1421 c 0,0,1
688 1323 m 0,21,22
 535 1323 535 1323 451 1190 c 1,23,-1
 449 1188 l 1,24,-1
 422 1135 l 1,25,26
 373 1015 373 1015 352 831 c 0,27,28
 348 791 348 791 346 753.5 c 128,-1,29
 344 716 344 716 344 680 c 0,30,31
 344 464 344 464 393 311 c 0,32,33
 447 142 447 142 586 90 c 0,34,35
 632 72 632 72 684 72 c 0,36,37
 818 72 818 72 907 188 c 1,38,39
 923 207 923 207 934.5 228 c 128,-1,40
 946 249 946 249 954 272 c 1,41,42
 1020 435 1020 435 1020 702 c 0,43,44
 1020 1059 1020 1059 911 1204 c 1,45,46
 827 1323 827 1323 688 1323 c 0,21,22
EndSplineSet
EndChar

StartChar: one
Encoding: 49 49 20
Width: 1269
GlyphClass: 2
Flags: W
LayerCount: 2
Fore
SplineSet
943 1395 m 1,0,-1
 943 285 l 2,1,2
 943 141 943 141 986 104 c 1,3,4
 1021 72 1021 72 1128 66 c 1,5,-1
 1193 61 l 1,6,-1
 1193 0 l 1,7,-1
 495 0 l 1,8,-1
 495 61 l 1,9,-1
 562 66 l 1,10,11
 669 72 669 72 722 125 c 0,12,13
 749 152 749 152 749 289 c 2,14,-1
 749 1073 l 2,15,16
 749 1202 749 1202 714 1235 c 1,17,18
 681 1262 681 1262 579 1266 c 2,19,-1
 497 1270 l 1,20,-1
 497 1331 l 1,21,-1
 687 1356 l 2,22,23
 706 1359 706 1359 753 1368.5 c 128,-1,24
 800 1378 800 1378 878 1395 c 2,25,-1
 759 1368 l 1,26,-1
 878 1395 l 1,27,-1
 943 1395 l 1,0,-1
EndSplineSet
EndChar

StartChar: two
Encoding: 50 50 21
Width: 1269
GlyphClass: 2
Flags: W
LayerCount: 2
Fore
SplineSet
1180 383 m 1,0,-1
 1081 0 l 1,1,-1
 86 0 l 1,2,-1
 86 143 l 1,3,4
 293 267 293 267 410 362 c 0,5,6
 495 432 495 432 575 518 c 2,7,-1
 604 549 l 1,8,9
 849 821 849 821 850 1051 c 0,10,11
 850 1217 850 1217 721 1288 c 1,12,13
 679 1313 679 1313 618 1319 c 2,14,-1
 571 1323 l 1,15,16
 426 1323 426 1323 334 1237 c 0,17,18
 284 1190 284 1190 283 1135 c 1,19,-1
 287 1100 l 2,20,21
 288 1097 288 1097 289 1094.5 c 128,-1,22
 290 1092 290 1092 291 1090 c 2,23,-1
 326 1040 l 1,24,-1
 344 1004 l 1,25,-1
 350 975 l 1,26,27
 350 913 350 913 289 879 c 0,28,29
 262 864 262 864 233 864 c 0,30,31
 152 864 152 864 113 950 c 0,32,33
 105 969 105 969 100 990 c 128,-1,34
 95 1011 95 1011 94 1036 c 1,35,36
 94 1200 94 1200 252 1317 c 1,37,38
 398 1421 398 1421 588 1421 c 0,39,40
 854 1421 854 1421 995 1266 c 0,41,42
 1085 1167 1085 1167 1092 1022 c 1,43,44
 1092 761 1092 761 733 459 c 2,45,-1
 696 428 l 1,46,-1
 664 403 l 1,47,48
 613 365 613 365 527 307 c 128,-1,49
 441 249 441 249 313 168 c 1,50,-1
 778 168 l 2,51,52
 932 168 932 168 991 215 c 0,53,54
 1024 242 1024 242 1053 297 c 1,55,-1
 1081 356 l 1,56,-1
 1102 403 l 1,57,-1
 1180 383 l 1,0,-1
EndSplineSet
EndChar

StartChar: three
Encoding: 51 51 22
Width: 1269
GlyphClass: 2
Flags: W
LayerCount: 2
Fore
SplineSet
494 717 m 1,0,-1
 494 809 l 1,1,-1
 596 805 l 1,2,-1
 608 805 l 1,3,4
 762 809 762 809 852 887 c 1,5,6
 909 938 909 938 928 1073 c 1,7,-1
 926 1038 l 1,8,-1
 928 1073 l 1,9,10
 928 1235 928 1235 791 1300 c 1,11,12
 727 1329 727 1329 647 1329 c 0,13,14
 498 1329 498 1329 426 1251 c 1,15,16
 395 1220 395 1220 395 1178 c 2,17,-1
 395 1167 l 1,18,-1
 420 1106 l 1,19,-1
 430 1057 l 1,20,21
 430 997 430 997 367 969 c 0,22,23
 342 958 342 958 317 958 c 0,24,25
 240 958 240 958 209 1034 c 0,26,27
 199 1057 199 1057 199 1090 c 1,28,-1
 201 1122 l 1,29,30
 221 1249 221 1249 352 1337 c 1,31,32
 475 1421 475 1421 659 1421 c 0,33,34
 921 1421 921 1421 1061 1286 c 0,35,36
 1133 1217 1133 1217 1147 1126 c 0,37,38
 1148 1117 1148 1117 1148.5 1107.5 c 128,-1,39
 1149 1098 1149 1098 1149 1087 c 2,40,-1
 1149 1069 l 1,41,42
 1139 950 1139 950 1032 864 c 1,43,44
 1001 841 1001 841 960.5 821.5 c 128,-1,45
 920 802 920 802 866 788 c 0,46,47
 858 786 858 786 849 783.5 c 128,-1,48
 840 781 840 781 829 778 c 2,49,-1
 819 776 l 1,50,-1
 809 774 l 1,51,-1
 885 758 l 1,52,53
 970 737 970 737 1024 709 c 0,54,55
 1028 707 1028 707 1034 702 c 0,56,57
 1039 698 1039 698 1049 694 c 2,58,-1
 1053 692 l 1,59,60
 1196 607 1196 607 1219 446 c 0,61,62
 1220 436 1220 436 1220.5 425 c 128,-1,63
 1221 414 1221 414 1221 401 c 0,64,65
 1221 197 1221 197 1028 76 c 1,66,67
 868 -27 868 -27 631 -27 c 0,68,69
 400 -27 400 -27 252 78 c 0,70,71
 137 160 137 160 125 268 c 1,72,-1
 123 289 l 1,73,74
 123 377 123 377 193 416 c 0,75,76
 219 430 219 430 248 430 c 0,77,78
 330 430 330 430 354 358 c 1,79,-1
 363 315 l 1,80,-1
 363 295 l 1,81,-1
 348 246 l 1,82,-1
 344 223 l 1,83,84
 344 204 344 204 356 182 c 0,85,86
 377 145 377 145 414 121 c 0,87,88
 499 66 499 66 639 66 c 0,89,90
 881 66 881 66 959 242 c 0,91,92
 989 309 989 309 989 397 c 0,93,94
 989 554 989 554 897 643 c 1,95,-1
 895 645 l 1,96,-1
 883 655 l 1,97,98
 806 715 806 715 637 727 c 1,99,-1
 670 725 l 1,100,-1
 637 727 l 1,101,-1
 494 717 l 1,0,-1
EndSplineSet
EndChar

StartChar: four
Encoding: 52 52 23
Width: 1269
GlyphClass: 2
Flags: W
LayerCount: 2
Fore
SplineSet
944 1395 m 1,0,-1
 944 498 l 1,1,-1
 1255 498 l 1,2,-1
 1210 381 l 1,3,-1
 944 381 l 1,4,-1
 944 295 l 2,5,6
 944 176 944 176 962 131 c 1,7,8
 991 72 991 72 1075 66 c 2,9,-1
 1142 61 l 1,10,-1
 1142 0 l 1,11,-1
 550 0 l 1,12,-1
 550 61 l 1,13,-1
 618 66 l 2,14,15
 702 72 702 72 731 131 c 1,16,17
 749 170 749 170 749 295 c 2,18,-1
 749 381 l 1,19,-1
 108 381 l 1,20,-1
 77 465 l 1,21,-1
 399 893 l 1,22,-1
 712 1346 l 1,23,-1
 749 1395 l 1,24,-1
 944 1395 l 1,0,-1
749 498 m 1,25,-1
 749 1221 l 1,26,-1
 565 965 l 1,27,-1
 382 715 l 1,28,-1
 255 543 l 1,29,-1
 223 498 l 1,30,-1
 749 498 l 1,25,-1
EndSplineSet
EndChar

StartChar: five
Encoding: 53 53 24
Width: 1269
GlyphClass: 2
Flags: W
LayerCount: 2
Fore
SplineSet
1127 1468 m 1,0,-1
 1092 1227 l 1,1,-1
 392 1227 l 1,2,-1
 392 817 l 1,3,4
 463 874 463 874 525 903 c 0,5,6
 614 946 614 946 742 946 c 0,7,8
 1012 946 1012 946 1156 774 c 0,9,10
 1231 685 1231 685 1252 567 c 0,11,12
 1258 528 1258 528 1258 483 c 0,13,14
 1258 229 1258 229 1061 86 c 0,15,16
 906 -27 906 -27 680 -27 c 0,17,18
 422 -27 422 -27 277 96 c 0,19,20
 187 173 187 173 185 274 c 1,21,22
 185 354 185 354 252 391 c 0,23,24
 279 406 279 406 310 406 c 0,25,26
 382 406 382 406 416 342 c 0,27,28
 429 317 429 317 429 291 c 2,29,-1
 429 283 l 1,30,-1
 410 215 l 1,31,-1
 408 193 l 1,32,33
 408 129 408 129 511 90 c 0,34,35
 574 66 574 66 652 66 c 0,36,37
 870 66 870 66 971 231 c 1,38,39
 1027 326 1027 326 1027 453 c 0,40,41
 1027 685 1027 685 863 780 c 0,42,43
 783 827 783 827 674 827 c 0,44,45
 530 827 530 827 435 735 c 1,46,47
 416 718 416 718 397.5 695.5 c 128,-1,48
 379 673 379 673 359 647 c 2,49,-1
 353 639 l 1,50,-1
 265 659 l 1,51,-1
 265 1395 l 1,52,-1
 883 1395 l 2,53,54
 986 1395 986 1395 1016 1425 c 1,55,-1
 1035 1446 l 1,56,57
 1038 1451 1038 1451 1041.5 1456.5 c 128,-1,58
 1045 1462 1045 1462 1049 1468 c 1,59,-1
 1127 1468 l 1,0,-1
EndSplineSet
EndChar

StartChar: six
Encoding: 54 54 25
Width: 1269
GlyphClass: 2
Flags: W
LayerCount: 2
Fore
SplineSet
362 682 m 1,0,1
 498 866 498 866 694 887 c 0,2,3
 711 889 711 889 728 890 c 128,-1,4
 745 891 745 891 762 891 c 0,5,6
 1008 891 1008 891 1149 729 c 0,7,8
 1255 608 1255 608 1255 440 c 0,9,10
 1255 229 1255 229 1079 92 c 1,11,12
 924 -27 924 -27 706 -27 c 0,13,14
 471 -27 471 -27 317 123 c 0,15,16
 304 137 304 137 291.5 150.5 c 128,-1,17
 279 164 279 164 268 178 c 0,18,19
 139 353 139 353 139 651 c 0,20,21
 139 923 139 923 244 1120 c 1,22,23
 350 1315 350 1315 565 1389 c 0,24,25
 659 1421 659 1421 756 1421 c 0,26,27
 967 1421 967 1421 1104 1313 c 0,28,29
 1194 1243 1194 1243 1196 1157 c 1,30,31
 1196 1087 1196 1087 1128 1063 c 1,32,-1
 1089 1057 l 1,33,34
 999 1057 999 1057 971 1151 c 0,35,36
 960 1186 960 1186 960 1219 c 1,37,38
 958 1258 958 1258 940 1276 c 0,39,40
 875 1339 875 1339 749 1339 c 0,41,42
 436 1339 436 1339 379 897 c 1,43,-1
 373 854 l 1,44,-1
 371 819 l 1,45,-1
 362 682 l 1,0,1
715 784 m 0,46,47
 509 784 509 784 424 616 c 1,48,49
 381 534 381 534 381 416 c 0,50,51
 381 187 381 187 545 104 c 1,52,53
 617 72 617 72 702 72 c 0,54,55
 899 72 899 72 983 236 c 1,56,57
 1024 320 1024 320 1024 430 c 0,58,59
 1024 649 1024 649 878 739 c 1,60,61
 807 784 807 784 715 784 c 0,46,47
EndSplineSet
EndChar

StartChar: seven
Encoding: 55 55 26
Width: 1269
GlyphClass: 2
Flags: W
LayerCount: 2
Fore
SplineSet
1246 1395 m 1,0,-1
 1262 1266 l 1,1,2
 1190 1185 1190 1185 1127 1097.5 c 128,-1,3
 1064 1010 1064 1010 1004 913 c 1,4,5
 972 859 972 859 938.5 800 c 128,-1,6
 905 741 905 741 871 674 c 1,7,8
 804 536 804 536 769 424 c 0,9,10
 714 252 714 252 691 0 c 1,11,-1
 427 0 l 1,12,13
 464 215 464 215 572 449 c 1,14,15
 765 873 765 873 1113 1227 c 1,16,-1
 576 1227 l 2,17,18
 422 1227 422 1227 363 1192 c 0,19,20
 359 1190 359 1190 355.5 1188 c 128,-1,21
 352 1186 352 1186 349 1184 c 2,22,-1
 338 1176 l 1,23,24
 294 1141 294 1141 269 1077 c 1,25,-1
 267 1075 l 1,26,-1
 250 1030 l 1,27,-1
 185 1030 l 1,28,-1
 250 1395 l 1,29,-1
 1246 1395 l 1,0,-1
EndSplineSet
EndChar

StartChar: eight
Encoding: 56 56 27
Width: 1269
GlyphClass: 2
Flags: W
LayerCount: 2
Fore
SplineSet
873 791 m 1,0,1
 973 754 973 754 1025 729 c 1,2,3
 1057 712 1057 712 1085 692.5 c 128,-1,4
 1113 673 1113 673 1138 651 c 1,5,-1
 1142 647 l 1,6,7
 1240 558 1240 558 1240 416 c 0,8,9
 1240 212 1240 212 1058 84 c 0,10,11
 900 -27 900 -27 673 -27 c 0,12,13
 400 -27 400 -27 245 119 c 0,14,15
 136 221 136 221 136 358 c 2,16,-1
 136 379 l 1,17,18
 143 503 143 503 236 596 c 1,19,20
 296 654 296 654 392 692 c 1,21,-1
 480 721 l 1,22,-1
 374 770 l 1,23,24
 322 797 322 797 288 836 c 1,25,26
 210 921 210 921 210 1040 c 0,27,28
 210 1233 210 1233 384 1341 c 1,29,30
 515 1421 515 1421 695 1421 c 0,31,32
 966 1421 966 1421 1103 1284 c 2,33,-1
 1105 1282 l 1,34,35
 1183 1202 1183 1202 1183 1096 c 0,36,37
 1183 968 1183 968 1080 883 c 1,38,-1
 1070 874 l 1,39,40
 1019 837 1019 837 945 811 c 1,41,-1
 873 791 l 1,0,1
617 872 m 1,42,-1
 769 825 l 1,43,44
 959 868 959 868 1004 1012 c 0,45,46
 1015 1050 1015 1050 1015 1087 c 0,47,48
 1015 1225 1015 1225 890 1296 c 0,49,50
 814 1339 814 1339 718 1339 c 0,51,52
 537 1339 537 1339 443 1231 c 0,53,54
 390 1169 390 1169 390 1094 c 0,55,56
 390 944 390 944 617 872 c 1,42,-1
816 610 m 1,57,-1
 581 684 l 1,58,59
 341 590 341 590 318 401 c 1,60,-1
 316 356 l 1,61,62
 316 178 316 178 480 98 c 0,63,64
 566 55 566 55 689 55 c 0,65,66
 896 55 896 55 1000 178 c 0,67,68
 1060 248 1060 248 1060 338 c 0,69,70
 1060 532 1060 532 816 610 c 1,57,-1
EndSplineSet
EndChar

StartChar: nine
Encoding: 57 57 28
Width: 1269
GlyphClass: 2
Flags: W
LayerCount: 2
Fore
SplineSet
1005 735 m 1,0,1
 974 681 974 681 945 647 c 1,2,3
 914 605 914 605 863 573 c 0,4,5
 755 504 755 504 599 504 c 0,6,7
 353 504 353 504 214 666 c 0,8,9
 126 769 126 769 116 911 c 0,10,11
 115 930 115 930 114.5 939 c 128,-1,12
 114 948 114 948 114 1053 c 128,-1,13
 114 1158 114 1158 290 1298 c 0,14,15
 444 1421 444 1421 661 1421 c 0,16,17
 897 1421 897 1421 1052 1268 c 0,18,19
 1107 1213 1107 1213 1140 1145 c 1,20,21
 1218 977 1218 977 1218 731 c 0,22,23
 1218 463 1218 463 1132 285 c 0,24,25
 1021 58 1021 58 771 -6 c 0,26,27
 691 -27 691 -27 603 -27 c 0,28,29
 399 -27 399 -27 263 78 c 1,30,31
 174 145 174 145 173 225 c 0,32,33
 173 293 173 293 233 319 c 0,34,35
 252 328 252 328 274 328 c 0,36,37
 347 328 347 328 386 254 c 1,38,-1
 394 231 l 1,39,-1
 403 172 l 1,40,41
 405 138 405 138 441 109 c 1,42,-1
 427 119 l 1,43,-1
 441 109 l 1,44,45
 494 74 494 74 585 68 c 2,46,-1
 616 66 l 1,47,48
 831 66 831 66 927 254 c 1,49,-1
 941 285 l 1,50,51
 996 416 996 416 1005 686 c 1,52,-1
 1005 735 l 1,0,1
667 1329 m 0,53,54
 473 1329 473 1329 384 1171 c 1,55,-1
 382 1169 l 1,56,57
 335 1083 335 1083 335 967 c 0,58,59
 335 741 335 741 484 649 c 1,60,61
 558 602 558 602 654 602 c 0,62,63
 854 602 854 602 937 772 c 1,64,65
 980 857 980 857 980 977 c 0,66,67
 980 1204 980 1204 824 1290 c 1,68,69
 756 1329 756 1329 667 1329 c 0,53,54
EndSplineSet
EndChar

StartChar: colon
Encoding: 58 58 29
Width: 655
GlyphClass: 2
Flags: W
LayerCount: 2
Fore
SplineSet
418 236 m 0,0,1
 493 236 493 236 530 166 c 1,2,3
 547 137 547 137 547 104 c 0,4,5
 547 25 547 25 475 -12 c 0,6,7
 446 -27 446 -27 415 -27 c 0,8,9
 338 -27 338 -27 301 43 c 1,10,11
 284 72 284 72 284 106 c 0,12,13
 284 186 284 186 358 221 c 1,14,15
 385 236 385 236 418 236 c 0,0,1
418 1012 m 0,16,17
 493 1012 493 1012 530 942 c 1,18,19
 547 913 547 913 547 881 c 0,20,21
 547 801 547 801 475 764 c 1,22,23
 444 750 444 750 415 750 c 0,24,25
 337 750 337 750 299 821 c 1,26,-1
 299 823 l 1,27,28
 284 850 284 850 284 881 c 0,29,30
 284 962 284 962 358 997 c 1,31,32
 385 1012 385 1012 418 1012 c 0,16,17
EndSplineSet
EndChar

StartChar: semicolon
Encoding: 59 59 30
Width: 655
GlyphClass: 2
Flags: W
LayerCount: 2
Fore
SplineSet
327 -229 m 1,0,-1
 305 -188 l 1,1,2
 426 -120 426 -120 454 4 c 0,3,4
 456 12 456 12 459 18 c 1,5,6
 426 -6 426 -6 403 -10 c 1,7,-1
 401 -10 l 1,8,9
 396 -11 396 -11 391.5 -11.5 c 128,-1,10
 387 -12 387 -12 383 -12 c 0,11,12
 311 -12 311 -12 287 59 c 1,13,-1
 278 104 l 1,14,15
 278 192 278 192 352 227 c 1,16,17
 377 240 377 240 407 240 c 0,18,19
 495 240 495 240 534 150 c 1,20,21
 551 108 551 108 551 63 c 0,22,23
 551 -131 551 -131 327 -229 c 1,0,-1
416 1012 m 0,24,25
 491 1012 491 1012 528 942 c 1,26,27
 545 913 545 913 545 881 c 0,28,29
 545 801 545 801 473 764 c 1,30,31
 442 750 442 750 413 750 c 0,32,33
 335 750 335 750 297 821 c 1,34,-1
 297 823 l 1,35,36
 282 850 282 850 282 881 c 0,37,38
 282 962 282 962 356 997 c 1,39,40
 383 1012 383 1012 416 1012 c 0,24,25
EndSplineSet
EndChar

StartChar: less
Encoding: 60 60 31
Width: 1228
GlyphClass: 2
Flags: W
LayerCount: 2
Fore
SplineSet
100 737 m 1,0,-1
 1143 1227 l 1,1,-1
 1143 1049 l 1,2,-1
 317 664 l 1,3,-1
 1143 276 l 1,4,-1
 1143 100 l 1,5,-1
 100 590 l 1,6,-1
 100 737 l 1,0,-1
EndSplineSet
EndChar

StartChar: equal
Encoding: 61 61 32
Width: 1228
GlyphClass: 2
Flags: W
LayerCount: 2
Fore
SplineSet
1137 1001 m 1,0,-1
 1137 842 l 1,1,-1
 104 842 l 1,2,-1
 104 1001 l 1,3,-1
 1137 1001 l 1,0,-1
1137 604 m 1,4,-1
 1137 444 l 1,5,-1
 104 444 l 1,6,-1
 104 604 l 1,7,-1
 1137 604 l 1,4,-1
EndSplineSet
EndChar

StartChar: greater
Encoding: 62 62 33
Width: 1228
GlyphClass: 2
Flags: W
LayerCount: 2
Fore
SplineSet
1141 737 m 1,0,-1
 1141 590 l 1,1,-1
 98 100 l 1,2,-1
 98 276 l 1,3,-1
 924 664 l 1,4,-1
 98 1049 l 1,5,-1
 98 1227 l 1,6,-1
 1141 737 l 1,0,-1
EndSplineSet
EndChar

StartChar: question
Encoding: 63 63 34
Width: 1105
GlyphClass: 2
Flags: W
LayerCount: 2
Fore
SplineSet
511 238 m 0,0,1
 587 238 587 238 624 168 c 1,2,3
 640 143 640 143 640 106 c 0,4,5
 640 26 640 26 569 -12 c 0,6,7
 543 -26 543 -26 509 -27 c 1,8,9
 428 -27 428 -27 390 47 c 1,10,11
 376 77 376 77 376 106 c 0,12,13
 376 185 376 185 448 223 c 1,14,15
 479 238 479 238 511 238 c 0,0,1
556 356 m 1,16,-1
 464 356 l 1,17,18
 462 396 462 396 461 415 c 128,-1,19
 460 434 460 434 460 432 c 2,20,-1
 460 446 l 2,21,22
 460 580 460 580 526 649 c 0,23,24
 530 654 530 654 534.5 659 c 128,-1,25
 539 664 539 664 546 670 c 1,26,-1
 548 670 l 1,27,-1
 552 674 l 1,28,-1
 601 711 l 1,29,-1
 718 791 l 2,30,31
 858 887 858 887 859 1059 c 1,32,33
 859 1272 859 1272 679 1325 c 0,34,35
 644 1336 644 1336 603 1337 c 1,36,-1
 569 1339 l 1,37,38
 401 1339 401 1339 317 1251 c 1,39,-1
 315 1249 l 2,40,41
 278 1212 278 1212 278 1163 c 1,42,-1
 280 1139 l 1,43,-1
 296 1098 l 1,44,45
 306 1076 306 1076 312.5 1057 c 128,-1,46
 319 1038 319 1038 321 1022 c 1,47,-1
 321 1032 l 1,48,-1
 321 1022 l 2,49,50
 321 965 321 965 259 936 c 1,51,52
 236 924 236 924 210 924 c 0,53,54
 127 924 127 924 96 1006 c 1,55,-1
 96 1008 l 1,56,57
 83 1034 83 1034 83 1073 c 0,58,59
 83 1110 83 1110 96 1145 c 1,60,61
 128 1239 128 1239 225 1315 c 0,62,63
 335 1401 335 1401 524 1417 c 1,64,-1
 589 1421 l 1,65,-1
 632 1419 l 1,66,67
 792 1409 792 1409 919 1333 c 0,68,69
 1048 1255 1048 1255 1077 1100 c 0,70,71
 1079 1086 1079 1086 1080 1071 c 128,-1,72
 1081 1056 1081 1056 1081 1040 c 1,73,-1
 1079 1014 l 2,74,75
 1070 901 1070 901 1003 813 c 1,76,77
 935 733 935 733 804 688 c 1,78,-1
 737 664 l 1,79,80
 612 616 612 616 579 526 c 1,81,82
 554 470 554 470 556 356 c 1,16,-1
EndSplineSet
EndChar

StartChar: at
Encoding: 64 64 35
Width: 1679
GlyphClass: 2
Flags: W
LayerCount: 2
Fore
SplineSet
1138 1118 m 1,0,-1
 1286 1118 l 1,1,-1
 1190 598 l 1,2,-1
 1179 512 l 1,3,4
 1179 455 1179 455 1231 436 c 1,5,-1
 1233 436 l 1,6,-1
 1255 432 l 1,7,8
 1300 432 1300 432 1349 469 c 0,9,10
 1389 500 1389 500 1427 547 c 1,11,12
 1515 665 1515 665 1515 815 c 0,13,14
 1515 1036 1515 1036 1335 1192 c 1,15,16
 1159 1341 1159 1341 913 1341 c 0,17,18
 649 1341 649 1341 460 1155 c 1,19,20
 269 973 269 973 268 709 c 1,21,22
 268 439 268 439 458 252 c 1,23,24
 645 66 645 66 911 66 c 1,25,-1
 997 72 l 1,26,27
 1222 100 1222 100 1370 233 c 1,28,-1
 1374 238 l 1,29,-1
 1394 258 l 2,30,31
 1423 287 1423 287 1446 319 c 1,32,-1
 1487 385 l 1,33,-1
 1581 385 l 1,34,-1
 1548 319 l 2,35,36
 1518 258 1518 258 1474 213 c 2,37,-1
 1460 199 l 1,38,39
 1290 25 1290 25 1032 -16 c 1,40,41
 1009 -21 1009 -21 987.5 -23.5 c 128,-1,42
 966 -26 966 -26 944 -27 c 1,43,-1
 911 -27 l 2,44,45
 611 -27 611 -27 397 174 c 1,46,47
 184 376 184 376 170 664 c 1,48,-1
 170 700 l 2,49,50
 170 994 170 994 374 1206 c 1,51,52
 581 1417 581 1417 878 1434 c 1,53,-1
 917 1434 l 2,54,55
 1206 1434 1206 1434 1409 1251 c 1,56,57
 1601 1075 1601 1075 1603 827 c 1,58,59
 1603 640 1603 640 1482 498 c 1,60,61
 1405 406 1405 406 1300 358 c 0,62,63
 1232 328 1232 328 1175 328 c 0,64,65
 1093 328 1093 328 1050 410 c 1,66,67
 1030 453 1030 453 1030 500 c 2,68,-1
 1030 522 l 1,69,70
 893 334 893 334 708 328 c 1,71,72
 544 328 544 328 471 463 c 0,73,74
 434 530 434 530 434 623 c 0,75,76
 434 841 434 841 585 995 c 1,77,78
 718 1133 718 1133 893 1133 c 0,79,80
 1035 1133 1035 1133 1124 1038 c 1,81,-1
 1138 1118 l 1,0,-1
1112 971 m 1,82,-1
 1104 979 l 1,83,84
 1036 1057 1036 1057 927 1057 c 0,85,86
 778 1057 778 1057 675 895 c 0,87,88
 626 819 626 819 602 705 c 1,89,90
 587 640 587 640 587 584 c 0,91,92
 587 455 587 455 678 416 c 1,93,94
 703 403 703 403 737 403 c 0,95,96
 772 403 772 403 815 420 c 0,97,98
 911 458 911 458 979 555 c 1,99,-1
 983 561 l 1,100,101
 1039 647 1039 647 1073 784 c 0,102,103
 1077 803 1077 803 1081.5 824 c 128,-1,104
 1086 845 1086 845 1091 870 c 0,105,106
 1098 903 1098 903 1106 942 c 2,107,-1
 1112 971 l 1,82,-1
EndSplineSet
EndChar

StartChar: A
Encoding: 65 65 36
Width: 1392
GlyphClass: 2
Flags: W
LayerCount: 2
Fore
SplineSet
759 1395 m 1,0,-1
 1193 297 l 2,1,2
 1212 249 1212 249 1226.5 215.5 c 128,-1,3
 1241 182 1241 182 1252 162 c 0,4,5
 1291 94 1291 94 1363 76 c 1,6,-1
 1365 76 l 1,7,8
 1376 73 1376 73 1390.5 70 c 128,-1,9
 1405 67 1405 67 1424 63 c 1,10,-1
 1424 0 l 1,11,-1
 849 0 l 1,12,-1
 849 63 l 1,13,-1
 908 74 l 2,14,15
 953 82 953 82 968 94 c 1,16,17
 1009 119 1009 119 1011 166 c 1,18,19
 1011 191 1011 191 992 244 c 1,20,-1
 988 254 l 1,21,-1
 886 518 l 1,22,-1
 357 518 l 1,23,-1
 292 342 l 1,24,25
 253 244 253 244 253 190 c 0,26,27
 253 130 253 130 304 96 c 1,28,29
 329 83 329 83 386 72 c 2,30,-1
 435 63 l 1,31,-1
 435 0 l 1,32,-1
 -114 0 l 1,33,-1
 -114 63 l 1,34,-1
 -91 68 l 1,35,36
 5 86 5 86 54 147 c 1,37,-1
 62 158 l 1,38,39
 88 192 88 192 126.5 275 c 128,-1,40
 165 358 165 358 216 492 c 1,41,-1
 568 1395 l 1,42,-1
 759 1395 l 1,0,-1
388 606 m 1,43,-1
 849 606 l 1,44,-1
 615 1221 l 1,45,-1
 388 606 l 1,43,-1
EndSplineSet
EndChar

StartChar: B
Encoding: 66 66 37
Width: 1515
GlyphClass: 2
Flags: W
LayerCount: 2
Fore
SplineSet
63 1395 m 1,0,-1
 784 1395 l 2,1,2
 1076 1395 1076 1395 1210 1317 c 0,3,4
 1331 1246 1331 1246 1356 1112 c 0,5,6
 1358 1102 1358 1102 1359 1089.5 c 128,-1,7
 1360 1077 1360 1077 1360 1063 c 0,8,9
 1360 936 1360 936 1262 862 c 1,10,-1
 1243 848 l 2,11,12
 1232 840 1232 840 1220.5 832.5 c 128,-1,13
 1209 825 1209 825 1196 819 c 0,14,15
 1179 811 1179 811 1157.5 803.5 c 128,-1,16
 1136 796 1136 796 1110 788 c 0,17,18
 1093 782 1093 782 1063 776 c 1,19,-1
 1145 756 l 1,20,-1
 1147 754 l 1,21,-1
 1149 754 l 1,22,23
 1207 735 1207 735 1249 713 c 1,24,-1
 1282 692 l 1,25,26
 1431 600 1431 600 1438 412 c 1,27,28
 1438 250 1438 250 1321 139 c 1,29,-1
 1319 137 l 1,30,-1
 1284 109 l 1,31,32
 1136 0 1136 0 811 0 c 2,33,-1
 63 0 l 1,34,-1
 63 63 l 1,35,-1
 115 70 l 2,36,37
 207 82 207 82 229 143 c 1,38,-1
 231 143 l 1,39,40
 248 191 248 191 248 295 c 2,41,-1
 248 1100 l 2,42,43
 248 1255 248 1255 201 1294 c 0,44,45
 176 1315 176 1315 133 1323 c 0,46,47
 129 1323 129 1323 124.5 1323.5 c 128,-1,48
 120 1324 120 1324 115 1325 c 2,49,-1
 63 1331 l 1,50,-1
 63 1395 l 1,0,-1
453 805 m 1,51,-1
 690 805 l 2,52,53
 1034 805 1034 805 1118 928 c 1,54,-1
 1118 930 l 1,55,-1
 1120 932 l 1,56,57
 1151 981 1151 981 1151 1057 c 0,58,59
 1151 1315 1151 1315 729 1315 c 0,60,61
 535 1315 535 1315 489 1272 c 1,62,-1
 485 1268 l 1,63,-1
 483 1268 l 1,64,65
 453 1233 453 1233 453 1141 c 2,66,-1
 453 805 l 1,51,-1
453 717 m 1,67,-1
 453 315 l 2,68,69
 453 184 453 184 477 150 c 1,70,71
 520 84 520 84 719 84 c 0,72,73
 976 84 976 84 1092 170 c 0,74,75
 1196 248 1196 248 1206 399 c 1,76,-1
 1206 422 l 2,77,78
 1206 604 1206 604 1067 676 c 1,79,-1
 1053 682 l 1,80,81
 968 717 968 717 694 717 c 2,82,-1
 453 717 l 1,67,-1
EndSplineSet
EndChar

StartChar: C
Encoding: 67 67 38
Width: 1515
GlyphClass: 2
Flags: W
LayerCount: 2
Fore
SplineSet
1342 1376 m 1,0,-1
 1441 883 l 1,1,-1
 1375 883 l 1,2,-1
 1277 1053 l 1,3,-1
 1267 1069 l 1,4,-1
 1265 1071 l 1,5,-1
 1265 1073 l 1,6,-1
 1248 1098 l 1,7,8
 1127 1272 1127 1272 937 1313 c 1,9,10
 898 1323 898 1323 849 1323 c 0,11,12
 636 1323 636 1323 501 1128 c 0,13,14
 378 952 378 952 378 692 c 0,15,16
 378 402 378 402 523 242 c 1,17,-1
 527 238 l 1,18,19
 630 123 630 123 789 84 c 0,20,21
 841 72 841 72 890 72 c 0,22,23
 959 72 959 72 1037 96 c 0,24,25
 1147 131 1147 131 1228 193 c 1,26,-1
 1244 205 l 1,27,28
 1267 224 1267 224 1288 243.5 c 128,-1,29
 1309 263 1309 263 1328 285 c 0,30,31
 1344 302 1344 302 1360.5 324.5 c 128,-1,32
 1377 347 1377 347 1396 375 c 1,33,-1
 1484 326 l 1,34,35
 1258 -25 1258 -25 859 -27 c 1,36,37
 544 -27 544 -27 337 184 c 1,38,39
 136 386 136 386 136 690 c 0,40,41
 136 991 136 991 329 1196 c 1,42,43
 464 1342 464 1342 810 1421 c 1,44,-1
 660 1399 l 1,45,46
 735 1421 735 1421 810 1421 c 0,47,48
 1060 1421 1060 1421 1226 1294 c 1,49,-1
 1232 1290 l 1,50,-1
 1275 1376 l 1,51,-1
 1342 1376 l 1,0,-1
EndSplineSet
EndChar

StartChar: D
Encoding: 68 68 39
Width: 1638
GlyphClass: 2
Flags: W
LayerCount: 2
Fore
SplineSet
280 295 m 2,0,-1
 280 1100 l 2,1,2
 280 1255 280 1255 233 1294 c 0,3,4
 208 1315 208 1315 165 1323 c 0,5,6
 161 1323 161 1323 156.5 1323.5 c 128,-1,7
 152 1324 152 1324 147 1325 c 2,8,-1
 95 1331 l 1,9,-1
 95 1395 l 1,10,-1
 720 1395 l 2,11,12
 1132 1395 1132 1395 1335 1231 c 0,13,14
 1351 1217 1351 1217 1367 1202 c 0,15,16
 1517 1058 1517 1058 1560 817 c 0,17,18
 1564 797 1564 797 1566.5 777 c 128,-1,19
 1569 757 1569 757 1570 737 c 2,20,-1
 1572 686 l 1,21,22
 1572 429 1572 429 1421 242 c 1,23,24
 1385 200 1385 200 1351 170 c 0,25,26
 1197 37 1197 37 941 10 c 0,27,28
 903 6 903 6 860.5 3.5 c 128,-1,29
 818 1 818 1 769 0 c 1,30,-1
 720 0 l 1,31,-1
 95 0 l 1,32,-1
 95 63 l 1,33,-1
 147 70 l 2,34,35
 239 82 239 82 261 143 c 1,36,-1
 263 143 l 1,37,38
 280 191 280 191 280 295 c 2,0,-1
485 1122 m 2,39,-1
 485 264 l 2,40,41
 485 156 485 156 513 129 c 0,42,43
 559 84 559 84 726 84 c 0,44,45
 1044 84 1044 84 1199 276 c 1,46,47
 1330 440 1330 440 1330 700 c 0,48,49
 1330 934 1330 934 1218 1094 c 1,50,51
 1064 1311 1064 1311 728 1311 c 0,52,53
 558 1311 558 1311 509 1260 c 1,54,55
 485 1233 485 1233 485 1122 c 2,39,-1
EndSplineSet
EndChar

StartChar: E
Encoding: 69 69 40
Width: 1474
GlyphClass: 2
Flags: W
LayerCount: 2
Fore
SplineSet
1265 1395 m 1,0,-1
 1406 1026 l 1,1,-1
 1341 999 l 1,2,3
 1310 1036 1310 1036 1281 1067 c 128,-1,4
 1252 1098 1252 1098 1224 1124 c 0,5,6
 1061 1278 1061 1278 839 1300 c 1,7,-1
 718 1307 l 1,8,9
 547 1307 547 1307 507 1243 c 0,10,11
 485 1209 485 1209 485 1137 c 2,12,-1
 485 788 l 1,13,-1
 640 788 l 2,14,15
 779 788 779 788 829 850 c 1,16,-1
 829 852 l 1,17,18
 868 903 868 903 888 1049 c 1,19,-1
 958 1049 l 1,20,-1
 958 436 l 1,21,-1
 888 436 l 1,22,23
 869 633 869 633 759 680 c 1,24,-1
 757 680 l 1,25,26
 708 700 708 700 636 700 c 2,27,-1
 485 700 l 1,28,-1
 485 268 l 2,29,30
 485 180 485 180 511 145 c 1,31,32
 560 88 560 88 716 88 c 0,33,34
 983 88 983 88 1156 207 c 0,35,36
 1175 219 1175 219 1193 233 c 128,-1,37
 1211 247 1211 247 1230 264 c 0,38,39
 1317 344 1317 344 1412 465 c 1,40,-1
 1476 436 l 1,41,-1
 1289 0 l 1,42,-1
 95 0 l 1,43,-1
 95 63 l 1,44,-1
 147 70 l 2,45,46
 239 82 239 82 261 143 c 1,47,-1
 263 143 l 1,48,49
 280 191 280 191 280 295 c 2,50,-1
 280 1100 l 2,51,52
 280 1255 280 1255 233 1294 c 0,53,54
 208 1315 208 1315 165 1323 c 0,55,56
 161 1323 161 1323 156.5 1323.5 c 128,-1,57
 152 1324 152 1324 147 1325 c 2,58,-1
 95 1331 l 1,59,-1
 95 1395 l 1,60,-1
 1265 1395 l 1,0,-1
EndSplineSet
EndChar

StartChar: F
Encoding: 70 70 41
Width: 1310
GlyphClass: 2
Flags: W
LayerCount: 2
Fore
SplineSet
1224 1395 m 1,0,-1
 1371 1044 l 1,1,-1
 1306 1012 l 1,2,-1
 1236 1090 l 1,3,4
 1050 1278 1050 1278 814 1305 c 1,5,-1
 714 1309 l 1,6,7
 564 1309 564 1309 519 1264 c 0,8,9
 485 1230 485 1230 485 1108 c 2,10,-1
 485 788 l 1,11,-1
 620 788 l 2,12,13
 771 788 771 788 825 850 c 1,14,-1
 845 879 l 1,15,16
 868 925 868 925 880 1008 c 1,17,-1
 880 1012 l 1,18,-1
 880 1014 l 1,19,-1
 884 1044 l 1,20,-1
 947 1044 l 1,21,-1
 947 438 l 1,22,-1
 884 438 l 1,23,-1
 880 469 l 1,24,25
 863 575 863 575 827 623 c 1,26,27
 762 700 762 700 620 700 c 2,28,-1
 485 700 l 1,29,-1
 485 295 l 2,30,31
 485 133 485 133 538 94 c 0,32,33
 564 76 564 76 618 70 c 2,34,-1
 685 63 l 1,35,-1
 685 0 l 1,36,-1
 95 0 l 1,37,-1
 95 63 l 1,38,-1
 147 70 l 2,39,40
 239 82 239 82 261 143 c 1,41,-1
 263 143 l 1,42,43
 280 191 280 191 280 295 c 2,44,-1
 280 1100 l 2,45,46
 280 1255 280 1255 233 1294 c 0,47,48
 208 1315 208 1315 165 1323 c 0,49,50
 161 1323 161 1323 156.5 1323.5 c 128,-1,51
 152 1324 152 1324 147 1325 c 2,52,-1
 95 1331 l 1,53,-1
 95 1395 l 1,54,-1
 1224 1395 l 1,0,-1
EndSplineSet
EndChar

StartChar: G
Encoding: 71 71 42
Width: 1638
GlyphClass: 2
Flags: W
LayerCount: 2
Fore
SplineSet
1326 1395 m 1,0,-1
 1451 961 l 1,1,-1
 1373 938 l 1,2,3
 1322 1010 1322 1010 1269 1072.5 c 128,-1,4
 1216 1135 1216 1135 1158 1192 c 1,5,-1
 1207 1147 l 1,6,7
 1201 1151 1201 1151 1197 1157 c 1,8,-1
 1158 1192 l 1,9,10
 1000 1323 1000 1323 834 1323 c 0,11,12
 604 1323 604 1323 476 1108 c 1,13,14
 384 947 384 947 378 713 c 1,15,-1
 378 688 l 2,16,17
 378 360 378 360 562 188 c 1,18,19
 693 72 693 72 871 72 c 2,20,-1
 894 72 l 1,21,22
 1068 79 1068 79 1185 180 c 1,23,24
 1204 198 1204 198 1215 211 c 0,25,26
 1281 295 1281 295 1281 410 c 0,27,28
 1281 535 1281 535 1195 573 c 1,29,-1
 1193 575 l 1,30,31
 1152 595 1152 595 1080 602 c 1,32,-1
 1080 664 l 1,33,-1
 1639 664 l 1,34,-1
 1639 600 l 1,35,-1
 1602 594 l 2,36,37
 1517 581 1517 581 1498 545 c 1,38,-1
 1498 543 l 1,39,-1
 1496 541 l 1,40,-1
 1496 539 l 1,41,-1
 1494 537 l 1,42,43
 1469 481 1469 481 1469 369 c 2,44,-1
 1469 0 l 1,45,-1
 1373 0 l 1,46,-1
 1308 141 l 1,47,48
 1273 115 1273 115 1239.5 92.5 c 128,-1,49
 1206 70 1206 70 1174 53 c 1,50,-1
 1168 51 l 1,51,52
 1021 -27 1021 -27 843 -27 c 0,53,54
 538 -27 538 -27 337 184 c 1,55,56
 136 391 136 391 136 702 c 0,57,58
 136 996 136 996 322 1202 c 1,59,60
 492 1384 492 1384 740 1415 c 0,61,62
 771 1419 771 1419 804 1421 c 1,63,-1
 822 1421 l 2,64,65
 1040 1421 1040 1421 1222 1296 c 1,66,-1
 1263 1395 l 1,67,-1
 1326 1395 l 1,0,-1
EndSplineSet
EndChar

StartChar: H
Encoding: 72 72 43
Width: 1638
GlyphClass: 2
Flags: W
LayerCount: 2
Fore
SplineSet
485 795 m 1,0,-1
 1218 795 l 1,1,-1
 1218 1100 l 2,2,3
 1218 1255 1218 1255 1171 1294 c 0,4,5
 1146 1315 1146 1315 1103 1323 c 1,6,-1
 1085 1325 l 1,7,-1
 1033 1331 l 1,8,-1
 1033 1395 l 1,9,-1
 1607 1395 l 1,10,-1
 1607 1331 l 1,11,-1
 1556 1325 l 1,12,13
 1464 1313 1464 1313 1441 1251 c 1,14,15
 1423 1206 1423 1206 1423 1100 c 2,16,-1
 1423 295 l 2,17,18
 1423 139 1423 139 1470 100 c 0,19,20
 1495 80 1495 80 1539 72 c 1,21,-1
 1541 72 l 1,22,-1
 1556 70 l 1,23,-1
 1607 63 l 1,24,-1
 1607 0 l 1,25,-1
 1033 0 l 1,26,-1
 1033 63 l 1,27,-1
 1085 70 l 2,28,29
 1177 82 1177 82 1199 143 c 1,30,-1
 1201 143 l 1,31,32
 1218 191 1218 191 1218 295 c 2,33,-1
 1218 707 l 1,34,-1
 485 707 l 1,35,-1
 485 295 l 2,36,37
 485 139 485 139 532 100 c 0,38,39
 557 80 557 80 601 72 c 1,40,-1
 618 70 l 1,41,-1
 669 63 l 1,42,-1
 669 0 l 1,43,-1
 95 0 l 1,44,-1
 95 63 l 1,45,-1
 147 70 l 2,46,47
 239 82 239 82 261 143 c 1,48,-1
 263 143 l 1,49,50
 280 191 280 191 280 295 c 2,51,-1
 280 1100 l 2,52,53
 280 1255 280 1255 233 1294 c 0,54,55
 208 1315 208 1315 165 1323 c 0,56,57
 161 1323 161 1323 156.5 1323.5 c 128,-1,58
 152 1324 152 1324 147 1325 c 2,59,-1
 95 1331 l 1,60,-1
 95 1395 l 1,61,-1
 669 1395 l 1,62,-1
 669 1331 l 1,63,-1
 618 1325 l 1,64,65
 526 1313 526 1313 503 1251 c 1,66,67
 485 1206 485 1206 485 1100 c 2,68,-1
 485 795 l 1,0,-1
EndSplineSet
EndChar

StartChar: I
Encoding: 73 73 44
Width: 696
GlyphClass: 2
Flags: W
LayerCount: 2
Fore
SplineSet
474 1100 m 2,0,-1
 474 295 l 2,1,2
 474 143 474 143 515 104 c 1,3,4
 542 80 542 80 607 70 c 1,5,-1
 648 63 l 1,6,-1
 648 0 l 1,7,-1
 95 0 l 1,8,-1
 95 63 l 1,9,-1
 136 70 l 1,10,11
 226 83 226 83 251 137 c 0,12,13
 270 178 270 178 270 295 c 2,14,-1
 270 1100 l 2,15,16
 270 1251 270 1251 229 1290 c 0,17,18
 203 1315 203 1315 136 1325 c 2,19,-1
 95 1331 l 1,20,-1
 95 1395 l 1,21,-1
 648 1395 l 1,22,-1
 648 1331 l 1,23,-1
 607 1325 l 2,24,25
 517 1311 517 1311 493 1257 c 0,26,27
 474 1216 474 1216 474 1100 c 2,0,-1
EndSplineSet
EndChar

StartChar: J
Encoding: 74 74 45
Width: 1228
GlyphClass: 2
Flags: W
LayerCount: 2
Fore
SplineSet
953 1100 m 2,0,-1
 953 532 l 2,1,2
 953 290 953 290 916 215 c 0,3,4
 905 191 905 191 889 168 c 2,5,-1
 885 162 l 1,6,-1
 881 156 l 1,7,8
 783 25 783 25 570 -14 c 1,9,10
 539 -21 539 -21 507 -24 c 128,-1,11
 475 -27 475 -27 443 -27 c 0,12,13
 246 -27 246 -27 111 63 c 1,14,15
 -22 154 -22 154 -61 303 c 0,16,17
 -62 308 -62 308 -63 313.5 c 128,-1,18
 -64 319 -64 319 -65 324 c 0,19,20
 -71 352 -71 352 -71 381 c 0,21,22
 -71 501 -71 501 17 547 c 0,23,24
 48 563 48 563 89 563 c 0,25,26
 178 563 178 563 197 487 c 1,27,-1
 201 453 l 1,28,29
 201 415 201 415 179 387 c 1,30,-1
 150 354 l 1,31,-1
 121 322 l 1,32,33
 110 305 110 305 109 272 c 1,34,35
 109 176 109 176 226 115 c 1,36,37
 305 72 305 72 404 72 c 0,38,39
 604 72 604 72 683 199 c 0,40,41
 738 289 738 289 746 492 c 1,42,43
 747 565 747 565 747.5 601 c 128,-1,44
 748 637 748 637 748 1100 c 0,45,46
 748 1255 748 1255 701 1294 c 0,47,48
 676 1315 676 1315 633 1323 c 1,49,-1
 615 1325 l 1,50,-1
 564 1331 l 1,51,-1
 564 1395 l 1,52,-1
 1137 1395 l 1,53,-1
 1137 1331 l 1,54,-1
 1086 1325 l 1,55,56
 994 1313 994 1313 971 1251 c 1,57,58
 953 1206 953 1206 953 1100 c 2,0,-1
EndSplineSet
EndChar

StartChar: K
Encoding: 75 75 46
Width: 1474
GlyphClass: 2
Flags: W
LayerCount: 2
Fore
SplineSet
1568 0 m 1,0,-1
 937 0 l 1,1,-1
 937 63 l 1,2,-1
 974 68 l 1,3,4
 1095 78 1095 78 1099 150 c 1,5,6
 1099 187 1099 187 1052 264 c 1,7,-1
 722 791 l 1,8,-1
 485 580 l 1,9,-1
 485 295 l 2,10,11
 485 131 485 131 542 92 c 0,12,13
 569 74 569 74 618 70 c 2,14,-1
 702 63 l 1,15,-1
 702 0 l 1,16,-1
 95 0 l 1,17,-1
 95 63 l 1,18,-1
 147 70 l 2,19,20
 239 82 239 82 261 143 c 1,21,-1
 263 143 l 1,22,23
 280 191 280 191 280 295 c 2,24,-1
 280 1100 l 2,25,26
 280 1255 280 1255 233 1294 c 0,27,28
 208 1315 208 1315 165 1323 c 0,29,30
 161 1323 161 1323 156.5 1323.5 c 128,-1,31
 152 1324 152 1324 147 1325 c 2,32,-1
 95 1331 l 1,33,-1
 95 1395 l 1,34,-1
 702 1395 l 1,35,-1
 702 1331 l 1,36,-1
 618 1325 l 1,37,38
 526 1317 526 1317 501 1243 c 1,39,40
 485 1199 485 1199 485 1100 c 2,41,-1
 485 707 l 1,42,-1
 845 1032 l 1,43,-1
 857 1042 l 1,44,-1
 904 1083 l 1,45,46
 1009 1176 1009 1176 1021 1212 c 1,47,-1
 1021 1214 l 1,48,-1
 1025 1245 l 1,49,50
 1025 1306 1025 1306 954 1323 c 0,51,52
 934 1327 934 1327 906 1329 c 2,53,-1
 886 1331 l 1,54,-1
 886 1395 l 1,55,-1
 1472 1395 l 1,56,-1
 1472 1331 l 1,57,-1
 1457 1327 l 1,58,59
 1326 1303 1326 1303 1132 1139 c 1,60,-1
 886 924 l 1,61,-1
 1275 289 l 1,62,63
 1303 247 1303 247 1326.5 215.5 c 128,-1,64
 1350 184 1350 184 1369 162 c 1,65,66
 1438 90 1438 90 1568 61 c 1,67,-1
 1568 0 l 1,0,-1
EndSplineSet
EndChar

StartChar: L
Encoding: 76 76 47
Width: 1228
GlyphClass: 2
Flags: W
LayerCount: 2
Fore
SplineSet
1320 438 m 1,0,-1
 1156 0 l 1,1,-1
 95 0 l 1,2,-1
 95 63 l 1,3,-1
 147 70 l 2,4,5
 239 82 239 82 261 143 c 1,6,-1
 263 143 l 1,7,8
 280 191 280 191 280 295 c 2,9,-1
 280 1100 l 2,10,11
 280 1255 280 1255 233 1294 c 0,12,13
 208 1315 208 1315 165 1323 c 0,14,15
 161 1323 161 1323 156.5 1323.5 c 128,-1,16
 152 1324 152 1324 147 1325 c 2,17,-1
 95 1331 l 1,18,-1
 95 1395 l 1,19,-1
 683 1395 l 1,20,-1
 683 1331 l 1,21,-1
 618 1325 l 2,22,23
 526 1317 526 1317 501 1247 c 0,24,25
 485 1205 485 1205 485 1100 c 2,26,-1
 485 252 l 2,27,28
 485 160 485 160 509 129 c 0,29,30
 549 78 549 78 661 78 c 0,31,32
 727 78 727 78 798 96 c 0,33,34
 925 129 925 129 1038 215 c 1,35,-1
 1044 219 l 1,36,37
 1092 256 1092 256 1124 291 c 1,38,39
 1151 318 1151 318 1185.5 361.5 c 128,-1,40
 1220 405 1220 405 1263 465 c 1,41,-1
 1320 438 l 1,0,-1
EndSplineSet
EndChar

StartChar: M
Encoding: 77 77 48
Width: 1884
GlyphClass: 2
Flags: W
LayerCount: 2
Fore
SplineSet
955 0 m 1,0,-1
 863 0 l 1,1,-1
 394 1274 l 1,2,-1
 394 295 l 2,3,4
 394 133 394 133 447 94 c 0,5,6
 473 76 473 76 527 70 c 2,7,-1
 598 63 l 1,8,-1
 598 0 l 1,9,-1
 80 0 l 1,10,-1
 80 63 l 1,11,-1
 144 70 l 1,12,13
 236 78 236 78 260 147 c 0,14,15
 264 157 264 157 266.5 167.5 c 128,-1,16
 269 178 269 178 271 190 c 1,17,-1
 277 295 l 1,18,-1
 277 1100 l 2,19,20
 277 1255 277 1255 230 1294 c 0,21,22
 205 1315 205 1315 162 1323 c 0,23,24
 158 1323 158 1323 153.5 1323.5 c 128,-1,25
 149 1324 149 1324 144 1325 c 2,26,-1
 93 1331 l 1,27,-1
 93 1395 l 1,28,-1
 570 1395 l 1,29,-1
 963 340 l 1,30,-1
 1391 1395 l 1,31,-1
 1858 1395 l 1,32,-1
 1858 1331 l 1,33,-1
 1807 1325 l 1,34,35
 1715 1313 1715 1313 1692 1251 c 1,36,37
 1674 1206 1674 1206 1674 1100 c 2,38,-1
 1674 295 l 2,39,40
 1674 139 1674 139 1721 100 c 0,41,42
 1746 80 1746 80 1790 72 c 1,43,-1
 1792 72 l 1,44,-1
 1807 70 l 1,45,-1
 1858 63 l 1,46,-1
 1858 0 l 1,47,-1
 1284 0 l 1,48,-1
 1284 63 l 1,49,-1
 1336 70 l 2,50,51
 1428 82 1428 82 1450 143 c 1,52,-1
 1452 143 l 1,53,54
 1469 191 1469 191 1469 295 c 2,55,-1
 1469 1249 l 1,56,-1
 955 0 l 1,0,-1
EndSplineSet
EndChar

StartChar: N
Encoding: 78 78 49
Width: 1515
GlyphClass: 2
Flags: W
LayerCount: 2
Fore
SplineSet
381 1241 m 1,0,-1
 381 295 l 2,1,2
 381 133 381 133 435 94 c 0,3,4
 461 76 461 76 514 70 c 2,5,-1
 586 63 l 1,6,-1
 586 0 l 1,7,-1
 80 0 l 1,8,-1
 80 63 l 1,9,-1
 131 70 l 2,10,11
 224 82 224 82 246 143 c 1,12,-1
 248 143 l 1,13,14
 265 191 265 191 265 295 c 2,15,-1
 265 1100 l 2,16,17
 265 1255 265 1255 217 1294 c 1,18,19
 193 1315 193 1315 150 1323 c 1,20,-1
 131 1325 l 1,21,-1
 80 1331 l 1,22,-1
 80 1395 l 1,23,-1
 537 1395 l 1,24,-1
 1205 291 l 1,25,-1
 1205 1100 l 2,26,27
 1205 1262 1205 1262 1151 1300 c 1,28,-1
 1149 1300 l 1,29,30
 1124 1319 1124 1319 1071 1325 c 1,31,-1
 1000 1331 l 1,32,-1
 1000 1395 l 1,33,-1
 1506 1395 l 1,34,-1
 1506 1331 l 1,35,-1
 1454 1325 l 1,36,37
 1363 1313 1363 1313 1340 1251 c 1,38,39
 1321 1209 1321 1209 1321 1100 c 2,40,-1
 1321 0 l 1,41,-1
 1141 0 l 1,42,-1
 381 1241 l 1,0,-1
EndSplineSet
EndChar

StartChar: O
Encoding: 79 79 50
Width: 1638
GlyphClass: 2
Flags: W
LayerCount: 2
Fore
SplineSet
873 1421 m 2,0,1
 1195 1421 1195 1421 1402 1206 c 0,2,3
 1598 1001 1598 1001 1598 692 c 0,4,5
 1598 426 1598 426 1447 242 c 0,6,7
 1287 47 1287 47 1025 -10 c 1,8,9
 983 -18 983 -18 943.5 -22.5 c 128,-1,10
 904 -27 904 -27 865 -27 c 0,11,12
 554 -27 554 -27 345 182 c 256,13,14
 136 391 136 391 136 702 c 0,15,16
 136 997 136 997 343 1206 c 1,17,18
 550 1413 550 1413 851 1421 c 1,19,-1
 873 1421 l 2,0,1
869 1323 m 0,20,21
 613 1323 613 1323 478 1106 c 1,22,23
 478 1104 478 1104 476 1102 c 0,24,25
 378 941 378 941 378 700 c 0,26,27
 378 344 378 344 572 176 c 1,28,29
 697 72 697 72 867 72 c 0,30,31
 1125 72 1125 72 1260 289 c 0,32,33
 1357 446 1357 446 1357 680 c 0,34,35
 1357 1054 1357 1054 1158 1223 c 1,36,37
 1156 1223 1156 1223 1154 1225 c 2,38,-1
 1152 1227 l 1,39,-1
 1150 1227 l 1,40,41
 1033 1323 1033 1323 869 1323 c 0,20,21
EndSplineSet
EndChar

StartChar: P
Encoding: 80 80 51
Width: 1269
GlyphClass: 2
Flags: W
LayerCount: 2
Fore
SplineSet
485 596 m 1,0,-1
 485 295 l 2,1,2
 485 131 485 131 542 92 c 0,3,4
 569 74 569 74 618 70 c 2,5,-1
 694 63 l 1,6,-1
 694 0 l 1,7,-1
 95 0 l 1,8,-1
 95 63 l 1,9,-1
 147 70 l 2,10,11
 239 82 239 82 261 143 c 1,12,-1
 263 143 l 1,13,14
 280 191 280 191 280 295 c 2,15,-1
 280 1100 l 2,16,17
 280 1255 280 1255 233 1294 c 0,18,19
 208 1315 208 1315 165 1323 c 0,20,21
 161 1323 161 1323 156.5 1323.5 c 128,-1,22
 152 1324 152 1324 147 1325 c 2,23,-1
 95 1331 l 1,24,-1
 95 1395 l 1,25,-1
 775 1395 l 2,26,27
 1093 1395 1093 1395 1222 1217 c 1,28,29
 1287 1125 1287 1125 1287 1004 c 0,30,31
 1287 834 1287 834 1167 717 c 1,32,-1
 1165 715 l 1,33,34
 1151 703 1151 703 1138 692.5 c 128,-1,35
 1125 682 1125 682 1111 674 c 0,36,37
 983 596 983 596 773 596 c 2,38,-1
 485 596 l 1,0,-1
485 684 m 1,39,-1
 741 684 l 2,40,41
 913 684 913 684 997 776 c 1,42,-1
 999 778 l 1,43,-1
 1001 780 l 1,44,45
 1079 865 1079 865 1079 997 c 0,46,47
 1079 1133 1079 1133 1001 1217 c 0,48,49
 917 1309 917 1309 718 1309 c 0,50,51
 546 1309 546 1309 509 1270 c 0,52,53
 485 1244 485 1244 485 1178 c 2,54,-1
 485 684 l 1,39,-1
EndSplineSet
EndChar

StartChar: Q
Encoding: 81 81 52
Width: 1679
GlyphClass: 2
Flags: W
LayerCount: 2
Fore
SplineSet
1428 186 m 1,0,1
 1494 104 1494 104 1508 41 c 1,2,-1
 1514 -14 l 1,3,4
 1514 -187 1514 -187 1312 -293 c 0,5,6
 1130 -389 1130 -389 865 -389 c 0,7,8
 572 -389 572 -389 384 -279 c 0,9,10
 259 -206 259 -206 257 -117 c 1,11,12
 257 -49 257 -49 331 -29 c 1,13,-1
 374 -23 l 1,14,15
 470 -23 470 -23 492 -102 c 1,16,-1
 499 -143 l 1,17,18
 500 -201 500 -201 538 -225 c 1,19,-1
 540 -225 l 1,20,-1
 544 -227 l 1,21,-1
 544 -229 l 1,22,-1
 578 -246 l 2,23,24
 655 -285 655 -285 800 -295 c 1,25,-1
 863 -297 l 1,26,27
 1121 -297 1121 -297 1254 -176 c 0,28,29
 1332 -106 1332 -106 1334 -14 c 1,30,-1
 1330 20 l 1,31,32
 1324 45 1324 45 1303 86 c 1,33,34
 1112 -27 1112 -27 880 -27 c 0,35,36
 572 -27 572 -27 357 176 c 0,37,38
 146 376 146 376 136 662 c 1,39,-1
 136 686 l 2,40,41
 136 993 136 993 347 1204 c 256,42,43
 558 1415 558 1415 888 1421 c 1,44,45
 1217 1421 1217 1421 1424 1204 c 0,46,47
 1621 998 1621 998 1621 690 c 0,48,49
 1621 424 1621 424 1465 229 c 1,50,-1
 1428 186 l 1,0,1
1299 285 m 1,51,-1
 1318 334 l 1,52,53
 1379 495 1379 495 1379 698 c 0,54,55
 1379 1034 1379 1034 1195 1206 c 1,56,57
 1067 1323 1067 1323 888 1323 c 0,58,59
 639 1323 639 1323 497 1112 c 0,60,61
 495 1110 495 1110 495 1108 c 1,62,63
 378 935 378 935 378 676 c 0,64,65
 378 458 378 458 470 297 c 1,66,-1
 474 291 l 1,67,-1
 474 289 l 1,68,69
 552 160 552 160 667 109 c 1,70,-1
 669 109 l 1,71,72
 692 98 692 98 717 89.5 c 128,-1,73
 742 81 742 81 771 74 c 1,74,75
 781 70 781 70 794 68 c 0,76,77
 802 66 802 66 785.5 76.5 c 128,-1,78
 769 87 769 87 728 176 c 1,79,-1
 748 113 l 1,80,81
 728 139 728 139 728 176 c 0,82,83
 728 274 728 274 859 319 c 1,84,85
 927 344 927 344 1021 344 c 1,86,-1
 1107 340 l 1,87,88
 1138 336 1138 336 1180 324.5 c 128,-1,89
 1222 313 1222 313 1277 293 c 2,90,-1
 1299 285 l 1,51,-1
1215 172 m 1,91,-1
 1199 180 l 2,92,93
 1123 219 1123 219 1033 225 c 1,94,-1
 1004 225 l 2,95,96
 873 225 873 225 837 164 c 1,97,98
 826 150 826 150 826 133 c 0,99,100
 826 81 826 81 914 68 c 1,101,-1
 955 66 l 1,102,-1
 1011 70 l 1,103,104
 1131 89 1131 89 1215 172 c 1,91,-1
EndSplineSet
EndChar

StartChar: R
Encoding: 82 82 53
Width: 1474
GlyphClass: 2
Flags: W
LayerCount: 2
Fore
SplineSet
1023 678 m 1,0,-1
 1363 197 l 1,1,-1
 1392 162 l 1,2,3
 1464 85 1464 85 1582 63 c 1,4,-1
 1582 0 l 1,5,-1
 1240 0 l 1,6,-1
 780 657 l 1,7,-1
 485 657 l 1,8,-1
 485 295 l 2,9,10
 485 133 485 133 538 94 c 0,11,12
 564 76 564 76 618 70 c 2,13,-1
 691 63 l 1,14,-1
 691 0 l 1,15,-1
 95 0 l 1,16,-1
 95 63 l 1,17,-1
 147 70 l 2,18,19
 239 82 239 82 261 143 c 1,20,-1
 263 143 l 1,21,22
 280 191 280 191 280 295 c 2,23,-1
 280 1100 l 2,24,25
 280 1255 280 1255 233 1294 c 0,26,27
 208 1315 208 1315 165 1323 c 0,28,29
 161 1323 161 1323 156.5 1323.5 c 128,-1,30
 152 1324 152 1324 147 1325 c 2,31,-1
 95 1331 l 1,32,-1
 95 1395 l 1,33,-1
 929 1395 l 2,34,35
 1240 1395 1240 1395 1353 1219 c 0,36,37
 1402 1143 1402 1143 1402 1042 c 0,38,39
 1402 877 1402 877 1275 774 c 1,40,-1
 1249 754 l 2,41,42
 1227 738 1227 738 1204 726.5 c 128,-1,43
 1181 715 1181 715 1156 707 c 256,44,45
 1131 699 1131 699 1098 691.5 c 128,-1,46
 1065 684 1065 684 1023 678 c 1,0,-1
485 745 m 1,47,-1
 829 745 l 2,48,49
 995 745 995 745 1074 809 c 1,50,51
 1179 892 1179 892 1181 1034 c 1,52,53
 1181 1311 1181 1311 788 1311 c 0,54,55
 614 1311 614 1311 538 1278 c 0,56,57
 487 1255 487 1255 485 1190 c 1,58,-1
 485 745 l 1,47,-1
EndSplineSet
EndChar

StartChar: S
Encoding: 83 83 54
Width: 1351
GlyphClass: 2
Flags: W
LayerCount: 2
Fore
SplineSet
1104 1395 m 1,0,-1
 1229 1024 l 1,1,-1
 1164 999 l 1,2,3
 952 1323 952 1323 660 1323 c 0,4,5
 489 1323 489 1323 404 1221 c 0,6,7
 359 1168 359 1168 359 1104 c 0,8,9
 359 983 359 983 506 922 c 0,10,11
 514 918 514 918 523.5 915 c 128,-1,12
 533 912 533 912 543 909 c 2,13,-1
 637 881 l 1,14,-1
 893 819 l 1,15,16
 1151 758 1151 758 1241 659 c 1,17,18
 1261 641 1261 641 1276 616 c 1,19,-1
 1278 612 l 1,20,21
 1321 548 1321 548 1327 440 c 1,22,-1
 1327 414 l 2,23,24
 1327 221 1327 221 1149 92 c 1,25,-1
 1145 88 l 1,26,27
 985 -27 985 -27 758 -27 c 0,28,29
 515 -27 515 -27 334 102 c 1,30,-1
 295 0 l 1,31,-1
 219 0 l 1,32,-1
 86 469 l 1,33,-1
 162 494 l 1,34,35
 346 139 346 139 643 82 c 0,36,37
 690 72 690 72 748 72 c 0,38,39
 944 72 944 72 1051 197 c 1,40,41
 1119 274 1119 274 1119 377 c 0,42,43
 1119 498 1119 498 1006 555 c 1,44,45
 978 571 978 571 938 584.5 c 128,-1,46
 898 598 898 598 846 610 c 1,47,-1
 572 680 l 2,48,49
 333 741 333 741 240 834 c 1,50,51
 168 909 168 909 152 1014 c 0,52,53
 151 1024 151 1024 150.5 1034 c 128,-1,54
 150 1044 150 1044 150 1055 c 2,55,-1
 150 1073 l 1,56,57
 160 1219 160 1219 291 1323 c 1,58,59
 419 1421 419 1421 619 1421 c 0,60,61
 840 1421 840 1421 1006 1321 c 1,62,-1
 1030 1395 l 1,63,-1
 1104 1395 l 1,0,-1
EndSplineSet
EndChar

StartChar: T
Encoding: 84 84 55
Width: 1269
GlyphClass: 2
Flags: W
LayerCount: 2
Fore
SplineSet
1191 1395 m 1,0,-1
 1305 1034 l 1,1,-1
 1234 1010 l 1,2,3
 1059 1316 1059 1316 783 1317 c 0,4,5
 715 1317 715 1317 705 1278 c 1,6,-1
 699 1227 l 1,7,-1
 699 295 l 2,8,9
 699 131 699 131 757 92 c 1,10,-1
 759 90 l 1,11,12
 784 74 784 74 832 70 c 2,13,-1
 912 63 l 1,14,-1
 912 0 l 1,15,-1
 281 0 l 1,16,-1
 281 63 l 1,17,-1
 361 70 l 2,18,19
 454 78 454 78 478 152 c 1,20,21
 494 196 494 196 494 295 c 2,22,-1
 494 1235 l 2,23,24
 494 1302 494 1302 443 1313 c 1,25,-1
 404 1317 l 1,26,27
 150 1317 150 1317 -13 1065 c 1,28,-1
 -46 1010 l 1,29,-1
 -114 1034 l 1,30,-1
 3 1395 l 1,31,-1
 1191 1395 l 1,0,-1
EndSplineSet
EndChar

StartChar: U
Encoding: 85 85 56
Width: 1597
GlyphClass: 2
Flags: W
LayerCount: 2
Fore
SplineSet
1386 1100 m 2,0,-1
 1386 418 l 2,1,2
 1386 230 1386 230 1300 129 c 1,3,4
 1173 -13 1173 -13 884 -27 c 1,5,-1
 829 -27 l 2,6,7
 584 -27 584 -27 442 66 c 1,8,9
 302 154 302 154 274 285 c 1,10,11
 263 330 263 330 262 385 c 1,12,-1
 262 414 l 1,13,-1
 262 1100 l 2,14,15
 262 1255 262 1255 214 1294 c 1,16,17
 190 1315 190 1315 147 1323 c 1,18,-1
 128 1325 l 1,19,-1
 77 1331 l 1,20,-1
 77 1395 l 1,21,-1
 675 1395 l 1,22,-1
 675 1331 l 1,23,-1
 599 1325 l 2,24,25
 507 1317 507 1317 483 1243 c 1,26,27
 466 1194 466 1194 466 1100 c 2,28,-1
 466 553 l 2,29,30
 466 318 466 318 509 233 c 0,31,32
 510 229 510 229 515 223 c 1,33,34
 597 72 597 72 860 72 c 0,35,36
 1095 72 1095 72 1193 186 c 0,37,38
 1254 258 1254 258 1265 408 c 1,39,40
 1267 483 1267 483 1268 520 c 128,-1,41
 1269 557 1269 557 1269 1100 c 0,42,43
 1269 1262 1269 1262 1216 1300 c 1,44,-1
 1214 1300 l 1,45,46
 1189 1319 1189 1319 1136 1325 c 1,47,-1
 1068 1331 l 1,48,-1
 1068 1395 l 1,49,-1
 1570 1395 l 1,50,-1
 1570 1331 l 1,51,-1
 1519 1325 l 1,52,53
 1427 1313 1427 1313 1404 1251 c 1,54,55
 1386 1206 1386 1206 1386 1100 c 2,0,-1
EndSplineSet
EndChar

StartChar: V
Encoding: 86 86 57
Width: 1433
GlyphClass: 2
Flags: W
LayerCount: 2
Fore
SplineSet
723 227 m 1,0,-1
 1075 1120 l 1,1,-1
 1081 1137 l 2,2,3
 1095 1179 1095 1179 1095 1206 c 0,4,5
 1095 1312 1095 1312 940 1329 c 1,6,-1
 907 1331 l 1,7,-1
 907 1395 l 1,8,-1
 1454 1395 l 1,9,-1
 1454 1331 l 1,10,11
 1332 1319 1332 1319 1286 1274 c 0,12,13
 1276 1264 1276 1264 1267.5 1253 c 128,-1,14
 1259 1242 1259 1242 1251 1229 c 1,15,-1
 1249 1227 l 1,16,-1
 1249 1225 l 1,17,18
 1235 1204 1235 1204 1218 1169.5 c 128,-1,19
 1201 1135 1201 1135 1181 1087 c 2,20,-1
 733 0 l 1,21,-1
 610 0 l 1,22,-1
 149 1118 l 2,23,24
 121 1187 121 1187 98 1227 c 0,25,26
 54 1300 54 1300 -25 1319 c 0,27,28
 -35 1321 -35 1321 -46.5 1323 c 128,-1,29
 -58 1325 -58 1325 -72 1327 c 2,30,-1
 -92 1331 l 1,31,-1
 -92 1395 l 1,32,-1
 520 1395 l 1,33,-1
 520 1331 l 1,34,35
 480 1330 480 1330 449.5 1326 c 128,-1,36
 419 1322 419 1322 399 1315 c 2,37,-1
 405 1317 l 1,38,-1
 403 1317 l 1,39,-1
 399 1315 l 1,40,41
 350 1300 350 1300 344 1241 c 1,42,-1
 352 1190 l 1,43,-1
 362 1157 l 1,44,-1
 723 227 l 1,0,-1
EndSplineSet
EndChar

StartChar: W
Encoding: 87 87 58
Width: 1966
GlyphClass: 2
Flags: W
LayerCount: 2
Fore
SplineSet
1353 0 m 1,0,-1
 1233 0 l 1,1,-1
 932 895 l 1,2,-1
 633 0 l 1,3,-1
 512 0 l 1,4,-1
 127 1106 l 1,5,-1
 82 1219 l 1,6,7
 48 1284 48 1284 -8 1307 c 0,8,9
 -16 1310 -16 1310 -26.5 1313.5 c 128,-1,10
 -37 1317 -37 1317 -49 1321 c 1,11,-1
 -92 1331 l 1,12,-1
 -92 1395 l 1,13,-1
 465 1395 l 1,14,-1
 465 1331 l 1,15,16
 340 1323 340 1323 321 1274 c 1,17,-1
 317 1241 l 1,18,19
 317 1207 317 1207 329 1176 c 1,20,-1
 628 274 l 1,21,-1
 872 1055 l 1,22,-1
 868 1067 l 1,23,24
 819 1235 819 1235 743 1288 c 1,25,-1
 741 1288 l 1,26,27
 700 1315 700 1315 633 1331 c 1,28,-1
 633 1395 l 1,29,-1
 1194 1395 l 1,30,-1
 1194 1331 l 1,31,-1
 1138 1323 l 2,32,33
 1135 1323 1135 1323 1131 1322.5 c 128,-1,34
 1127 1322 1127 1322 1122 1321 c 2,35,-1
 1108 1317 l 2,36,37
 1046 1300 1046 1300 1044 1237 c 0,38,39
 1044 1211 1044 1211 1052 1190 c 1,40,-1
 1351 279 l 1,41,-1
 1626 1130 l 1,42,-1
 1634 1167 l 1,43,-1
 1638 1206 l 1,44,45
 1638 1277 1638 1277 1571 1311 c 1,46,-1
 1564 1313 l 1,47,-1
 1562 1315 l 1,48,49
 1558 1315 1558 1315 1556 1317 c 1,50,-1
 1546 1319 l 1,51,-1
 1468 1331 l 1,52,-1
 1468 1395 l 1,53,-1
 1984 1395 l 1,54,-1
 1984 1331 l 1,55,56
 1876 1325 1876 1325 1829 1268 c 0,57,58
 1819 1257 1819 1257 1810.5 1242 c 128,-1,59
 1802 1227 1802 1227 1794 1210 c 1,60,-1
 1792 1208 l 1,61,-1
 1751 1106 l 1,62,-1
 1353 0 l 1,0,-1
EndSplineSet
EndChar

StartChar: X
Encoding: 88 88 59
Width: 1474
GlyphClass: 2
Flags: W
LayerCount: 2
Fore
SplineSet
827 760 m 1,0,-1
 1220 248 l 2,1,2
 1246 214 1246 214 1268.5 188 c 128,-1,3
 1291 162 1291 162 1310 145 c 0,4,5
 1383 80 1383 80 1515 63 c 1,6,-1
 1515 0 l 1,7,-1
 843 0 l 1,8,-1
 843 63 l 1,9,-1
 862 66 l 1,10,-1
 874 68 l 1,11,12
 1008 80 1008 80 1009 147 c 1,13,-1
 1009 156 l 1,14,15
 1005 193 1005 193 960 256 c 1,16,-1
 674 639 l 1,17,-1
 360 250 l 1,18,-1
 340 211 l 1,19,-1
 331 172 l 1,20,21
 331 73 331 73 473 63 c 1,22,-1
 485 63 l 1,23,-1
 485 0 l 1,24,-1
 -92 0 l 1,25,-1
 -92 63 l 1,26,-1
 -68 72 l 1,27,28
 59 115 59 115 137 180 c 0,29,30
 198 231 198 231 288 340 c 1,31,-1
 612 723 l 1,32,-1
 260 1171 l 1,33,34
 223 1222 223 1222 186 1255 c 1,35,36
 119 1319 119 1319 2 1331 c 1,37,-1
 2 1395 l 1,38,-1
 637 1395 l 1,39,-1
 637 1331 l 1,40,41
 492 1325 492 1325 481 1266 c 1,42,-1
 479 1253 l 1,43,44
 479 1225 479 1225 504 1188 c 1,45,-1
 504 1186 l 1,46,47
 508 1181 508 1181 516 1171 c 2,48,-1
 770 840 l 1,49,-1
 1009 1147 l 1,50,-1
 1028 1176 l 2,51,52
 1038 1192 1038 1192 1044 1208 c 1,53,-1
 1050 1243 l 1,54,55
 1050 1329 1050 1329 907 1331 c 1,56,-1
 907 1395 l 1,57,-1
 1458 1395 l 1,58,-1
 1458 1331 l 1,59,60
 1335 1311 1335 1311 1269 1266 c 0,61,62
 1209 1224 1209 1224 1095 1090 c 1,63,-1
 827 760 l 1,0,-1
EndSplineSet
EndChar

StartChar: Y
Encoding: 89 89 60
Width: 1310
GlyphClass: 2
Flags: W
LayerCount: 2
Fore
SplineSet
696 586 m 1,0,-1
 696 295 l 2,1,2
 696 131 696 131 753 92 c 1,3,-1
 755 90 l 1,4,5
 782 74 782 74 829 70 c 2,6,-1
 913 63 l 1,7,-1
 913 0 l 1,8,-1
 274 0 l 1,9,-1
 274 63 l 1,10,-1
 358 70 l 2,11,12
 450 78 450 78 475 152 c 1,13,14
 491 196 491 196 491 295 c 2,15,-1
 491 582 l 1,16,-1
 149 1126 l 1,17,18
 94 1219 94 1219 57 1255 c 1,19,20
 6 1309 6 1309 -92 1331 c 1,21,-1
 -92 1395 l 1,22,-1
 491 1395 l 1,23,-1
 491 1331 l 1,24,25
 350 1313 350 1313 334 1270 c 1,26,-1
 331 1268 l 1,27,-1
 329 1247 l 1,28,29
 329 1223 329 1223 360 1174 c 2,30,-1
 649 707 l 1,31,-1
 940 1153 l 1,32,33
 946 1160 946 1160 952 1171 c 0,34,35
 962 1193 962 1193 968 1210 c 1,36,-1
 973 1241 l 1,37,38
 973 1292 973 1292 901 1313 c 1,39,-1
 899 1315 l 1,40,-1
 823 1331 l 1,41,-1
 823 1395 l 1,42,-1
 1333 1395 l 1,43,-1
 1333 1331 l 1,44,45
 1207 1307 1207 1307 1034 1104 c 1,46,-1
 1136 1239 l 1,47,48
 1095 1198 1095 1198 1034 1104 c 2,49,-1
 696 586 l 1,0,-1
EndSplineSet
EndChar

StartChar: Z
Encoding: 90 90 61
Width: 1310
GlyphClass: 2
Flags: W
LayerCount: 2
Fore
SplineSet
1353 420 m 1,0,-1
 1206 0 l 1,1,-1
 69 0 l 1,2,-1
 30 63 l 1,3,-1
 995 1284 l 1,4,-1
 868 1305 l 1,5,-1
 749 1309 l 1,6,7
 487 1309 487 1309 323 1178 c 1,8,9
 267 1131 267 1131 213 1067 c 0,10,11
 210 1064 210 1064 207 1060.5 c 128,-1,12
 204 1057 204 1057 200 1053 c 0,13,14
 193 1045 193 1045 186 1035.5 c 128,-1,15
 179 1026 179 1026 172 1016 c 2,16,-1
 160 999 l 1,17,-1
 92 1024 l 1,18,-1
 241 1395 l 1,19,-1
 1255 1395 l 1,20,-1
 1278 1319 l 1,21,-1
 319 104 l 1,22,-1
 487 90 l 2,23,24
 507 89 507 89 531 88.5 c 128,-1,25
 555 88 555 88 581 88 c 0,26,27
 965 88 965 88 1140 242 c 1,28,29
 1228 318 1228 318 1290 446 c 1,30,-1
 1353 420 l 1,0,-1
EndSplineSet
EndChar

StartChar: bracketleft
Encoding: 91 91 62
Width: 614
GlyphClass: 2
Flags: W
LayerCount: 2
Fore
SplineSet
284 -289 m 1,0,-1
 284 1468 l 1,1,-1
 624 1468 l 1,2,-1
 624 1382 l 1,3,-1
 592 1382 l 2,4,5
 499 1382 499 1382 481 1352 c 1,6,7
 469 1329 469 1329 469 1260 c 2,8,-1
 469 -53 l 2,9,10
 469 -166 469 -166 502 -188 c 0,11,12
 526 -203 526 -203 590 -203 c 2,13,-1
 624 -203 l 1,14,-1
 624 -289 l 1,15,-1
 284 -289 l 1,0,-1
EndSplineSet
EndChar

StartChar: backslash
Encoding: 92 92 63
Width: 1228
GlyphClass: 2
Flags: W
LayerCount: 2
Fore
SplineSet
328 1468 m 1,0,-1
 1090 0 l 1,1,-1
 913 0 l 1,2,-1
 152 1468 l 1,3,-1
 328 1468 l 1,0,-1
EndSplineSet
EndChar

StartChar: bracketright
Encoding: 93 93 64
Width: 614
GlyphClass: 2
Flags: W
LayerCount: 2
Fore
SplineSet
466 1468 m 1,0,-1
 466 -289 l 1,1,-1
 126 -289 l 1,2,-1
 126 -203 l 1,3,-1
 159 -203 l 2,4,5
 251 -203 251 -203 269 -172 c 0,6,7
 282 -150 282 -150 282 -80 c 2,8,-1
 282 1233 l 2,9,10
 282 1344 282 1344 251 1366 c 1,11,12
 226 1382 226 1382 161 1382 c 2,13,-1
 126 1382 l 1,14,-1
 126 1468 l 1,15,-1
 466 1468 l 1,0,-1
EndSplineSet
EndChar

StartChar: asciicircum
Encoding: 94 94 65
Width: 1228
GlyphClass: 2
Flags: W
LayerCount: 2
Fore
SplineSet
1135 651 m 1,0,-1
 958 651 l 1,1,-1
 621 1288 l 1,2,-1
 283 651 l 1,3,-1
 106 651 l 1,4,-1
 535 1479 l 1,5,-1
 707 1479 l 1,6,-1
 1135 651 l 1,0,-1
EndSplineSet
EndChar

StartChar: underscore
Encoding: 95 95 66
Width: 1024
GlyphClass: 2
Flags: W
LayerCount: 2
Fore
SplineSet
0 -195 m 1,0,-1
 1024 -195 l 1,1,-1
 1024 -317 l 1,2,-1
 0 -317 l 1,3,-1
 0 -195 l 1,0,-1
EndSplineSet
EndChar

StartChar: grave
Encoding: 96 96 67
Width: 450
GlyphClass: 2
Flags: W
LayerCount: 2
Fore
SplineSet
343 1421 m 1,0,-1
 365 1376 l 1,1,-1
 349 1364 l 1,2,3
 247 1292 247 1292 238 1188 c 1,4,5
 267 1209 267 1209 281 1214 c 1,6,7
 286 1214 286 1214 304 1217 c 1,8,9
 380 1217 380 1217 404 1145 c 1,10,-1
 406 1143 l 1,11,-1
 406 1141 l 1,12,-1
 413 1098 l 1,13,14
 413 1025 413 1025 345 987 c 1,15,16
 314 973 314 973 286 973 c 0,17,18
 206 973 206 973 163 1057 c 0,19,20
 142 1096 142 1096 142 1143 c 0,21,22
 142 1299 142 1299 290 1393 c 0,23,24
 302 1401 302 1401 315.5 1408 c 128,-1,25
 329 1415 329 1415 343 1421 c 1,0,-1
EndSplineSet
EndChar

StartChar: a
Encoding: 97 97 68
Width: 1187
GlyphClass: 2
Flags: W
LayerCount: 2
Fore
SplineSet
798 582 m 1,0,-1
 798 745 l 2,1,2
 798 870 798 870 671 913 c 0,3,4
 618 930 618 930 560 930 c 0,5,6
 425 930 425 930 370 866 c 0,7,8
 353 846 353 846 353 823 c 2,9,-1
 355 766 l 1,10,11
 355 701 355 701 296 672 c 0,12,13
 276 662 276 662 251 662 c 0,14,15
 188 662 188 662 161 717 c 1,16,-1
 153 752 l 1,17,18
 153 778 153 778 165 807 c 0,19,20
 204 901 204 901 319 952 c 0,21,22
 354 968 354 968 392.5 979.5 c 128,-1,23
 431 991 431 991 474 999 c 0,24,25
 539 1012 539 1012 599 1012 c 1,26,-1
 681 1006 l 1,27,28
 738 998 738 998 786 981.5 c 128,-1,29
 834 965 834 965 876 942 c 0,30,31
 976 887 976 887 988 768 c 1,32,-1
 992 709 l 1,33,-1
 992 274 l 2,34,35
 992 173 992 173 1009 133 c 1,36,-1
 1011 131 l 1,37,38
 1036 74 1036 74 1107 74 c 0,39,40
 1132 74 1132 74 1154 82 c 1,41,42
 1173 92 1173 92 1199 115 c 1,43,-1
 1238 61 l 1,44,45
 1156 -18 1156 -18 1027 -18 c 0,46,47
 865 -18 865 -18 808 115 c 1,48,-1
 798 139 l 1,49,50
 694 53 694 53 609 16 c 1,51,52
 528 -18 528 -18 423 -18 c 0,53,54
 243 -18 243 -18 155 96 c 0,55,56
 108 158 108 158 108 236 c 0,57,58
 108 444 108 444 452 530 c 1,59,-1
 509 545 l 2,60,61
 520 547 520 547 531.5 549 c 128,-1,62
 543 551 543 551 554 553 c 0,63,64
 573 555 573 555 595 559 c 1,65,-1
 798 582 l 1,0,-1
798 231 m 1,66,-1
 798 510 l 1,67,68
 380 473 380 473 325 305 c 0,69,70
 317 279 317 279 317 256 c 0,71,72
 317 153 317 153 405 104 c 1,73,74
 445 80 445 80 495 80 c 0,75,76
 550 80 550 80 601 98 c 0,77,78
 689 129 689 129 798 231 c 1,66,-1
EndSplineSet
EndChar

StartChar: b
Encoding: 98 98 69
Width: 1269
GlyphClass: 2
Flags: W
LayerCount: 2
Fore
SplineSet
367 1468 m 1,0,-1
 367 864 l 1,1,2
 390 884 390 884 411.5 902 c 128,-1,3
 433 920 433 920 455 934 c 0,4,5
 569 1012 569 1012 723 1012 c 0,6,7
 954 1012 954 1012 1088 836 c 1,8,9
 1190 699 1190 699 1190 508 c 0,10,11
 1190 242 1190 242 1014 92 c 1,12,13
 880 -18 880 -18 694 -18 c 0,14,15
 604 -18 604 -18 524 8 c 1,16,17
 443 40 443 40 336 119 c 1,18,-1
 287 0 l 1,19,-1
 172 0 l 1,20,-1
 172 1102 l 2,21,22
 172 1264 172 1264 131 1300 c 1,23,-1
 129 1303 l 1,24,25
 104 1325 104 1325 39 1331 c 2,26,-1
 -6 1335 l 1,27,-1
 -6 1399 l 1,28,-1
 43 1405 l 2,29,30
 125 1415 125 1415 182 1432 c 1,31,-1
 285 1468 l 1,32,-1
 367 1468 l 1,0,-1
367 754 m 1,33,-1
 367 195 l 1,34,35
 482 80 482 80 647 80 c 0,36,37
 842 80 842 80 930 258 c 1,38,39
 981 358 981 358 981 502 c 0,40,41
 981 769 981 769 825 870 c 1,42,43
 761 913 761 913 670 913 c 0,44,45
 563 913 563 913 481 858 c 0,46,47
 455 841 455 841 427 815 c 128,-1,48
 399 789 399 789 367 754 c 1,33,-1
EndSplineSet
EndChar

StartChar: c
Encoding: 99 99 70
Width: 1064
GlyphClass: 2
Flags: W
LayerCount: 2
Fore
SplineSet
999 258 m 1,0,-1
 1058 221 l 1,1,2
 915 -3 915 -3 661 -16 c 1,3,-1
 618 -18 l 1,4,5
 355 -18 355 -18 214 170 c 0,6,7
 114 303 114 303 114 496 c 0,8,9
 114 719 114 719 247 864 c 2,10,-1
 259 877 l 1,11,12
 388 1012 388 1012 613 1012 c 0,13,14
 794 1012 794 1012 915 924 c 1,15,16
 1015 847 1015 847 1029 756 c 1,17,-1
 1031 731 l 1,18,19
 1031 655 1031 655 970 627 c 0,20,21
 949 618 949 618 927 618 c 0,22,23
 857 618 857 618 831 680 c 1,24,-1
 822 721 l 1,25,-1
 822 723 l 1,26,-1
 824 795 l 1,27,28
 824 861 824 861 734 905 c 0,29,30
 685 930 685 930 622 930 c 0,31,32
 452 930 452 930 382 782 c 0,33,34
 323 659 323 659 323 487 c 0,35,36
 323 242 323 242 474 127 c 0,37,38
 559 63 559 63 675 63 c 0,39,40
 781 63 781 63 863 121 c 1,41,42
 927 168 927 168 999 258 c 1,0,-1
EndSplineSet
EndChar

StartChar: d
Encoding: 100 100 71
Width: 1269
GlyphClass: 2
Flags: W
LayerCount: 2
Fore
SplineSet
904 903 m 1,0,-1
 904 1102 l 2,1,2
 904 1264 904 1264 863 1300 c 1,3,4
 838 1325 838 1325 771 1331 c 2,5,-1
 728 1335 l 1,6,-1
 728 1399 l 1,7,-1
 777 1405 l 2,8,9
 819 1410 819 1410 854 1417 c 128,-1,10
 889 1424 889 1424 917 1434 c 2,11,-1
 1017 1468 l 1,12,-1
 1099 1468 l 1,13,-1
 1099 236 l 2,14,15
 1099 120 1099 120 1162 86 c 0,16,17
 1175 80 1175 80 1190 75 c 128,-1,18
 1205 70 1205 70 1224 66 c 2,19,-1
 1248 61 l 1,20,-1
 1248 0 l 1,21,-1
 904 0 l 1,22,-1
 904 137 l 1,23,24
 860 90 860 90 829 68 c 1,25,-1
 775 37 l 1,26,-1
 755 27 l 1,27,-1
 673 -2 l 1,28,29
 612 -18 612 -18 550 -18 c 0,30,31
 378 -18 378 -18 259 98 c 1,32,33
 241 117 241 117 226 137 c 0,34,35
 137 254 137 254 118 422 c 1,36,-1
 114 494 l 1,37,38
 114 742 114 742 271 893 c 0,39,40
 396 1012 396 1012 564 1012 c 0,41,42
 708 1012 708 1012 829 948 c 1,43,-1
 904 903 l 1,0,-1
904 242 m 1,44,-1
 904 797 l 1,45,46
 805 879 805 879 738 901 c 1,47,48
 690 920 690 920 626 920 c 0,49,50
 448 920 448 920 376 760 c 0,51,52
 332 662 332 662 325 541 c 0,53,54
 324 530 324 530 323.5 519.5 c 128,-1,55
 323 509 323 509 323 498 c 2,56,-1
 325 444 l 1,57,58
 330 383 330 383 343 330 c 128,-1,59
 356 277 356 277 378 229 c 0,60,61
 437 98 437 98 577 82 c 0,62,63
 585 81 585 81 593 80.5 c 128,-1,64
 601 80 601 80 609 80 c 0,65,66
 753 80 753 80 867 201 c 1,67,-1
 904 242 l 1,44,-1
EndSplineSet
EndChar

StartChar: e
Encoding: 101 101 72
Width: 1064
GlyphClass: 2
Flags: W
LayerCount: 2
Fore
SplineSet
976 270 m 1,0,-1
 1044 238 l 1,1,2
 908 9 908 9 683 -14 c 0,3,4
 667 -16 667 -16 651.5 -17 c 128,-1,5
 636 -18 636 -18 620 -18 c 0,6,7
 386 -18 386 -18 249 137 c 0,8,9
 120 282 120 282 114 506 c 1,10,11
 114 758 114 758 286 903 c 0,12,13
 416 1012 416 1012 597 1012 c 0,14,15
 818 1012 818 1012 947 862 c 1,16,-1
 964 844 l 1,17,18
 1042 745 1042 745 1044 592 c 1,19,-1
 333 592 l 1,20,21
 333 384 333 384 374 285 c 1,22,23
 459 74 459 74 681 74 c 0,24,25
 867 74 867 74 976 270 c 1,0,-1
339 674 m 1,26,-1
 831 674 l 1,27,-1
 831 680 l 1,28,-1
 826 729 l 1,29,-1
 818 766 l 1,30,-1
 814 778 l 1,31,32
 755 930 755 930 589 930 c 0,33,34
 464 930 464 930 398 840 c 1,35,-1
 388 825 l 1,36,37
 374 802 374 802 364 780 c 1,38,39
 359 766 359 766 354 747 c 128,-1,40
 349 728 349 728 345 705 c 1,41,-1
 343 702 l 1,42,-1
 343 700 l 1,43,-1
 343 696 l 1,44,-1
 339 674 l 1,26,-1
EndSplineSet
EndChar

StartChar: f
Encoding: 102 102 73
Width: 655
GlyphClass: 2
Flags: W
LayerCount: 2
Fore
SplineSet
239 926 m 1,0,-1
 67 926 l 1,1,-1
 67 993 l 1,2,-1
 239 993 l 1,3,-1
 239 1090 l 2,4,5
 239 1263 239 1263 313 1346 c 0,6,7
 329 1364 329 1364 352 1382 c 0,8,9
 456 1468 456 1468 604 1495 c 1,10,-1
 692 1503 l 1,11,12
 810 1503 810 1503 854 1434 c 1,13,-1
 856 1432 l 1,14,15
 868 1411 868 1411 868 1386 c 0,16,17
 868 1332 868 1332 813 1307 c 0,18,19
 793 1298 793 1298 774 1298 c 0,20,21
 722 1298 722 1298 679 1356 c 1,22,23
 632 1415 632 1415 583 1415 c 1,24,-1
 552 1411 l 1,25,26
 514 1401 514 1401 481 1368 c 1,27,28
 434 1318 434 1318 434 1210 c 2,29,-1
 434 993 l 1,30,-1
 636 993 l 1,31,-1
 636 926 l 1,32,-1
 434 926 l 1,33,-1
 434 236 l 2,34,35
 434 103 434 103 520 74 c 1,36,-1
 561 66 l 1,37,-1
 612 61 l 1,38,-1
 612 0 l 1,39,-1
 61 0 l 1,40,-1
 61 61 l 1,41,-1
 112 66 l 1,42,43
 215 78 215 78 233 172 c 1,44,-1
 239 236 l 1,45,-1
 239 926 l 1,0,-1
EndSplineSet
EndChar

StartChar: g
Encoding: 103 103 74
Width: 1105
GlyphClass: 2
Flags: W
LayerCount: 2
Fore
SplineSet
418 143 m 1,0,-1
 810 90 l 1,1,2
 1010 61 1010 61 1070 -14 c 0,3,4
 1119 -75 1119 -75 1119 -162 c 0,5,6
 1119 -340 1119 -340 916 -432 c 1,7,8
 772 -494 772 -494 572 -494 c 0,9,10
 350 -494 350 -494 195 -424 c 1,11,12
 85 -377 85 -377 58 -285 c 1,13,-1
 52 -244 l 1,14,15
 52 -121 52 -121 201 -47 c 1,16,17
 232 -35 232 -35 267 -20 c 1,18,19
 118 31 118 31 117 152 c 1,20,21
 117 287 117 287 306 352 c 0,22,23
 308 353 308 353 311 354 c 128,-1,24
 314 355 314 355 318 356 c 1,25,26
 154 468 154 468 152 647 c 1,27,28
 152 816 152 816 302 926 c 0,29,30
 418 1012 418 1012 574 1012 c 1,31,-1
 629 1008 l 1,32,-1
 631 1008 l 1,33,34
 642 1007 642 1007 655.5 1004.5 c 128,-1,35
 669 1002 669 1002 683 997 c 2,36,-1
 767 971 l 1,37,38
 802 1037 802 1037 824 1063 c 1,39,-1
 838 1077 l 1,40,-1
 840 1079 l 1,41,-1
 844 1083 l 1,42,43
 894 1136 894 1136 975 1149 c 1,44,45
 992 1153 992 1153 1016 1153 c 0,46,47
 1101 1153 1101 1153 1123 1092 c 1,48,-1
 1127 1065 l 1,49,50
 1127 1006 1127 1006 1072 991 c 1,51,-1
 1049 987 l 1,52,-1
 1029 989 l 1,53,54
 1010 993 1010 993 988 1008 c 1,55,-1
 951 1026 l 1,56,-1
 949 1026 l 1,57,-1
 941 1026 l 2,58,59
 928 1026 928 1026 920 1022 c 1,60,61
 879 1010 879 1010 832 938 c 1,62,63
 988 834 988 834 1002 672 c 1,64,-1
 1002 647 l 1,65,-1
 994 580 l 1,66,67
 971 484 971 484 906 416 c 1,68,69
 787 303 787 303 572 303 c 1,70,-1
 496 307 l 1,71,72
 455 313 455 313 379 336 c 1,73,74
 316 302 316 302 293 260 c 1,75,-1
 285 227 l 1,76,77
 285 162 285 162 414 143 c 1,78,-1
 418 143 l 1,0,-1
584 946 m 0,79,80
 423 946 423 946 375 780 c 1,81,82
 367 747 367 747 363 707 c 1,83,-1
 361 659 l 1,84,85
 361 369 361 369 578 369 c 0,86,87
 686 369 686 369 742 440 c 1,88,-1
 746 444 l 1,89,90
 793 512 793 512 793 657 c 0,91,92
 793 946 793 946 584 946 c 0,79,80
765 -90 m 1,93,-1
 345 -39 l 1,94,95
 177 -100 177 -100 175 -223 c 1,96,97
 175 -328 175 -328 332 -383 c 1,98,99
 435 -418 435 -418 572 -418 c 0,100,101
 793 -418 793 -418 891 -352 c 1,102,103
 973 -301 973 -301 975 -227 c 1,104,105
 975 -139 975 -139 859 -106 c 1,106,-1
 765 -90 l 1,93,-1
EndSplineSet
EndChar

StartChar: h
Encoding: 104 104 75
Width: 1351
GlyphClass: 2
Flags: W
LayerCount: 2
Fore
SplineSet
434 1468 m 1,0,-1
 434 842 l 1,1,2
 471 874 471 874 507.5 899.5 c 128,-1,3
 544 925 544 925 579 944 c 0,4,5
 704 1012 704 1012 837 1012 c 0,6,7
 978 1012 978 1012 1067 952 c 0,8,9
 1144 899 1144 899 1157 788 c 1,10,-1
 1157 784 l 1,11,12
 1158 752 1158 752 1158.5 735.5 c 128,-1,13
 1159 719 1159 719 1159 236 c 0,14,15
 1159 103 1159 103 1245 74 c 1,16,-1
 1286 66 l 1,17,-1
 1337 61 l 1,18,-1
 1337 0 l 1,19,-1
 786 0 l 1,20,-1
 786 61 l 1,21,-1
 837 66 l 1,22,23
 940 78 940 78 958 172 c 1,24,-1
 964 236 l 1,25,-1
 964 707 l 2,26,27
 964 913 964 913 788 913 c 0,28,29
 719 913 719 913 647 887 c 0,30,31
 540 848 540 848 434 745 c 1,32,-1
 434 236 l 2,33,34
 434 103 434 103 520 74 c 1,35,-1
 561 66 l 1,36,-1
 612 61 l 1,37,-1
 612 0 l 1,38,-1
 61 0 l 1,39,-1
 61 61 l 1,40,-1
 112 66 l 1,41,42
 215 78 215 78 233 172 c 1,43,-1
 239 236 l 1,44,-1
 239 1102 l 2,45,46
 239 1264 239 1264 198 1300 c 1,47,-1
 196 1303 l 1,48,49
 171 1325 171 1325 106 1331 c 2,50,-1
 61 1335 l 1,51,-1
 61 1399 l 1,52,-1
 110 1405 l 2,53,54
 192 1415 192 1415 249 1432 c 1,55,-1
 352 1468 l 1,56,-1
 434 1468 l 1,0,-1
EndSplineSet
EndChar

StartChar: i
Encoding: 105 105 76
Width: 614
GlyphClass: 2
Flags: W
LayerCount: 2
Fore
SplineSet
434 993 m 1,0,-1
 434 236 l 2,1,2
 434 106 434 106 512 76 c 1,3,-1
 514 76 l 1,4,5
 524 72 524 72 535.5 69.5 c 128,-1,6
 547 67 547 67 561 66 c 2,7,-1
 610 61 l 1,8,-1
 610 0 l 1,9,-1
 61 0 l 1,10,-1
 61 61 l 1,11,-1
 112 66 l 1,12,13
 215 78 215 78 233 172 c 1,14,-1
 239 236 l 1,15,-1
 239 717 l 2,16,17
 239 834 239 834 188 864 c 0,18,19
 163 879 163 879 120 885 c 0,20,21
 115 886 115 886 111 886.5 c 128,-1,22
 107 887 107 887 104 887 c 2,23,-1
 63 891 l 1,24,-1
 63 952 l 1,25,-1
 184 965 l 2,26,27
 218 969 218 969 262.5 976 c 128,-1,28
 307 983 307 983 364 993 c 1,29,-1
 434 993 l 1,0,-1
339 1339 m 0,30,31
 415 1339 415 1339 448 1270 c 1,32,33
 462 1244 462 1244 462 1214 c 0,34,35
 462 1139 462 1139 395 1106 c 0,36,37
 365 1092 365 1092 337 1092 c 0,38,39
 262 1092 262 1092 229 1159 c 0,40,41
 215 1189 215 1189 215 1217 c 0,42,43
 215 1292 215 1292 282 1325 c 0,44,45
 312 1339 312 1339 339 1339 c 0,30,31
EndSplineSet
EndChar

StartChar: j
Encoding: 106 106 77
Width: 614
GlyphClass: 2
Flags: W
LayerCount: 2
Fore
SplineSet
302 993 m 1,0,-1
 302 -96 l 2,1,2
 302 -260 302 -260 234 -340 c 0,3,4
 218 -359 218 -359 193 -381 c 1,5,-1
 191 -383 l 2,6,7
 189 -385 189 -385 186 -387.5 c 128,-1,8
 183 -390 183 -390 179 -393 c 0,9,10
 54 -494 54 -494 -118 -494 c 0,11,12
 -278 -494 -278 -494 -325 -414 c 0,13,14
 -337 -393 -337 -393 -337 -369 c 0,15,16
 -337 -316 -337 -316 -280 -293 c 0,17,18
 -264 -287 -264 -287 -243 -287 c 0,19,20
 -223 -287 -223 -287 -202 -295 c 1,21,22
 -181 -308 -181 -308 -153 -340 c 1,23,24
 -124 -375 -124 -375 -102 -387 c 1,25,26
 -79 -401 -79 -401 -40 -401 c 0,27,28
 20 -401 20 -401 58 -362 c 2,29,-1
 60 -360 l 1,30,-1
 62 -358 l 1,31,32
 81 -334 81 -334 89 -307 c 0,33,34
 107 -249 107 -249 107 10 c 2,35,-1
 107 717 l 2,36,37
 107 838 107 838 50 868 c 0,38,39
 21 883 21 883 -28 887 c 2,40,-1
 -77 891 l 1,41,-1
 -77 952 l 1,42,-1
 56 965 l 2,43,44
 93 969 93 969 137 976 c 128,-1,45
 181 983 181 983 232 993 c 1,46,-1
 302 993 l 1,0,-1
201 1339 m 0,47,48
 277 1339 277 1339 310 1270 c 1,49,50
 324 1244 324 1244 324 1214 c 0,51,52
 324 1139 324 1139 257 1106 c 0,53,54
 227 1092 227 1092 199 1092 c 0,55,56
 124 1092 124 1092 91 1159 c 1,57,58
 76 1186 76 1186 76 1217 c 0,59,60
 76 1292 76 1292 144 1325 c 0,61,62
 174 1339 174 1339 201 1339 c 0,47,48
EndSplineSet
EndChar

StartChar: k
Encoding: 107 107 78
Width: 1269
GlyphClass: 2
Flags: W
LayerCount: 2
Fore
SplineSet
753 672 m 1,0,-1
 1058 236 l 1,1,2
 1169 90 1169 90 1306 66 c 1,3,-1
 1306 0 l 1,4,-1
 753 0 l 1,5,-1
 753 61 l 1,6,-1
 808 66 l 2,7,8
 866 72 866 72 868 113 c 1,9,10
 868 162 868 162 815 236 c 1,11,-1
 600 547 l 1,12,-1
 434 406 l 1,13,-1
 434 236 l 2,14,15
 434 98 434 98 526 72 c 0,16,17
 530 71 530 71 534.5 70 c 128,-1,18
 539 69 539 69 544 68 c 2,19,-1
 559 66 l 1,20,-1
 612 61 l 1,21,-1
 612 0 l 1,22,-1
 61 0 l 1,23,-1
 61 61 l 1,24,-1
 112 66 l 1,25,26
 215 78 215 78 233 172 c 1,27,-1
 239 236 l 1,28,-1
 239 1102 l 2,29,30
 239 1264 239 1264 198 1300 c 1,31,-1
 196 1303 l 1,32,33
 171 1325 171 1325 106 1331 c 2,34,-1
 61 1335 l 1,35,-1
 61 1399 l 1,36,-1
 110 1405 l 2,37,38
 192 1415 192 1415 249 1432 c 1,39,-1
 352 1468 l 1,40,-1
 434 1468 l 1,41,-1
 434 510 l 1,42,-1
 753 788 l 2,43,44
 798 827 798 827 806 850 c 1,45,-1
 808 868 l 1,46,47
 808 926 808 926 694 934 c 1,48,-1
 694 993 l 1,49,-1
 1239 993 l 1,50,-1
 1239 932 l 1,51,52
 1056 905 1056 905 946 831 c 1,53,54
 924 818 924 818 901.5 801 c 128,-1,55
 879 784 879 784 856 764 c 2,56,-1
 845 754 l 1,57,-1
 753 672 l 1,0,-1
EndSplineSet
EndChar

StartChar: l
Encoding: 108 108 79
Width: 614
GlyphClass: 2
Flags: W
LayerCount: 2
Fore
SplineSet
432 1468 m 1,0,-1
 432 236 l 2,1,2
 432 106 432 106 509 76 c 1,3,-1
 512 76 l 1,4,5
 522 72 522 72 533.5 69.5 c 128,-1,6
 545 67 545 67 559 66 c 2,7,-1
 606 61 l 1,8,-1
 606 0 l 1,9,-1
 61 0 l 1,10,-1
 61 61 l 1,11,-1
 110 66 l 2,12,13
 210 76 210 76 231 166 c 1,14,-1
 237 236 l 1,15,-1
 237 1102 l 2,16,17
 237 1264 237 1264 196 1300 c 1,18,-1
 194 1303 l 1,19,20
 169 1325 169 1325 104 1331 c 2,21,-1
 61 1335 l 1,22,-1
 61 1399 l 1,23,-1
 110 1405 l 2,24,25
 152 1410 152 1410 186.5 1417 c 128,-1,26
 221 1424 221 1424 249 1434 c 2,27,-1
 350 1468 l 1,28,-1
 432 1468 l 1,0,-1
EndSplineSet
EndChar

StartChar: m
Encoding: 109 109 80
Width: 1925
GlyphClass: 2
Flags: W
LayerCount: 2
Fore
SplineSet
1082 764 m 1,0,-1
 1082 236 l 2,1,2
 1082 109 1082 109 1158 78 c 1,3,-1
 1209 66 l 1,4,-1
 1252 61 l 1,5,-1
 1252 0 l 1,6,-1
 717 0 l 1,7,-1
 717 61 l 1,8,-1
 760 66 l 1,9,10
 861 79 861 79 881 162 c 0,11,12
 887 190 887 190 887 236 c 2,13,-1
 887 688 l 2,14,15
 887 883 887 883 756 903 c 1,16,-1
 719 905 l 1,17,-1
 650 897 l 1,18,19
 555 874 555 874 425 764 c 1,20,-1
 425 236 l 2,21,22
 425 150 425 150 453 113 c 1,23,-1
 470 96 l 2,24,25
 480 86 480 86 488 82 c 0,26,27
 498 76 498 76 513 74 c 1,28,-1
 515 72 l 1,29,-1
 517 72 l 1,30,-1
 552 66 l 1,31,-1
 588 61 l 1,32,-1
 588 0 l 1,33,-1
 52 0 l 1,34,-1
 52 61 l 1,35,-1
 103 66 l 1,36,37
 205 78 205 78 224 172 c 1,38,-1
 230 236 l 1,39,-1
 230 717 l 2,40,41
 230 834 230 834 179 864 c 0,42,43
 154 879 154 879 111 885 c 0,44,45
 106 886 106 886 102 886.5 c 128,-1,46
 98 887 98 887 95 887 c 2,47,-1
 52 891 l 1,48,-1
 52 952 l 1,49,-1
 95 956 l 1,50,-1
 207 969 l 1,51,-1
 355 993 l 1,52,-1
 425 993 l 1,53,-1
 425 856 l 1,54,55
 467 893 467 893 505 920.5 c 128,-1,56
 543 948 543 948 578 965 c 0,57,58
 677 1012 677 1012 797 1012 c 0,59,60
 967 1012 967 1012 1041 907 c 1,61,-1
 1041 905 l 1,62,-1
 1078 842 l 1,63,64
 1204 947 1204 947 1467 1012 c 1,65,-1
 1303 985 l 1,66,67
 1375 1010 1375 1010 1467 1012 c 1,68,69
 1659 1012 1659 1012 1719 858 c 0,70,71
 1731 825 1731 825 1737 786 c 1,72,-1
 1739 737 l 1,73,-1
 1739 236 l 2,74,75
 1739 103 1739 103 1825 74 c 1,76,-1
 1866 66 l 1,77,-1
 1918 61 l 1,78,-1
 1918 0 l 1,79,-1
 1381 0 l 1,80,-1
 1381 61 l 1,81,-1
 1418 66 l 1,82,83
 1487 78 1487 78 1522 123 c 2,84,-1
 1516 115 l 1,85,-1
 1518 117 l 1,86,-1
 1522 123 l 1,87,88
 1545 155 1545 155 1545 236 c 2,89,-1
 1545 682 l 2,90,91
 1545 905 1545 905 1383 905 c 0,92,93
 1350 905 1350 905 1322 899 c 1,94,95
 1246 886 1246 886 1156 821 c 1,96,-1
 1082 764 l 1,0,-1
EndSplineSet
EndChar

StartChar: n
Encoding: 110 110 81
Width: 1351
GlyphClass: 2
Flags: W
LayerCount: 2
Fore
SplineSet
440 993 m 1,0,-1
 440 831 l 1,1,2
 528 909 528 909 862 1012 c 1,3,-1
 614 954 l 1,4,5
 726 1012 726 1012 862 1012 c 0,6,7
 1081 1012 1081 1012 1148 858 c 0,8,9
 1171 804 1171 804 1171 741 c 2,10,-1
 1171 236 l 2,11,12
 1171 103 1171 103 1257 74 c 1,13,-1
 1298 66 l 1,14,-1
 1349 61 l 1,15,-1
 1349 0 l 1,16,-1
 798 0 l 1,17,-1
 798 61 l 1,18,-1
 849 66 l 1,19,20
 952 78 952 78 970 172 c 1,21,-1
 976 236 l 1,22,-1
 976 709 l 2,23,24
 976 901 976 901 802 913 c 1,25,26
 630 913 630 913 440 741 c 1,27,-1
 440 236 l 2,28,29
 440 103 440 103 526 74 c 1,30,-1
 567 66 l 1,31,-1
 618 61 l 1,32,-1
 618 0 l 1,33,-1
 67 0 l 1,34,-1
 67 61 l 1,35,-1
 118 66 l 1,36,37
 221 78 221 78 239 172 c 1,38,-1
 245 236 l 1,39,-1
 245 717 l 2,40,41
 245 838 245 838 188 868 c 0,42,43
 159 883 159 883 110 887 c 2,44,-1
 61 891 l 1,45,-1
 61 952 l 1,46,-1
 194 965 l 2,47,48
 231 969 231 969 275 976 c 128,-1,49
 319 983 319 983 370 993 c 1,50,-1
 440 993 l 1,0,-1
EndSplineSet
EndChar

StartChar: o
Encoding: 111 111 82
Width: 1146
GlyphClass: 2
Flags: W
LayerCount: 2
Fore
SplineSet
609 1012 m 0,0,1
 857 1012 857 1012 992 852 c 1,2,3
 1109 709 1109 709 1115 508 c 1,4,-1
 1115 489 l 2,5,6
 1115 221 1115 221 931 80 c 1,7,8
 800 -18 800 -18 618 -18 c 0,9,10
 342 -18 342 -18 206 178 c 0,11,12
 114 309 114 309 114 494 c 1,13,-1
 116 545 l 1,14,15
 134 737 134 737 247 868 c 1,16,-1
 257 879 l 1,17,18
 386 1012 386 1012 609 1012 c 0,0,1
611 930 m 0,19,20
 448 930 448 930 370 754 c 0,21,22
 323 646 323 646 323 498 c 0,23,24
 323 172 323 172 503 88 c 1,25,26
 552 63 552 63 620 63 c 0,27,28
 805 63 805 63 876 264 c 1,29,30
 906 354 906 354 906 479 c 0,31,32
 906 790 906 790 747 891 c 0,33,34
 687 930 687 930 611 930 c 0,19,20
EndSplineSet
EndChar

StartChar: p
Encoding: 112 112 83
Width: 1269
GlyphClass: 2
Flags: W
LayerCount: 2
Fore
SplineSet
434 993 m 1,0,-1
 434 858 l 1,1,2
 569 1012 569 1012 768 1012 c 0,3,4
 948 1012 948 1012 1071 889 c 1,5,-1
 1101 854 l 1,6,7
 1198 726 1198 726 1212 551 c 0,8,9
 1213 540 1213 540 1213.5 527.5 c 128,-1,10
 1214 515 1214 515 1214 502 c 0,11,12
 1214 253 1214 253 1054 102 c 1,13,14
 929 -18 929 -18 757 -18 c 0,15,16
 571 -18 571 -18 434 86 c 1,17,-1
 434 -231 l 2,18,19
 434 -373 434 -373 530 -397 c 0,20,21
 537 -398 537 -398 545 -399 c 2,22,-1
 561 -401 l 1,23,-1
 612 -406 l 1,24,-1
 612 -467 l 1,25,-1
 61 -467 l 1,26,-1
 61 -406 l 1,27,-1
 112 -401 l 2,28,29
 221 -391 221 -391 235 -283 c 1,30,31
 237 -257 237 -257 238 -244 c 128,-1,32
 239 -231 239 -231 239 717 c 0,33,34
 239 834 239 834 188 864 c 0,35,36
 163 879 163 879 120 885 c 0,37,38
 115 886 115 886 111 886.5 c 128,-1,39
 107 887 107 887 104 887 c 2,40,-1
 61 891 l 1,41,-1
 61 952 l 1,42,-1
 104 956 l 1,43,-1
 217 969 l 1,44,-1
 364 993 l 1,45,-1
 434 993 l 1,0,-1
434 756 m 1,46,-1
 434 186 l 1,47,48
 552 74 552 74 706 74 c 0,49,50
 858 74 858 74 944 223 c 0,51,52
 1005 329 1005 329 1005 477 c 0,53,54
 1005 753 1005 753 862 866 c 1,55,56
 791 920 791 920 704 920 c 0,57,58
 582 920 582 920 485 817 c 1,59,-1
 434 756 l 1,46,-1
EndSplineSet
EndChar

StartChar: q
Encoding: 113 113 84
Width: 1187
GlyphClass: 2
Flags: W
LayerCount: 2
Fore
SplineSet
1066 993 m 1,0,-1
 1066 -231 l 2,1,2
 1066 -373 1066 -373 1162 -397 c 1,3,-1
 1164 -397 l 1,4,-1
 1166 -397 l 1,5,-1
 1168 -397 l 1,6,7
 1175 -398 1175 -398 1181 -399 c 2,8,-1
 1193 -401 l 1,9,-1
 1244 -406 l 1,10,-1
 1244 -467 l 1,11,-1
 693 -467 l 1,12,-1
 693 -406 l 1,13,-1
 745 -401 l 2,14,15
 853 -391 853 -391 867 -283 c 1,16,17
 869 -257 869 -257 870.5 -244 c 128,-1,18
 872 -231 872 -231 872 104 c 1,19,20
 753 18 753 18 663 -6 c 0,21,22
 616 -18 616 -18 560 -18 c 1,23,-1
 495 -12 l 1,24,25
 365 10 365 10 267 98 c 0,26,27
 114 236 114 236 114 481 c 0,28,29
 114 694 114 694 228 838 c 0,30,31
 336 973 336 973 503 1004 c 0,32,33
 513 1006 513 1006 515 1006 c 0,34,35
 546 1012 546 1012 577 1012 c 0,36,37
 751 1012 751 1012 906 877 c 1,38,-1
 960 993 l 1,39,-1
 1066 993 l 1,0,-1
872 203 m 1,40,-1
 872 795 l 1,41,-1
 831 840 l 1,42,43
 748 920 748 920 636 920 c 0,44,45
 508 920 508 920 419 819 c 1,46,-1
 386 772 l 1,47,48
 323 662 323 662 323 485 c 0,49,50
 323 252 323 252 452 137 c 0,51,52
 522 74 522 74 616 74 c 1,53,-1
 656 78 l 1,54,55
 751 94 751 94 872 203 c 1,40,-1
EndSplineSet
EndChar

StartChar: r
Encoding: 114 114 85
Width: 901
GlyphClass: 2
Flags: W
LayerCount: 2
Fore
SplineSet
440 993 m 1,0,-1
 440 829 l 1,1,-1
 483 866 l 2,2,3
 529 906 529 906 559 929.5 c 128,-1,4
 589 953 589 953 604 961 c 2,5,-1
 622 971 l 1,6,-1
 641 979 l 1,7,8
 710 1012 710 1012 786 1012 c 0,9,10
 894 1012 894 1012 927 938 c 1,11,-1
 935 899 l 1,12,-1
 935 897 l 2,13,14
 935 819 935 819 864 793 c 1,15,16
 843 784 843 784 819 784 c 0,17,18
 785 784 785 784 749 801 c 0,19,20
 740 805 740 805 731 809.5 c 128,-1,21
 722 814 722 814 714 821 c 1,22,-1
 669 846 l 1,23,-1
 628 852 l 1,24,-1
 595 848 l 1,25,26
 526 835 526 835 440 737 c 1,27,-1
 440 236 l 2,28,29
 440 103 440 103 526 74 c 1,30,-1
 567 66 l 1,31,-1
 618 61 l 1,32,-1
 618 0 l 1,33,-1
 67 0 l 1,34,-1
 67 61 l 1,35,-1
 118 66 l 1,36,37
 221 78 221 78 239 172 c 1,38,-1
 245 236 l 1,39,-1
 245 717 l 2,40,41
 245 838 245 838 188 868 c 0,42,43
 159 883 159 883 110 887 c 2,44,-1
 61 891 l 1,45,-1
 61 952 l 1,46,-1
 194 965 l 2,47,48
 231 969 231 969 275 976 c 128,-1,49
 319 983 319 983 370 993 c 1,50,-1
 440 993 l 1,0,-1
EndSplineSet
EndChar

StartChar: s
Encoding: 115 115 86
Width: 1064
GlyphClass: 2
Flags: W
LayerCount: 2
Fore
SplineSet
899 985 m 1,0,-1
 965 670 l 1,1,-1
 899 670 l 1,2,3
 821 856 821 856 653 911 c 1,4,5
 600 930 600 930 541 930 c 0,6,7
 408 930 408 930 354 846 c 0,8,9
 334 814 334 814 334 776 c 0,10,11
 334 712 334 712 397 678 c 1,12,-1
 422 668 l 1,13,-1
 494 647 l 1,14,-1
 778 578 l 1,15,16
 1010 523 1010 523 1034 360 c 0,17,18
 1036 350 1036 350 1037 338.5 c 128,-1,19
 1038 327 1038 327 1038 313 c 0,20,21
 1038 147 1038 147 883 51 c 0,22,23
 770 -18 770 -18 612 -18 c 0,24,25
 482 -18 482 -18 391 27 c 0,26,27
 337 53 337 53 283 94 c 1,28,-1
 260 8 l 1,29,-1
 193 8 l 1,30,-1
 123 373 l 1,31,-1
 193 373 l 1,32,-1
 219 305 l 1,33,34
 230 280 230 280 243.5 258.5 c 128,-1,35
 257 237 257 237 272 217 c 1,36,-1
 279 211 l 1,37,38
 382 84 382 84 563 66 c 0,39,40
 585 63 585 63 606 63 c 0,41,42
 759 63 759 63 836 156 c 1,43,44
 870 199 870 199 870 252 c 0,45,46
 870 348 870 348 721 387 c 1,47,-1
 459 453 l 2,48,49
 211 516 211 516 166 637 c 0,50,51
 154 670 154 670 154 713 c 0,52,53
 154 858 154 858 295 948 c 0,54,55
 395 1012 395 1012 528 1012 c 0,56,57
 693 1012 693 1012 821 911 c 1,58,-1
 842 985 l 1,59,-1
 899 985 l 1,0,-1
EndSplineSet
EndChar

StartChar: t
Encoding: 116 116 87
Width: 778
GlyphClass: 2
Flags: W
LayerCount: 2
Fore
SplineSet
720 993 m 1,0,-1
 720 926 l 1,1,-1
 428 926 l 1,2,-1
 428 334 l 2,3,4
 428 73 428 73 581 63 c 1,5,6
 617 63 617 63 649 78 c 1,7,8
 696 98 696 98 759 170 c 1,9,-1
 815 125 l 1,10,11
 705 -18 705 -18 526 -18 c 2,12,-1
 505 -18 l 1,13,14
 408 -12 408 -12 327 35 c 1,15,16
 233 92 233 92 233 240 c 2,17,-1
 233 926 l 1,18,-1
 61 926 l 1,19,-1
 61 993 l 1,20,21
 286 1001 286 1001 333 1204 c 0,22,23
 350 1277 350 1277 350 1366 c 1,24,-1
 428 1366 l 1,25,-1
 428 993 l 1,26,-1
 720 993 l 1,0,-1
EndSplineSet
EndChar

StartChar: u
Encoding: 117 117 88
Width: 1392
GlyphClass: 2
Flags: W
LayerCount: 2
Fore
SplineSet
985 0 m 1,0,-1
 985 172 l 1,1,2
 823 40 823 40 702 2 c 1,3,4
 628 -18 628 -18 550 -18 c 0,5,6
 393 -18 393 -18 311 76 c 1,7,8
 245 149 245 149 245 289 c 2,9,-1
 245 717 l 2,10,11
 245 838 245 838 188 868 c 0,12,13
 159 883 159 883 110 887 c 2,14,-1
 61 891 l 1,15,-1
 61 952 l 1,16,-1
 137 958 l 2,17,18
 219 965 219 965 272 973 c 0,19,20
 292 976 292 976 316.5 981 c 128,-1,21
 341 986 341 986 370 993 c 1,22,-1
 440 993 l 1,23,-1
 440 305 l 2,24,25
 440 106 440 106 581 84 c 1,26,-1
 626 80 l 1,27,28
 779 80 779 80 985 260 c 1,29,-1
 985 717 l 2,30,31
 985 838 985 838 927 868 c 1,32,-1
 925 868 l 1,33,34
 899 883 899 883 849 887 c 2,35,-1
 800 891 l 1,36,-1
 800 952 l 1,37,-1
 913 961 l 1,38,-1
 1013 973 l 1,39,40
 1049 979 1049 979 1099 991 c 1,41,-1
 1101 991 l 1,42,-1
 1110 993 l 1,43,-1
 1179 993 l 1,44,-1
 1179 236 l 2,45,46
 1179 103 1179 103 1265 74 c 1,47,-1
 1306 66 l 1,48,-1
 1357 61 l 1,49,-1
 1357 0 l 1,50,-1
 985 0 l 1,0,-1
EndSplineSet
EndChar

StartChar: v
Encoding: 118 118 89
Width: 1064
GlyphClass: 2
Flags: W
LayerCount: 2
Fore
SplineSet
545 180 m 1,0,-1
 758 741 l 1,1,-1
 767 762 l 1,2,3
 772 779 772 779 777 803 c 1,4,-1
 779 827 l 1,5,6
 779 896 779 896 709 918 c 1,7,-1
 648 932 l 1,8,-1
 648 993 l 1,9,-1
 1070 993 l 1,10,-1
 1070 928 l 1,11,12
 948 899 948 899 875 762 c 1,13,-1
 857 725 l 1,14,-1
 543 0 l 1,15,-1
 422 0 l 1,16,-1
 97 788 l 1,17,-1
 66 848 l 1,18,19
 32 907 32 907 -38 924 c 1,20,-1
 -71 930 l 1,21,-1
 -71 993 l 1,22,-1
 429 993 l 1,23,-1
 429 932 l 1,24,-1
 394 928 l 1,25,26
 299 920 299 920 298 858 c 1,27,-1
 308 809 l 1,28,-1
 314 788 l 1,29,-1
 545 180 l 1,0,-1
EndSplineSet
EndChar

StartChar: w
Encoding: 119 119 90
Width: 1597
GlyphClass: 2
Flags: W
LayerCount: 2
Fore
SplineSet
1128 184 m 1,0,-1
 1312 725 l 1,1,-1
 1322 766 l 1,2,3
 1323 775 1323 775 1324 787 c 128,-1,4
 1325 799 1325 799 1327 813 c 1,5,6
 1327 909 1327 909 1206 928 c 0,7,8
 1201 929 1201 929 1195 930 c 2,9,-1
 1183 932 l 1,10,-1
 1175 932 l 1,11,-1
 1175 993 l 1,12,-1
 1628 993 l 1,13,-1
 1628 932 l 1,14,15
 1522 905 1522 905 1472 834 c 1,16,17
 1466 823 1466 823 1459.5 812 c 128,-1,18
 1453 801 1453 801 1445 788 c 1,19,-1
 1445 786 l 1,20,-1
 1443 784 l 1,21,-1
 1443 782 l 1,22,23
 1437 771 1437 771 1430.5 756.5 c 128,-1,24
 1424 742 1424 742 1417 725 c 2,25,-1
 1130 0 l 1,26,-1
 987 0 l 1,27,-1
 782 588 l 1,28,-1
 540 0 l 1,29,-1
 407 0 l 1,30,-1
 102 793 l 1,31,32
 57 905 57 905 -27 926 c 1,33,34
 -42 931 -42 931 -58 932 c 1,35,-1
 -58 993 l 1,36,-1
 425 993 l 1,37,-1
 425 932 l 1,38,39
 311 924 311 924 309 862 c 1,40,-1
 313 827 l 1,41,-1
 321 793 l 1,42,-1
 538 182 l 1,43,-1
 737 707 l 1,44,-1
 702 793 l 1,45,-1
 683 834 l 2,46,47
 653 897 653 897 593 918 c 1,48,-1
 548 930 l 1,49,-1
 546 930 l 1,50,-1
 540 932 l 1,51,-1
 540 993 l 1,52,-1
 1028 993 l 1,53,-1
 1028 932 l 1,54,55
 921 918 921 918 907 870 c 1,56,-1
 907 868 l 1,57,-1
 905 848 l 1,58,-1
 909 811 l 1,59,-1
 915 793 l 1,60,-1
 1128 184 l 1,0,-1
EndSplineSet
EndChar

StartChar: x
Encoding: 120 120 91
Width: 1146
GlyphClass: 2
Flags: W
LayerCount: 2
Fore
SplineSet
646 571 m 1,0,-1
 926 213 l 1,1,2
 981 145 981 145 1020 115 c 0,3,4
 1043 98 1043 98 1069 86 c 0,5,6
 1086 79 1086 79 1110 72.5 c 128,-1,7
 1134 66 1134 66 1164 61 c 1,8,-1
 1164 0 l 1,9,-1
 596 0 l 1,10,-1
 596 61 l 1,11,12
 705 77 705 77 717 111 c 1,13,-1
 719 129 l 1,14,-1
 713 160 l 1,15,16
 711 164 711 164 708.5 168 c 128,-1,17
 706 172 706 172 703 176 c 2,18,-1
 701 180 l 1,19,-1
 699 184 l 1,20,-1
 514 442 l 1,21,-1
 310 213 l 1,22,-1
 289 188 l 1,23,24
 273 163 273 163 273 139 c 0,25,26
 273 88 273 88 361 72 c 1,27,28
 374 67 374 67 394 66 c 1,29,-1
 410 61 l 1,30,-1
 410 0 l 1,31,-1
 -49 0 l 1,32,-1
 -49 61 l 1,33,34
 29 75 29 75 84 109 c 0,35,36
 128 137 128 137 195 213 c 2,37,-1
 455 506 l 1,38,-1
 215 807 l 1,39,40
 172 859 172 859 144 881 c 0,41,42
 95 920 95 920 7 932 c 1,43,-1
 7 993 l 1,44,-1
 514 993 l 1,45,-1
 514 932 l 1,46,-1
 494 930 l 2,47,48
 411 922 411 922 410 881 c 0,49,50
 410 863 410 863 435 829 c 1,51,-1
 596 633 l 1,52,-1
 770 829 l 1,53,-1
 781 846 l 1,54,-1
 783 850 l 1,55,-1
 785 854 l 1,56,-1
 787 856 l 1,57,-1
 787 858 l 1,58,-1
 791 879 l 1,59,60
 791 911 791 911 758 922 c 1,61,-1
 713 930 l 1,62,-1
 711 930 l 1,63,-1
 699 932 l 1,64,-1
 699 993 l 1,65,-1
 1131 993 l 1,66,-1
 1131 932 l 1,67,68
 1012 909 1012 909 940 860 c 1,69,70
 890 828 890 828 824 762 c 1,71,-1
 646 571 l 1,0,-1
EndSplineSet
EndChar

StartChar: y
Encoding: 121 121 92
Width: 1105
GlyphClass: 2
Flags: W
LayerCount: 2
Fore
SplineSet
560 193 m 1,0,-1
 750 676 l 1,1,2
 789 772 789 772 789 831 c 0,3,4
 789 888 789 888 730 911 c 1,5,-1
 650 932 l 1,6,-1
 650 993 l 1,7,-1
 1100 993 l 1,8,-1
 1100 930 l 1,9,10
 984 901 984 901 930 819 c 1,11,-1
 891 743 l 1,12,-1
 537 -88 l 1,13,14
 484 -219 484 -219 441 -289 c 1,15,16
 410 -342 410 -342 363 -389 c 1,17,18
 262 -494 262 -494 140 -494 c 0,19,20
 15 -494 15 -494 -34 -416 c 1,21,22
 -53 -388 -53 -388 -53 -354 c 0,23,24
 -53 -293 -53 -293 9 -264 c 0,25,26
 29 -254 29 -254 56 -254 c 0,27,28
 77 -254 77 -254 99 -262 c 1,29,30
 123 -273 123 -273 169 -322 c 1,31,32
 207 -360 207 -360 236 -360 c 0,33,34
 266 -360 266 -360 304 -330 c 0,35,36
 365 -280 365 -280 408 -174 c 1,37,-1
 459 -55 l 1,38,-1
 93 801 l 1,39,-1
 74 840 l 2,40,41
 46 897 46 897 1 913 c 0,42,43
 -28 924 -28 924 -71 930 c 1,44,-1
 -71 993 l 1,45,-1
 406 993 l 1,46,-1
 406 932 l 1,47,48
 299 918 299 918 295 856 c 1,49,-1
 298 836 l 1,50,-1
 304 815 l 1,51,-1
 560 193 l 1,0,-1
EndSplineSet
EndChar

StartChar: z
Encoding: 122 122 93
Width: 983
GlyphClass: 2
Flags: W
LayerCount: 2
Fore
SplineSet
982 324 m 1,0,-1
 871 0 l 1,1,-1
 54 0 l 1,2,-1
 21 59 l 1,3,-1
 693 915 l 1,4,-1
 597 930 l 2,5,6
 587 931 587 931 577 931.5 c 128,-1,7
 567 932 567 932 556 932 c 2,8,-1
 527 932 l 1,9,10
 363 924 363 924 259 852 c 1,11,12
 206 817 206 817 171 764 c 1,13,14
 158 747 158 747 145 723 c 128,-1,15
 132 699 132 699 118 670 c 1,16,-1
 54 692 l 1,17,-1
 169 993 l 1,18,-1
 935 993 l 1,19,-1
 957 942 l 1,20,-1
 271 90 l 1,21,-1
 365 68 l 2,22,23
 382 64 382 64 407.5 62.5 c 128,-1,24
 433 61 433 61 466 61 c 0,25,26
 677 61 677 61 804 188 c 0,27,28
 843 227 843 227 884 283 c 0,29,30
 894 297 894 297 904 312 c 128,-1,31
 914 327 914 327 925 344 c 1,32,-1
 982 324 l 1,0,-1
EndSplineSet
EndChar

StartChar: braceleft
Encoding: 123 123 94
Width: 573
GlyphClass: 2
Flags: W
LayerCount: 2
Fore
SplineSet
544 -182 m 1,0,-1
 544 -248 l 1,1,-1
 530 -248 l 1,2,-1
 485 -250 l 1,3,4
 285 -250 285 -250 263 -49 c 1,5,6
 262 -21 262 -21 261.5 -7.5 c 128,-1,7
 261 6 261 6 261 457 c 0,8,9
 261 561 261 561 147 590 c 1,10,-1
 108 598 l 1,11,-1
 108 664 l 1,12,13
 245 684 245 684 259 776 c 1,14,-1
 261 805 l 1,15,-1
 261 1255 l 2,16,17
 261 1463 261 1463 407 1501 c 1,18,19
 441 1511 441 1511 493 1511 c 1,20,-1
 544 1509 l 1,21,-1
 544 1444 l 1,22,23
 407 1419 407 1419 390 1329 c 0,24,25
 389 1324 389 1324 388.5 1316.5 c 128,-1,26
 388 1309 388 1309 388 1298 c 2,27,-1
 388 846 l 2,28,29
 388 723 388 723 333 672 c 1,30,-1
 331 670 l 1,31,32
 321 662 321 662 309 653 c 128,-1,33
 297 644 297 644 282 635 c 1,34,-1
 274 631 l 1,35,-1
 282 627 l 1,36,37
 364 580 364 580 380 504 c 1,38,-1
 382 502 l 1,39,40
 388 469 388 469 388 416 c 2,41,-1
 388 -37 l 2,42,43
 388 -139 388 -139 501 -172 c 1,44,-1
 544 -182 l 1,0,-1
EndSplineSet
EndChar

StartChar: bar
Encoding: 124 124 95
Width: 1228
GlyphClass: 2
Flags: W
LayerCount: 2
Fore
SplineSet
700 1479 m 1,0,-1
 700 0 l 1,1,-1
 541 0 l 1,2,-1
 541 1479 l 1,3,-1
 700 1479 l 1,0,-1
EndSplineSet
EndChar

StartChar: braceright
Encoding: 125 125 96
Width: 573
GlyphClass: 2
Flags: W
LayerCount: 2
Fore
SplineSet
108 1444 m 1,0,-1
 108 1509 l 1,1,-1
 122 1509 l 1,2,-1
 167 1511 l 1,3,4
 376 1511 376 1511 388 1292 c 1,5,-1
 390 1290 l 1,6,-1
 390 1288 l 1,7,-1
 390 1255 l 1,8,-1
 390 805 l 2,9,10
 390 700 390 700 505 672 c 1,11,-1
 507 672 l 1,12,-1
 544 664 l 1,13,-1
 544 598 l 1,14,15
 407 578 407 578 392 485 c 1,16,-1
 390 457 l 1,17,-1
 390 6 l 2,18,19
 390 -203 390 -203 245 -240 c 1,20,21
 211 -250 211 -250 159 -250 c 1,22,-1
 108 -248 l 1,23,-1
 108 -182 l 1,24,25
 244 -158 244 -158 261 -68 c 1,26,27
 262 -52 262 -52 262.5 -44.5 c 128,-1,28
 263 -37 263 -37 263 416 c 0,29,30
 263 539 263 539 319 590 c 1,31,-1
 321 592 l 2,32,33
 330 600 330 600 342 608.5 c 128,-1,34
 354 617 354 617 370 627 c 1,35,-1
 372 629 l 1,36,-1
 378 631 l 1,37,-1
 370 635 l 1,38,39
 288 682 288 682 272 758 c 1,40,41
 263 791 263 791 263 846 c 2,42,-1
 263 1298 l 2,43,44
 263 1401 263 1401 151 1434 c 0,45,46
 141 1437 141 1437 130.5 1439.5 c 128,-1,47
 120 1442 120 1442 108 1444 c 1,0,-1
EndSplineSet
EndChar

StartChar: asciitilde
Encoding: 126 126 97
Width: 1228
GlyphClass: 2
Flags: W
LayerCount: 2
Fore
SplineSet
1105 680 m 1,0,-1
 1193 584 l 1,1,2
 1088 381 1088 381 941 356 c 0,3,4
 931 355 931 355 922.5 354.5 c 128,-1,5
 914 354 914 354 906 354 c 0,6,7
 842 354 842 354 716 408 c 1,8,-1
 605 453 l 1,9,10
 559 473 559 473 527 483.5 c 128,-1,11
 495 494 495 494 478 496 c 1,12,-1
 476 496 l 1,13,-1
 455 496 l 2,14,15
 376 496 376 496 318 424 c 1,16,-1
 306 406 l 1,17,-1
 304 403 l 2,18,19
 291 385 291 385 277 362 c 128,-1,20
 263 339 263 339 247 311 c 1,21,-1
 160 408 l 1,22,23
 194 466 194 466 224.5 509 c 128,-1,24
 255 552 255 552 283 580 c 0,25,26
 356 653 356 653 455 653 c 0,27,28
 525 653 525 653 611 614 c 1,29,-1
 744 559 l 2,30,31
 801 536 801 536 840.5 524.5 c 128,-1,32
 880 513 880 513 904 512 c 1,33,-1
 908 512 l 2,34,35
 951 512 951 512 990 539 c 1,36,37
 1004 550 1004 550 1019.5 565 c 128,-1,38
 1035 580 1035 580 1051 600 c 0,39,40
 1064 617 1064 617 1077.5 637 c 128,-1,41
 1091 657 1091 657 1105 680 c 1,0,-1
EndSplineSet
EndChar

StartChar: uni007F
Encoding: 127 127 98
Width: 1600
GlyphClass: 2
Flags: W
LayerCount: 2
Fore
SplineSet
1520 129 m 1,0,-1
 1154 129 l 1,1,-1
 1154 715 l 1,2,-1
 1232 715 l 1,3,-1
 1232 198 l 1,4,-1
 1520 198 l 1,5,-1
 1520 129 l 1,0,-1
1080 129 m 1,6,-1
 642 129 l 1,7,-1
 642 715 l 1,8,-1
 1066 715 l 1,9,-1
 1066 646 l 1,10,-1
 720 646 l 1,11,-1
 720 467 l 1,12,-1
 1044 467 l 1,13,-1
 1044 398 l 1,14,-1
 720 398 l 1,15,-1
 720 198 l 1,16,-1
 1080 198 l 1,17,-1
 1080 129 l 1,6,-1
572 425 m 0,18,19
 572 299 572 299 516 222 c 0,20,21
 469 158 469 158 393 139 c 0,22,23
 356 129 356 129 298 129 c 2,24,-1
 87 129 l 1,25,-1
 87 715 l 1,26,-1
 289 715 l 2,27,28
 353 715 353 715 393 707 c 1,29,30
 506 681 506 681 549 565 c 0,31,32
 572 501 572 501 572 425 c 0,18,19
492 427 m 0,33,34
 492 593 492 593 388 634 c 0,35,36
 356 646 356 646 288 646 c 2,37,-1
 164 646 l 1,38,-1
 164 198 l 1,39,-1
 290 198 l 2,40,41
 392 198 392 198 433 239 c 0,42,43
 492 298 492 298 492 427 c 0,33,34
EndSplineSet
EndChar

StartChar: exclamdown
Encoding: 161 161 100
Width: 614
GlyphClass: 2
Flags: W
LayerCount: 2
Fore
SplineSet
385 748 m 0,0,1
 306 748 306 748 268 819 c 1,2,-1
 268 821 l 1,3,4
 254 851 254 851 254 879 c 0,5,6
 254 961 254 961 326 997 c 0,7,8
 354 1012 354 1012 385 1012 c 0,9,10
 466 1012 466 1012 504 938 c 1,11,12
 518 908 518 908 518 879 c 0,13,14
 518 801 518 801 449 764 c 0,15,16
 418 748 418 748 385 748 c 0,0,1
352 629 m 1,17,-1
 426 629 l 1,18,-1
 426 563 l 1,19,-1
 436 387 l 1,20,21
 447 281 447 281 457 223 c 2,22,-1
 502 -45 l 1,23,-1
 527 -201 l 1,24,-1
 527 -229 l 2,25,26
 527 -436 527 -436 379 -436 c 0,27,28
 264 -436 264 -436 238 -311 c 1,29,-1
 232 -248 l 1,30,31
 232 -185 232 -185 260 -39 c 1,32,-1
 318 240 l 1,33,-1
 338 383 l 2,34,35
 345 440 345 440 348.5 485 c 128,-1,36
 352 530 352 530 352 565 c 2,37,-1
 352 629 l 1,17,-1
EndSplineSet
EndChar

StartChar: cent
Encoding: 162 162 101
Width: 1269
GlyphClass: 2
Flags: W
LayerCount: 2
Fore
SplineSet
821 1032 m 1,0,-1
 821 428 l 1,1,-1
 871 422 l 1,2,-1
 883 422 l 2,3,4
 929 422 929 422 967 434 c 1,5,6
 1021 453 1021 453 1118 535 c 1,7,-1
 1168 506 l 1,8,9
 1069 334 1069 334 875 295 c 0,10,11
 848 290 848 290 821 289 c 1,12,-1
 821 43 l 1,13,-1
 746 43 l 1,14,-1
 746 289 l 1,15,16
 551 307 551 307 438 463 c 1,17,18
 359 569 359 569 359 709 c 0,19,20
 359 928 359 928 524 1044 c 0,21,22
 619 1112 619 1112 746 1124 c 1,23,-1
 746 1335 l 1,24,-1
 821 1335 l 1,25,-1
 821 1124 l 1,26,27
 1016 1112 1016 1112 1104 1004 c 0,28,29
 1145 954 1145 954 1145 895 c 0,30,31
 1145 822 1145 822 1084 797 c 0,32,33
 1064 788 1064 788 1045 788 c 0,34,35
 956 788 956 788 934 897 c 1,36,-1
 930 920 l 1,37,38
 924 1020 924 1020 821 1032 c 1,0,-1
746 453 m 1,39,-1
 746 1034 l 1,40,41
 602 991 602 991 582 801 c 1,42,43
 581 775 581 775 580.5 761.5 c 128,-1,44
 580 748 580 748 582 711 c 0,45,46
 584 681 584 681 590 654 c 128,-1,47
 596 627 596 627 604 602 c 1,48,49
 636 515 636 515 711 471 c 2,50,-1
 721 465 l 1,51,-1
 723 465 l 1,52,-1
 725 463 l 1,53,-1
 746 453 l 1,39,-1
EndSplineSet
EndChar

StartChar: sterling
Encoding: 163 163 102
Width: 1269
GlyphClass: 2
Flags: W
LayerCount: 2
Fore
SplineSet
534 819 m 1,0,-1
 946 819 l 1,1,-1
 913 731 l 1,2,-1
 575 731 l 1,3,-1
 649 557 l 2,4,5
 657 537 657 537 663 515.5 c 128,-1,6
 669 494 669 494 674 471 c 1,7,-1
 680 412 l 1,8,-1
 680 385 l 1,9,10
 676 340 676 340 653 266 c 0,11,12
 652 264 652 264 651 261.5 c 128,-1,13
 650 259 650 259 649 256 c 1,14,-1
 844 195 l 1,15,16
 904 175 904 175 940 164 c 128,-1,17
 976 153 976 153 989 152 c 1,18,-1
 1018 152 l 2,19,20
 1118 152 1118 152 1159 223 c 0,21,22
 1171 245 1171 245 1171 274 c 0,23,24
 1171 348 1171 348 1098 369 c 1,25,-1
 1095 369 l 1,26,-1
 1061 373 l 1,27,-1
 1032 371 l 1,28,29
 999 367 999 367 942 342 c 1,30,-1
 909 399 l 1,31,-1
 966 430 l 1,32,33
 1019 455 1019 455 1087 455 c 0,34,35
 1210 455 1210 455 1270 352 c 0,36,37
 1300 302 1300 302 1300 240 c 0,38,39
 1300 101 1300 101 1184 27 c 1,40,41
 1116 -18 1116 -18 1030 -18 c 1,42,-1
 985 -16 l 1,43,44
 959 -12 959 -12 934 -4 c 0,45,46
 887 10 887 10 786 61 c 2,47,-1
 600 156 l 1,48,49
 459 -27 459 -27 260 -27 c 0,50,51
 121 -27 121 -27 55 68 c 0,52,53
 24 111 24 111 24 164 c 0,54,55
 24 270 24 270 133 324 c 1,56,57
 191 354 191 354 266 354 c 0,58,59
 353 354 353 354 508 307 c 1,60,-1
 504 348 l 2,61,62
 502 359 502 359 499.5 370 c 128,-1,63
 497 381 497 381 493 393 c 2,64,-1
 424 567 l 1,65,-1
 354 731 l 1,66,-1
 94 731 l 1,67,-1
 123 819 l 1,68,-1
 323 819 l 1,69,70
 284 954 284 954 284 1010 c 0,71,72
 284 1059 284 1059 305 1116 c 1,73,74
 339 1216 339 1216 405 1282 c 0,75,76
 532 1411 532 1411 751 1421 c 1,77,-1
 778 1421 l 2,78,79
 994 1421 994 1421 1104 1292 c 0,80,81
 1165 1219 1165 1219 1165 1122 c 0,82,83
 1165 1024 1165 1024 1091 997 c 1,84,-1
 1089 997 l 1,85,-1
 1087 995 l 1,86,-1
 1085 995 l 1,87,88
 1074 991 1074 991 1055 991 c 0,89,90
 990 991 990 991 964 1047 c 1,91,-1
 964 1049 l 1,92,-1
 958 1077 l 1,93,-1
 958 1092 l 1,94,95
 960 1100 960 1100 960 1102 c 2,96,-1
 960 1104 l 1,97,-1
 989 1174 l 1,98,-1
 995 1190 l 1,99,-1
 997 1206 l 1,100,101
 997 1275 997 1275 899 1325 c 0,102,103
 837 1356 837 1356 762 1356 c 0,104,105
 592 1356 592 1356 514 1217 c 0,106,107
 473 1143 473 1143 473 1042 c 1,108,-1
 475 989 l 1,109,110
 481 945 481 945 512 872 c 2,111,-1
 534 819 l 1,0,-1
493 205 m 1,112,113
 420 248 420 248 278 272 c 1,114,-1
 358 264 l 1,115,116
 339 268 339 268 319.5 270 c 128,-1,117
 300 272 300 272 278 272 c 0,118,119
 166 272 166 272 139 197 c 1,120,-1
 133 164 l 1,121,122
 133 91 133 91 211 66 c 1,123,124
 239 55 239 55 270 55 c 0,125,126
 403 55 403 55 493 205 c 1,112,113
EndSplineSet
EndChar

StartChar: currency
Encoding: 164 164 103
Width: 1269
GlyphClass: 2
Flags: W
LayerCount: 2
Fore
SplineSet
181 319 m 1,0,-1
 289 428 l 1,1,2
 242 494 242 494 220 551 c 1,3,4
 189 622 189 622 189 725 c 0,5,6
 189 852 189 852 240 948 c 0,7,8
 251 967 251 967 263 986 c 128,-1,9
 275 1005 275 1005 289 1024 c 1,10,-1
 179 1135 l 1,11,-1
 283 1241 l 1,12,-1
 394 1130 l 1,13,14
 533 1235 533 1235 699 1235 c 0,15,16
 802 1235 802 1235 896 1194 c 0,17,18
 921 1183 921 1183 946.5 1167.5 c 128,-1,19
 972 1152 972 1152 998 1133 c 1,20,-1
 1107 1241 l 1,21,-1
 1209 1135 l 1,22,-1
 1100 1028 l 1,23,24
 1116 1008 1116 1008 1128.5 988.5 c 128,-1,25
 1141 969 1141 969 1152 950 c 0,26,27
 1205 852 1205 852 1205 725 c 0,28,29
 1205 602 1205 602 1154 506 c 0,30,31
 1143 486 1143 486 1130.5 467 c 128,-1,32
 1118 448 1118 448 1104 428 c 1,33,-1
 1213 319 l 1,34,-1
 1111 215 l 1,35,-1
 1002 324 l 1,36,37
 979 307 979 307 957.5 292 c 128,-1,38
 936 277 936 277 914 266 c 0,39,40
 820 217 820 217 697 217 c 256,41,42
 574 217 574 217 480 266 c 0,43,44
 458 277 458 277 436.5 292 c 128,-1,45
 415 307 415 307 392 324 c 1,46,-1
 283 215 l 1,47,-1
 181 319 l 1,0,-1
703 1065 m 0,48,49
 533 1065 533 1065 431 936 c 0,50,51
 357 844 357 844 357 729 c 0,52,53
 357 561 357 561 488 459 c 0,54,55
 579 387 579 387 697 387 c 0,56,57
 859 387 859 387 961 516 c 1,58,59
 1037 607 1037 607 1037 727 c 0,60,61
 1037 886 1037 886 910 989 c 1,62,63
 819 1065 819 1065 703 1065 c 0,48,49
EndSplineSet
EndChar

StartChar: yen
Encoding: 165 165 104
Width: 1269
GlyphClass: 2
Flags: W
LayerCount: 2
Fore
SplineSet
688 481 m 1,0,-1
 688 266 l 2,1,2
 688 132 688 132 741 94 c 0,3,4
 782 65 782 65 890 61 c 1,5,-1
 890 0 l 1,6,-1
 301 0 l 1,7,-1
 301 61 l 1,8,-1
 337 63 l 2,9,10
 454 70 454 70 483 129 c 1,11,12
 503 172 503 172 503 266 c 2,13,-1
 503 481 l 1,14,-1
 38 481 l 1,15,-1
 38 563 l 1,16,-1
 503 563 l 1,17,-1
 503 584 l 1,18,-1
 372 807 l 1,19,-1
 38 807 l 1,20,-1
 38 889 l 1,21,-1
 321 889 l 1,22,-1
 172 1139 l 2,23,24
 118 1230 118 1230 88 1266 c 1,25,26
 48 1309 48 1309 -33 1331 c 1,27,-1
 -68 1339 l 1,28,-1
 -68 1395 l 1,29,-1
 481 1395 l 1,30,-1
 481 1339 l 1,31,-1
 458 1335 l 2,32,33
 344 1315 344 1315 329 1272 c 1,34,-1
 329 1270 l 1,35,-1
 327 1251 l 1,36,-1
 327 1239 l 1,37,-1
 329 1233 l 1,38,-1
 331 1227 l 1,39,-1
 331 1225 l 1,40,41
 335 1208 335 1208 372 1147 c 2,42,-1
 641 709 l 1,43,-1
 890 1124 l 1,44,45
 942 1208 942 1208 946 1229 c 1,46,-1
 946 1243 l 2,47,48
 946 1288 946 1288 901 1309 c 1,49,-1
 901 1311 l 1,50,-1
 878 1319 l 1,51,-1
 876 1319 l 1,52,-1
 804 1339 l 1,53,-1
 804 1395 l 1,54,-1
 1302 1395 l 1,55,-1
 1302 1339 l 1,56,57
 1180 1317 1180 1317 1122 1262 c 0,58,59
 1119 1260 1119 1260 1112 1251 c 1,60,61
 1110 1251 1110 1251 1110 1249 c 1,62,63
 1090 1229 1090 1229 1062 1192 c 128,-1,64
 1034 1155 1034 1155 999 1100 c 1,65,-1
 858 889 l 1,66,-1
 1161 889 l 1,67,-1
 1161 807 l 1,68,-1
 804 807 l 1,69,-1
 688 631 l 1,70,-1
 688 563 l 1,71,-1
 1161 563 l 1,72,-1
 1161 481 l 1,73,-1
 688 481 l 1,0,-1
EndSplineSet
EndChar

StartChar: brokenbar
Encoding: 166 166 105
Width: 410
GlyphClass: 2
Flags: W
LayerCount: 2
Fore
SplineSet
244 809 m 1,0,-1
 161 809 l 1,1,-1
 161 1551 l 1,2,-1
 244 1551 l 1,3,-1
 244 809 l 1,0,-1
244 -313 m 1,4,-1
 161 -313 l 1,5,-1
 161 429 l 1,6,-1
 244 429 l 1,7,-1
 244 -313 l 1,4,-1
EndSplineSet
EndChar

StartChar: section
Encoding: 167 167 106
Width: 1064
GlyphClass: 2
Flags: W
LayerCount: 2
Fore
SplineSet
483 956 m 1,0,-1
 759 879 l 1,1,2
 943 824 943 824 997 678 c 1,3,4
 1015 633 1015 633 1015 582 c 0,5,6
 1015 495 1015 495 980 410 c 0,7,8
 966 374 966 374 943 336 c 128,-1,9
 920 298 920 298 888 258 c 1,10,11
 1029 154 1029 154 1029 -10 c 0,12,13
 1029 -204 1029 -204 853 -305 c 0,14,15
 782 -346 782 -346 691 -362 c 1,16,17
 662 -369 662 -369 630 -372 c 128,-1,18
 598 -375 598 -375 564 -375 c 0,19,20
 328 -375 328 -375 192 -254 c 0,21,22
 103 -175 103 -175 102 -74 c 0,23,24
 102 6 102 6 167 35 c 1,25,26
 189 43 189 43 208 43 c 0,27,28
 280 43 280 43 300 -23 c 1,29,-1
 306 -59 l 1,30,-1
 306 -66 l 1,31,-1
 306 -72 l 1,32,-1
 298 -123 l 1,33,-1
 296 -137 l 1,34,-1
 296 -152 l 2,35,36
 296 -217 296 -217 356 -248 c 0,37,38
 388 -264 388 -264 424.5 -274 c 128,-1,39
 461 -284 461 -284 503 -289 c 1,40,-1
 564 -293 l 1,41,42
 755 -293 755 -293 822 -166 c 1,43,44
 849 -117 849 -117 849 -53 c 0,45,46
 849 80 849 80 706 119 c 1,47,-1
 673 127 l 1,48,-1
 452 174 l 1,49,50
 267 211 267 211 194 291 c 1,51,52
 110 376 110 376 110 496 c 0,53,54
 110 595 110 595 165 674 c 0,55,56
 210 739 210 739 308 817 c 1,57,58
 163 899 163 899 136 1018 c 0,59,60
 128 1055 128 1055 128 1098 c 0,61,62
 128 1274 128 1274 298 1364 c 0,63,64
 407 1421 407 1421 560 1421 c 0,65,66
 787 1421 787 1421 915 1305 c 1,67,68
 992 1233 992 1233 995 1141 c 1,69,70
 995 1059 995 1059 935 1032 c 1,71,-1
 900 1024 l 1,72,73
 830 1024 830 1024 804 1092 c 1,74,-1
 804 1094 l 1,75,76
 798 1112 798 1112 798 1135 c 2,77,-1
 798 1137 l 1,78,-1
 800 1178 l 1,79,-1
 800 1202 l 2,80,81
 800 1296 800 1296 675 1329 c 0,82,83
 634 1339 634 1339 577 1339 c 0,84,85
 362 1339 362 1339 317 1204 c 0,86,87
 308 1178 308 1178 308 1145 c 0,88,89
 308 1025 308 1025 435 973 c 1,90,-1
 483 956 l 1,0,-1
644 717 m 1,91,-1
 382 793 l 1,92,93
 304 709 304 709 282 643 c 0,94,95
 270 605 270 605 270 563 c 0,96,97
 270 442 270 442 415 381 c 1,98,99
 450 365 450 365 499 356 c 1,100,-1
 644 326 l 1,101,-1
 714 311 l 1,102,-1
 716 311 l 1,103,-1
 718 309 l 1,104,-1
 726 307 l 1,105,106
 749 303 749 303 771 298 c 128,-1,107
 793 293 793 293 816 287 c 1,108,109
 835 322 835 322 847.5 351.5 c 128,-1,110
 860 381 860 381 865 406 c 1,111,112
 872 431 872 431 872 471 c 0,113,114
 872 616 872 616 732 682 c 1,115,-1
 644 717 l 1,91,-1
EndSplineSet
EndChar

StartChar: dieresis
Encoding: 168 168 107
Width: 860
GlyphClass: 2
Flags: W
LayerCount: 2
Fore
SplineSet
333 1395 m 0,0,1
 401 1395 401 1395 436 1333 c 1,2,3
 452 1308 452 1308 452 1274 c 0,4,5
 452 1201 452 1201 386 1167 c 0,6,7
 360 1153 360 1153 331 1153 c 0,8,9
 259 1153 259 1153 225 1219 c 1,10,-1
 223 1221 l 1,11,12
 210 1243 210 1243 210 1274 c 0,13,14
 210 1351 210 1351 280 1382 c 1,15,16
 302 1395 302 1395 333 1395 c 0,0,1
667 1395 m 0,17,18
 734 1395 734 1395 769 1333 c 1,19,20
 786 1307 786 1307 786 1274 c 0,21,22
 786 1201 786 1201 720 1167 c 0,23,24
 694 1153 694 1153 665 1153 c 0,25,26
 592 1153 592 1153 558 1219 c 1,27,-1
 556 1221 l 1,28,29
 544 1245 544 1245 544 1274 c 0,30,31
 544 1351 544 1351 614 1382 c 1,32,33
 636 1395 636 1395 667 1395 c 0,17,18
EndSplineSet
EndChar

StartChar: copyright
Encoding: 169 169 108
Width: 1515
GlyphClass: 2
Flags: W
LayerCount: 2
Fore
SplineSet
1072 1083 m 1,0,-1
 1129 801 l 1,1,-1
 1082 801 l 1,2,-1
 1029 895 l 1,3,-1
 1022 903 l 1,4,5
 1020 907 1020 907 1017 912 c 128,-1,6
 1014 917 1014 917 1010 922 c 0,7,8
 932 1032 932 1032 811 1042 c 1,9,-1
 795 1042 l 2,10,11
 662 1042 662 1042 590 907 c 1,12,13
 543 821 543 821 541 702 c 1,14,15
 541 543 541 543 621 457 c 0,16,17
 676 397 676 397 758 375 c 0,18,19
 772 371 772 371 787 369.5 c 128,-1,20
 802 368 802 368 818 367 c 1,21,22
 978 367 978 367 1090 530 c 1,23,-1
 1094 537 l 1,24,-1
 1153 504 l 1,25,26
 1022 301 1022 301 801 301 c 0,27,28
 597 301 597 301 482 451 c 1,29,30
 398 557 398 557 398 700 c 0,31,32
 398 868 398 868 504 983 c 1,33,34
 581 1064 581 1064 691 1096 c 1,35,36
 736 1108 736 1108 775 1108 c 0,37,38
 912 1108 912 1108 1004 1040 c 1,39,-1
 1026 1083 l 1,40,-1
 1072 1083 l 1,0,-1
799 1434 m 1,41,42
 873 1434 873 1434 943 1415 c 1,43,-1
 949 1415 l 1,44,45
 1151 1364 1151 1364 1297 1223 c 1,46,47
 1508 1022 1508 1022 1508 723 c 0,48,49
 1508 428 1508 428 1305 219 c 1,50,51
 1106 11 1106 11 818 0 c 1,52,-1
 791 0 l 2,53,54
 502 0 502 0 293 203 c 1,55,56
 86 402 86 402 74 692 c 1,57,-1
 74 721 l 2,58,59
 74 1028 74 1028 285 1223 c 1,60,61
 504 1427 504 1427 799 1434 c 1,41,42
797 1352 m 0,62,63
 551 1352 551 1352 361 1180 c 1,64,-1
 347 1165 l 1,65,66
 162 986 162 986 162 721 c 0,67,68
 162 453 162 453 349 266 c 1,69,70
 530 82 530 82 791 82 c 256,71,72
 1052 82 1052 82 1237 270 c 0,73,74
 1420 457 1420 457 1420 723 c 0,75,76
 1420 985 1420 985 1246 1155 c 1,77,-1
 1235 1165 l 1,78,79
 1102 1292 1102 1292 926 1335 c 0,80,81
 858 1352 858 1352 797 1352 c 0,62,63
EndSplineSet
EndChar

StartChar: ordfeminine
Encoding: 170 170 109
Width: 860
GlyphClass: 2
Flags: W
LayerCount: 2
Fore
SplineSet
817 879 m 1,0,-1
 856 829 l 1,1,-1
 807 797 l 1,2,3
 771 780 771 780 727 780 c 0,4,5
 609 780 609 780 571 860 c 1,6,7
 543 840 543 840 517.5 824.5 c 128,-1,8
 492 809 492 809 469 799 c 0,9,10
 416 778 416 778 352 778 c 0,11,12
 215 778 215 778 168 870 c 1,13,-1
 168 872 l 1,14,15
 151 904 151 904 151 940 c 0,16,17
 151 1035 151 1035 258 1085 c 1,18,-1
 272 1092 l 2,19,20
 299 1105 299 1105 333 1114 c 128,-1,21
 367 1123 367 1123 409 1130 c 2,22,-1
 565 1155 l 1,23,-1
 565 1247 l 2,24,25
 565 1317 565 1317 477 1333 c 1,26,27
 462 1337 462 1337 432 1337 c 0,28,29
 378 1337 378 1337 344 1309 c 1,30,-1
 342 1307 l 1,31,32
 336 1299 336 1299 336 1280 c 2,33,-1
 336 1266 l 2,34,35
 336 1204 336 1204 280 1190 c 1,36,-1
 262 1188 l 1,37,38
 217 1188 217 1188 196 1231 c 0,39,40
 192 1239 192 1239 192 1253 c 0,41,42
 192 1321 192 1321 297 1368 c 1,43,44
 370 1403 370 1403 450 1403 c 2,45,-1
 473 1403 l 1,46,47
 592 1397 592 1397 653 1348 c 1,48,49
 704 1310 704 1310 704 1227 c 2,50,-1
 704 958 l 2,51,52
 704 864 704 864 743 858 c 2,53,-1
 756 856 l 1,54,-1
 776 858 l 1,55,56
 796 864 796 864 817 879 c 1,0,-1
565 936 m 1,57,-1
 565 1092 l 1,58,59
 336 1055 336 1055 303 985 c 0,60,61
 295 966 295 966 295 948 c 0,62,63
 295 881 295 881 360 860 c 1,64,-1
 397 854 l 1,65,-1
 428 856 l 1,66,67
 484 868 484 868 565 936 c 1,57,-1
805 672 m 1,68,-1
 805 590 l 1,69,-1
 180 590 l 1,70,-1
 180 672 l 1,71,-1
 805 672 l 1,68,-1
EndSplineSet
EndChar

StartChar: guillemotleft
Encoding: 171 171 110
Width: 737
GlyphClass: 2
Flags: W
LayerCount: 2
Fore
SplineSet
616 219 m 1,0,-1
 555 182 l 1,1,-1
 356 543 l 1,2,-1
 578 895 l 1,3,-1
 639 860 l 1,4,-1
 512 543 l 1,5,-1
 616 219 l 1,0,-1
367 219 m 1,6,-1
 305 182 l 1,7,-1
 104 543 l 1,8,-1
 328 895 l 1,9,-1
 387 860 l 1,10,-1
 260 543 l 1,11,-1
 367 219 l 1,6,-1
EndSplineSet
EndChar

StartChar: logicalnot
Encoding: 172 172 111
Width: 1365
GlyphClass: 2
Flags: W
LayerCount: 2
Fore
SplineSet
1222 490 m 1,0,-1
 1114 490 l 1,1,-1
 1114 956 l 1,2,-1
 142 956 l 1,3,-1
 142 1064 l 1,4,-1
 1222 1064 l 1,5,-1
 1222 490 l 1,0,-1
EndSplineSet
EndChar

StartChar: uni00AD
Encoding: 173 173 112
Width: 1155
GlyphClass: 2
Flags: W
LayerCount: 2
Fore
SplineSet
1106 926 m 1,0,-1
 36 926 l 1,1,-1
 36 1007 l 1,2,-1
 1106 1007 l 1,3,-1
 1106 926 l 1,0,-1
EndSplineSet
EndChar

StartChar: registered
Encoding: 174 174 113
Width: 1515
GlyphClass: 2
Flags: W
LayerCount: 2
Fore
SplineSet
946 737 m 1,0,-1
 1128 481 l 1,1,-1
 1148 457 l 2,2,3
 1157 447 1157 447 1167.5 440 c 128,-1,4
 1178 433 1178 433 1189 428 c 1,5,-1
 1191 426 l 1,6,-1
 1249 410 l 1,7,-1
 1249 365 l 1,8,-1
 1052 365 l 1,9,-1
 798 725 l 1,10,-1
 647 725 l 1,11,-1
 647 532 l 2,12,13
 647 438 647 438 683 422 c 1,14,-1
 714 416 l 1,15,-1
 759 412 l 1,16,-1
 759 365 l 1,17,-1
 417 365 l 1,18,-1
 417 412 l 1,19,-1
 450 416 l 2,20,21
 501 422 501 422 513 459 c 0,22,23
 520 479 520 479 520 532 c 2,24,-1
 520 975 l 2,25,26
 520 1065 520 1065 487 1083 c 1,27,-1
 485 1083 l 1,28,-1
 483 1083 l 1,29,-1
 450 1092 l 1,30,-1
 417 1096 l 1,31,-1
 417 1143 l 1,32,-1
 884 1143 l 2,33,34
 1082 1143 1082 1143 1134 1022 c 1,35,36
 1150 990 1150 990 1150 944 c 0,37,38
 1150 791 1150 791 982 745 c 1,39,-1
 964 741 l 1,40,-1
 946 737 l 1,0,-1
647 786 m 1,41,-1
 829 786 l 2,42,43
 1005 786 1005 786 1019 918 c 0,44,45
 1020 923 1020 923 1020.5 928 c 128,-1,46
 1021 933 1021 933 1021 938 c 0,47,48
 1021 1083 1021 1083 806 1083 c 0,49,50
 656 1083 656 1083 649 1034 c 1,51,-1
 647 1024 l 1,52,-1
 647 786 l 1,41,-1
796 1434 m 1,53,54
 869 1434 869 1434 939 1415 c 1,55,-1
 946 1415 l 1,56,57
 1148 1364 1148 1364 1294 1223 c 1,58,59
 1505 1022 1505 1022 1505 723 c 0,60,61
 1505 428 1505 428 1302 219 c 1,62,63
 1103 11 1103 11 815 0 c 1,64,-1
 788 0 l 2,65,66
 499 0 499 0 290 203 c 1,67,68
 83 402 83 402 71 692 c 1,69,-1
 71 721 l 2,70,71
 71 1028 71 1028 282 1223 c 1,72,73
 501 1427 501 1427 796 1434 c 1,53,54
794 1352 m 0,74,75
 548 1352 548 1352 358 1180 c 1,76,-1
 343 1165 l 1,77,78
 159 987 159 987 159 721 c 0,79,80
 159 453 159 453 346 266 c 1,81,82
 527 82 527 82 788 82 c 256,83,84
 1049 82 1049 82 1234 270 c 0,85,86
 1417 457 1417 457 1417 723 c 0,87,88
 1417 985 1417 985 1243 1155 c 1,89,-1
 1232 1165 l 1,90,91
 1099 1292 1099 1292 923 1335 c 0,92,93
 855 1352 855 1352 794 1352 c 0,74,75
EndSplineSet
EndChar

StartChar: macron
Encoding: 175 175 114
Width: 683
GlyphClass: 2
Flags: W
LayerCount: 2
Fore
SplineSet
603 1297 m 1,0,-1
 82 1297 l 1,1,-1
 82 1405 l 1,2,-1
 603 1405 l 1,3,-1
 603 1297 l 1,0,-1
EndSplineSet
EndChar

StartChar: degree
Encoding: 176 176 115
Width: 819
GlyphClass: 2
Flags: W
LayerCount: 2
Fore
SplineSet
468 1405 m 0,0,1
 620 1405 620 1405 709 1280 c 0,2,3
 769 1197 769 1197 769 1092 c 0,4,5
 769 931 769 931 646 840 c 1,6,7
 566 778 566 778 462 778 c 0,8,9
 306 778 306 778 216 903 c 1,10,11
 154 986 154 986 154 1094 c 0,12,13
 154 1249 154 1249 277 1341 c 1,14,15
 359 1405 359 1405 468 1405 c 0,0,1
466 1288 m 0,16,17
 353 1288 353 1288 298 1194 c 1,18,19
 269 1147 269 1147 269 1092 c 0,20,21
 269 983 269 983 359 926 c 1,22,23
 405 895 405 895 462 895 c 0,24,25
 570 895 570 895 625 989 c 0,26,27
 651 1034 651 1034 652 1092 c 1,28,29
 652 1201 652 1201 562 1260 c 0,30,31
 519 1288 519 1288 466 1288 c 0,16,17
EndSplineSet
EndChar

StartChar: plusminus
Encoding: 177 177 116
Width: 946
GlyphClass: 2
Flags: W
LayerCount: 2
Fore
SplineSet
835 452 m 1,0,-1
 514 452 l 1,1,-1
 514 199 l 1,2,-1
 430 199 l 1,3,-1
 430 452 l 1,4,-1
 105 452 l 1,5,-1
 105 535 l 1,6,-1
 430 535 l 1,7,-1
 430 863 l 1,8,-1
 514 863 l 1,9,-1
 514 535 l 1,10,-1
 835 535 l 1,11,-1
 835 452 l 1,0,-1
835 46 m 1,12,-1
 105 46 l 1,13,-1
 105 129 l 1,14,-1
 835 129 l 1,15,-1
 835 46 l 1,12,-1
EndSplineSet
EndChar

StartChar: uni00B2
Encoding: 178 178 117
Width: 761
GlyphClass: 2
Flags: W
LayerCount: 2
Fore
SplineSet
772 799 m 1,0,-1
 706 559 l 1,1,-1
 61 559 l 1,2,-1
 61 657 l 1,3,4
 124 692 124 692 166 718.5 c 128,-1,5
 208 745 208 745 233 764 c 1,6,-1
 245 772 l 2,7,8
 251 776 251 776 256 780 c 2,9,-1
 305 821 l 1,10,-1
 368 879 l 1,11,12
 532 1043 532 1043 534 1182 c 1,13,14
 534 1291 534 1291 434 1325 c 0,15,16
 405 1335 405 1335 366 1335 c 0,17,18
 266 1335 266 1335 215 1278 c 1,19,20
 195 1260 195 1260 194 1233 c 0,21,22
 194 1229 194 1229 196 1219 c 1,23,24
 200 1206 200 1206 221 1184 c 1,25,-1
 237 1157 l 1,26,-1
 241 1139 l 1,27,28
 241 1096 241 1096 194 1075 c 1,29,30
 173 1067 173 1067 159 1067 c 0,31,32
 95 1067 95 1067 73 1133 c 1,33,-1
 71 1135 l 1,34,-1
 71 1137 l 1,35,36
 65 1155 65 1155 65 1178 c 0,37,38
 65 1288 65 1288 186 1360 c 1,39,40
 274 1411 274 1411 382 1411 c 0,41,42
 568 1411 568 1411 657 1298 c 1,43,-1
 659 1296 l 1,44,-1
 661 1294 l 1,45,46
 702 1238 702 1238 702 1167 c 0,47,48
 702 1010 702 1010 477 829 c 1,49,-1
 448 807 l 1,50,51
 437 801 437 801 430 795 c 0,52,53
 419 787 419 787 406.5 778.5 c 128,-1,54
 394 770 394 770 378 760 c 2,55,-1
 241 674 l 1,56,-1
 514 674 l 2,57,58
 616 674 616 674 649 707 c 2,59,-1
 651 709 l 1,60,-1
 653 711 l 1,61,-1
 673 741 l 1,62,-1
 692 778 l 1,63,-1
 708 813 l 1,64,-1
 772 799 l 1,0,-1
EndSplineSet
EndChar

StartChar: uni00B3
Encoding: 179 179 118
Width: 761
GlyphClass: 2
Flags: W
LayerCount: 2
Fore
SplineSet
518 1022 m 1,0,-1
 544 1016 l 2,1,2
 699 981 699 981 739 868 c 0,3,4
 749 841 749 841 749 803 c 0,5,6
 749 665 749 665 602 592 c 0,7,8
 505 543 505 543 370 543 c 0,9,10
 176 543 176 543 82 637 c 1,11,12
 37 680 37 680 37 735 c 0,13,14
 37 797 37 797 90 821 c 1,15,-1
 123 827 l 1,16,17
 184 827 184 827 198 776 c 1,18,-1
 202 754 l 1,19,-1
 202 743 l 1,20,-1
 202 741 l 1,21,-1
 202 739 l 1,22,-1
 192 711 l 1,23,-1
 190 700 l 1,24,25
 190 653 190 653 280 629 c 0,26,27
 322 618 322 618 366 618 c 0,28,29
 538 618 538 618 573 743 c 1,30,-1
 581 801 l 1,31,-1
 581 803 l 2,32,33
 581 944 581 944 442 977 c 0,34,35
 405 985 405 985 368 985 c 2,36,-1
 364 985 l 1,37,-1
 274 979 l 1,38,-1
 274 1053 l 1,39,-1
 305 1051 l 1,40,-1
 348 1049 l 1,41,42
 496 1049 496 1049 534 1145 c 1,43,44
 544 1165 544 1165 544 1196 c 0,45,46
 544 1296 544 1296 446 1325 c 1,47,48
 420 1335 420 1335 383 1335 c 0,49,50
 276 1335 276 1335 243 1282 c 1,51,-1
 235 1257 l 1,52,-1
 235 1255 l 1,53,-1
 235 1253 l 1,54,-1
 245 1219 l 1,55,-1
 250 1208 l 1,56,57
 250 1205 250 1205 250.5 1200 c 128,-1,58
 251 1195 251 1195 252 1188 c 1,59,60
 252 1141 252 1141 200 1126 c 1,61,62
 191 1122 191 1122 174 1122 c 0,63,64
 114 1122 114 1122 96 1180 c 1,65,-1
 92 1208 l 1,66,67
 92 1310 92 1310 211 1372 c 0,68,69
 287 1411 287 1411 387 1411 c 0,70,71
 573 1411 573 1411 657 1311 c 0,72,73
 690 1272 690 1272 696 1227 c 1,74,-1
 698 1206 l 1,75,76
 698 1084 698 1084 551 1032 c 1,77,-1
 518 1022 l 1,0,-1
EndSplineSet
EndChar

StartChar: acute
Encoding: 180 180 119
Width: 683
GlyphClass: 2
Flags: W
LayerCount: 2
Fore
SplineSet
516 1449 m 0,0,1
 516 1426 516 1426 481 1385 c 1,2,-1
 312 1197 l 1,3,-1
 270 1226 l 1,4,-1
 398 1464 l 2,5,6
 422 1508 422 1508 455 1508 c 0,7,8
 479 1508 479 1508 497.5 1490.5 c 128,-1,9
 516 1473 516 1473 516 1449 c 0,0,1
EndSplineSet
EndChar

StartChar: uni00B5
Encoding: 181 181 120
Width: 1392
GlyphClass: 2
Flags: W
LayerCount: 2
Fore
SplineSet
325 100 m 1,0,-1
 325 51 l 1,1,-1
 329 -20 l 1,2,-1
 348 -109 l 1,3,4
 385 -238 385 -238 387 -279 c 1,5,-1
 387 -297 l 2,6,7
 387 -410 387 -410 321 -440 c 1,8,9
 304 -449 304 -449 288 -449 c 0,10,11
 221 -449 221 -449 196 -367 c 0,12,13
 193 -357 193 -357 191 -348 c 128,-1,14
 189 -339 189 -339 188 -330 c 0,15,16
 187 -323 187 -323 186.5 -316 c 128,-1,17
 186 -309 186 -309 186 -301 c 2,18,-1
 186 -272 l 1,19,20
 187 -261 187 -261 189 -247.5 c 128,-1,21
 191 -234 191 -234 194 -217 c 0,22,23
 197 -205 197 -205 201.5 -186.5 c 128,-1,24
 206 -168 206 -168 213 -143 c 2,25,-1
 221 -115 l 1,26,27
 245 -27 245 -27 245 41 c 2,28,-1
 245 721 l 2,29,30
 245 842 245 842 184 870 c 0,31,32
 170 877 170 877 151.5 881 c 128,-1,33
 133 885 133 885 110 887 c 2,34,-1
 61 891 l 1,35,-1
 61 952 l 1,36,-1
 137 958 l 2,37,38
 219 965 219 965 272 973 c 0,39,40
 292 976 292 976 316.5 981 c 128,-1,41
 341 986 341 986 370 993 c 1,42,-1
 440 993 l 1,43,-1
 440 305 l 2,44,45
 440 106 440 106 581 84 c 1,46,-1
 626 80 l 1,47,48
 779 80 779 80 985 260 c 1,49,-1
 985 717 l 2,50,51
 985 838 985 838 927 868 c 1,52,-1
 925 868 l 1,53,54
 899 883 899 883 849 887 c 2,55,-1
 800 891 l 1,56,-1
 800 952 l 1,57,-1
 913 961 l 1,58,-1
 1013 973 l 1,59,60
 1049 979 1049 979 1099 991 c 1,61,-1
 1101 991 l 1,62,-1
 1110 993 l 1,63,-1
 1179 993 l 1,64,-1
 1179 236 l 2,65,66
 1179 103 1179 103 1265 74 c 1,67,-1
 1306 66 l 1,68,-1
 1357 61 l 1,69,-1
 1357 0 l 1,70,-1
 985 0 l 1,71,-1
 985 172 l 1,72,73
 813 33 813 33 686 -2 c 0,74,75
 628 -18 628 -18 557 -18 c 0,76,77
 404 -18 404 -18 325 100 c 1,0,-1
EndSplineSet
EndChar

StartChar: periodcentered
Encoding: 183 183 122
Width: 405
GlyphClass: 2
Flags: W
LayerCount: 2
Fore
SplineSet
326 768 m 256,0,1
 326 717 326 717 290 683 c 1,2,3
 255 648 255 648 205 648 c 0,4,5
 158 648 158 648 120 683 c 1,6,7
 85 721 85 721 85 768 c 0,8,9
 85 819 85 819 119 853 c 1,10,11
 153 889 153 889 203 889 c 0,12,13
 252 889 252 889 290 854 c 1,14,15
 326 819 326 819 326 768 c 256,0,1
EndSplineSet
EndChar

StartChar: cedilla
Encoding: 184 184 123
Width: 683
GlyphClass: 2
Flags: W
LayerCount: 2
Fore
SplineSet
543 -91 m 0,0,1
 543 -157 543 -157 483 -197 c 0,2,3
 430 -233 430 -233 361 -233 c 0,4,5
 302 -233 302 -233 217 -208 c 1,6,-1
 217 -153 l 1,7,8
 301 -182 301 -182 345 -182 c 0,9,10
 431 -182 431 -182 431 -110 c 0,11,12
 431 -32 431 -32 332 -32 c 2,13,-1
 278 -32 l 1,14,-1
 278 152 l 1,15,-1
 332 152 l 1,16,-1
 332 17 l 1,17,18
 345 18 345 18 354 18.5 c 128,-1,19
 363 19 363 19 369 19 c 0,20,21
 543 19 543 19 543 -91 c 0,0,1
EndSplineSet
EndChar

StartChar: uni00B9
Encoding: 185 185 124
Width: 761
GlyphClass: 2
Flags: W
LayerCount: 2
Fore
SplineSet
544 1395 m 1,0,-1
 544 735 l 2,1,2
 544 653 544 653 570 635 c 0,3,4
 583 627 583 627 615 618 c 0,5,6
 616 618 616 618 624 616 c 1,7,-1
 650 614 l 1,8,-1
 701 614 l 1,9,-1
 701 559 l 1,10,-1
 247 559 l 1,11,-1
 247 614 l 1,12,-1
 300 614 l 1,13,-1
 341 621 l 1,14,15
 378 633 378 633 392 647 c 1,16,17
 407 659 407 659 407 739 c 2,18,-1
 407 1198 l 2,19,20
 407 1275 407 1275 382 1288 c 1,21,22
 365 1300 365 1300 310 1303 c 1,23,-1
 251 1305 l 1,24,-1
 251 1358 l 1,25,-1
 372 1372 l 1,26,-1
 417 1380 l 2,27,28
 442 1384 442 1384 493 1395 c 1,29,-1
 544 1395 l 1,0,-1
EndSplineSet
EndChar

StartChar: ordmasculine
Encoding: 186 186 125
Width: 661
GlyphClass: 2
Flags: W
LayerCount: 2
Fore
SplineSet
638 1149 m 0,0,1
 638 1010 638 1010 542 905 c 1,2,3
 445 796 445 796 306 796 c 0,4,5
 179 796 179 796 106 875 c 0,6,7
 32 955 32 955 32 1081 c 0,8,9
 32 1220 32 1220 126 1326 c 1,10,11
 223 1437 223 1437 361 1437 c 0,12,13
 491 1437 491 1437 564 1358 c 0,14,15
 638 1278 638 1278 638 1149 c 0,0,1
548 1079 m 0,16,17
 548 1191 548 1191 484 1282 c 1,18,19
 413 1386 413 1386 307 1386 c 0,20,21
 217 1386 217 1386 166 1318 c 1,22,23
 121 1256 121 1256 121 1163 c 0,24,25
 121 1051 121 1051 188 957 c 0,26,27
 262 853 262 853 369 853 c 0,28,29
 455 853 455 853 505 925 c 1,30,31
 548 989 548 989 548 1079 c 0,16,17
EndSplineSet
EndChar

StartChar: guillemotright
Encoding: 187 187 126
Width: 737
GlyphClass: 2
Flags: W
LayerCount: 2
Fore
SplineSet
125 858 m 1,0,-1
 188 895 l 1,1,-1
 387 535 l 1,2,-1
 166 182 l 1,3,-1
 104 217 l 1,4,-1
 231 535 l 1,5,-1
 125 858 l 1,0,-1
377 858 m 1,6,-1
 438 895 l 1,7,-1
 639 535 l 1,8,-1
 416 182 l 1,9,-1
 356 217 l 1,10,-1
 483 535 l 1,11,-1
 377 858 l 1,6,-1
EndSplineSet
EndChar

StartChar: onequarter
Encoding: 188 188 127
Width: 1904
GlyphClass: 2
Flags: W
LayerCount: 2
Fore
SplineSet
544 1395 m 1,0,-1
 544 735 l 2,1,2
 544 653 544 653 570 635 c 0,3,4
 583 627 583 627 615 618 c 0,5,6
 616 618 616 618 624 616 c 1,7,-1
 650 614 l 1,8,-1
 701 614 l 1,9,-1
 701 559 l 1,10,-1
 247 559 l 1,11,-1
 247 614 l 1,12,-1
 300 614 l 1,13,-1
 341 621 l 1,14,15
 378 633 378 633 392 647 c 1,16,17
 407 659 407 659 407 739 c 2,18,-1
 407 1198 l 2,19,20
 407 1275 407 1275 382 1288 c 1,21,22
 365 1300 365 1300 310 1303 c 1,23,-1
 251 1305 l 1,24,-1
 251 1358 l 1,25,-1
 372 1372 l 1,26,-1
 417 1380 l 2,27,28
 442 1384 442 1384 493 1395 c 1,29,-1
 544 1395 l 1,0,-1
1564 1395 m 1,30,-1
 611 0 l 1,31,-1
 493 0 l 1,32,-1
 1443 1395 l 1,33,-1
 1564 1395 l 1,30,-1
1668 836 m 1,34,-1
 1668 311 l 1,35,-1
 1863 311 l 1,36,-1
 1828 223 l 1,37,-1
 1668 223 l 1,38,-1
 1668 180 l 2,39,40
 1668 77 1668 77 1707 61 c 1,41,-1
 1742 55 l 1,42,-1
 1791 53 l 1,43,-1
 1791 0 l 1,44,-1
 1408 0 l 1,45,-1
 1408 53 l 1,46,-1
 1457 55 l 2,47,48
 1513 57 1513 57 1525 104 c 0,49,50
 1531 129 1531 129 1531 180 c 2,51,-1
 1531 223 l 1,52,-1
 1138 223 l 1,53,-1
 1113 285 l 1,54,-1
 1316 539 l 1,55,-1
 1535 836 l 1,56,-1
 1668 836 l 1,34,-1
1531 311 m 1,57,-1
 1531 700 l 1,58,-1
 1371 492 l 1,59,-1
 1230 311 l 1,60,-1
 1531 311 l 1,57,-1
EndSplineSet
EndChar

StartChar: onehalf
Encoding: 189 189 128
Width: 1904
GlyphClass: 2
Flags: W
LayerCount: 2
Fore
SplineSet
544 1395 m 1,0,-1
 544 735 l 2,1,2
 544 653 544 653 570 635 c 0,3,4
 583 627 583 627 615 618 c 0,5,6
 616 618 616 618 624 616 c 1,7,-1
 650 614 l 1,8,-1
 701 614 l 1,9,-1
 701 559 l 1,10,-1
 247 559 l 1,11,-1
 247 614 l 1,12,-1
 300 614 l 1,13,-1
 341 621 l 1,14,15
 378 633 378 633 392 647 c 1,16,17
 407 659 407 659 407 739 c 2,18,-1
 407 1198 l 2,19,20
 407 1275 407 1275 382 1288 c 1,21,22
 365 1300 365 1300 310 1303 c 1,23,-1
 251 1305 l 1,24,-1
 251 1358 l 1,25,-1
 372 1372 l 1,26,-1
 417 1380 l 2,27,28
 442 1384 442 1384 493 1395 c 1,29,-1
 544 1395 l 1,0,-1
1525 1395 m 1,30,-1
 572 0 l 1,31,-1
 454 0 l 1,32,-1
 1404 1395 l 1,33,-1
 1525 1395 l 1,30,-1
1895 240 m 1,34,-1
 1830 0 l 1,35,-1
 1185 0 l 1,36,-1
 1185 98 l 1,37,38
 1248 133 1248 133 1290 159.5 c 128,-1,39
 1332 186 1332 186 1357 205 c 0,40,41
 1363 209 1363 209 1368.5 213 c 128,-1,42
 1374 217 1374 217 1379 221 c 2,43,-1
 1429 262 l 1,44,-1
 1492 319 l 1,45,46
 1656 483 1656 483 1658 623 c 1,47,48
 1658 732 1658 732 1558 766 c 0,49,50
 1529 776 1529 776 1490 776 c 0,51,52
 1390 776 1390 776 1338 719 c 0,53,54
 1320 698 1320 698 1318 674 c 0,55,56
 1318 672 1318 672 1318.5 668 c 128,-1,57
 1319 664 1319 664 1320 659 c 0,58,59
 1321 657 1321 657 1322 654.5 c 128,-1,60
 1323 652 1323 652 1324 649 c 1,61,-1
 1326 647 l 1,62,-1
 1345 625 l 1,63,-1
 1361 598 l 1,64,-1
 1365 580 l 1,65,66
 1365 537 1365 537 1318 516 c 1,67,-1
 1283 508 l 1,68,69
 1220 508 1220 508 1197 573 c 1,70,-1
 1189 616 l 1,71,-1
 1189 618 l 2,72,73
 1189 729 1189 729 1310 801 c 1,74,75
 1398 852 1398 852 1506 852 c 0,76,77
 1692 852 1692 852 1781 739 c 0,78,79
 1826 682 1826 682 1826 608 c 0,80,81
 1826 451 1826 451 1601 270 c 1,82,-1
 1572 248 l 1,83,-1
 1553 236 l 2,84,85
 1552 235 1552 235 1551.5 234 c 128,-1,86
 1551 233 1551 233 1549 231 c 2,87,-1
 1365 115 l 1,88,-1
 1637 115 l 2,89,90
 1738 115 1738 115 1773 147 c 1,91,-1
 1797 182 l 1,92,93
 1801 190 1801 190 1806 199 c 128,-1,94
 1811 208 1811 208 1816 219 c 2,95,-1
 1832 254 l 1,96,-1
 1895 240 l 1,34,-1
EndSplineSet
EndChar

StartChar: threequarters
Encoding: 190 190 129
Width: 1904
GlyphClass: 2
Flags: W
LayerCount: 2
Fore
SplineSet
642 1022 m 1,0,-1
 668 1016 l 2,1,2
 823 981 823 981 863 868 c 0,3,4
 873 841 873 841 873 803 c 0,5,6
 873 665 873 665 726 592 c 0,7,8
 629 543 629 543 494 543 c 0,9,10
 300 543 300 543 206 637 c 1,11,12
 160 680 160 680 160 735 c 0,13,14
 160 797 160 797 214 821 c 1,15,-1
 247 827 l 1,16,17
 308 827 308 827 322 776 c 1,18,-1
 326 754 l 1,19,-1
 326 743 l 1,20,-1
 326 741 l 1,21,-1
 326 739 l 1,22,-1
 316 711 l 1,23,-1
 314 700 l 1,24,25
 314 653 314 653 404 629 c 0,26,27
 446 618 446 618 490 618 c 0,28,29
 662 618 662 618 697 743 c 1,30,-1
 705 801 l 1,31,-1
 705 803 l 2,32,33
 705 944 705 944 566 977 c 0,34,35
 529 985 529 985 492 985 c 2,36,-1
 488 985 l 1,37,-1
 398 979 l 1,38,-1
 398 1053 l 1,39,-1
 429 1051 l 1,40,-1
 472 1049 l 1,41,42
 620 1049 620 1049 658 1145 c 1,43,44
 668 1165 668 1165 668 1196 c 0,45,46
 668 1296 668 1296 570 1325 c 1,47,48
 544 1335 544 1335 507 1335 c 0,49,50
 400 1335 400 1335 367 1282 c 1,51,-1
 359 1257 l 1,52,-1
 359 1255 l 1,53,-1
 359 1253 l 1,54,-1
 369 1219 l 1,55,-1
 373 1208 l 1,56,57
 373 1201 373 1201 376 1188 c 1,58,59
 376 1141 376 1141 324 1126 c 1,60,-1
 298 1122 l 1,61,62
 238 1122 238 1122 220 1180 c 1,63,-1
 216 1208 l 1,64,65
 216 1310 216 1310 335 1372 c 0,66,67
 411 1411 411 1411 511 1411 c 0,68,69
 697 1411 697 1411 781 1311 c 0,70,71
 814 1272 814 1272 820 1227 c 1,72,-1
 822 1206 l 1,73,74
 822 1084 822 1084 675 1032 c 1,75,-1
 642 1022 l 1,0,-1
1629 1395 m 1,76,-1
 677 0 l 1,77,-1
 558 0 l 1,78,-1
 1508 1395 l 1,79,-1
 1629 1395 l 1,76,-1
1680 836 m 1,80,-1
 1680 311 l 1,81,-1
 1875 311 l 1,82,-1
 1840 223 l 1,83,-1
 1680 223 l 1,84,-1
 1680 180 l 2,85,86
 1680 77 1680 77 1719 61 c 1,87,-1
 1754 55 l 1,88,-1
 1803 53 l 1,89,-1
 1803 0 l 1,90,-1
 1420 0 l 1,91,-1
 1420 53 l 1,92,-1
 1469 55 l 2,93,94
 1524 57 1524 57 1537 104 c 0,95,96
 1543 129 1543 129 1543 180 c 2,97,-1
 1543 223 l 1,98,-1
 1150 223 l 1,99,-1
 1125 285 l 1,100,-1
 1328 539 l 1,101,-1
 1547 836 l 1,102,-1
 1680 836 l 1,80,-1
1543 311 m 1,103,-1
 1543 700 l 1,104,-1
 1305 391 l 1,105,-1
 1252 324 l 1,106,-1
 1242 311 l 1,107,-1
 1543 311 l 1,103,-1
EndSplineSet
EndChar

StartChar: questiondown
Encoding: 191 191 130
Width: 917
GlyphClass: 2
Flags: W
LayerCount: 2
Fore
SplineSet
603 886 m 0,0,1
 603 836 603 836 568 801 c 256,2,3
 533 766 533 766 483 766 c 256,4,5
 433 766 433 766 398 801 c 0,6,7
 364 835 364 835 364 886 c 0,8,9
 364 936 364 936 398 970 c 0,10,11
 433 1005 433 1005 481 1005 c 0,12,13
 506 1005 506 1005 528.5 996 c 128,-1,14
 551 987 551 987 567.5 971 c 128,-1,15
 584 955 584 955 593.5 933 c 128,-1,16
 603 911 603 911 603 886 c 0,0,1
782 -180 m 1,17,18
 511 -331 511 -331 277 -331 c 0,19,20
 156 -331 156 -331 80 -280 c 1,21,22
 -10 -222 -10 -222 -10 -106 c 0,23,24
 -10 -11 -10 -11 58 84 c 1,25,26
 78 110 78 110 113 148 c 128,-1,27
 148 186 148 186 199 235 c 0,28,29
 322 352 322 352 367 427 c 0,30,31
 430 532 430 532 431 670 c 1,32,-1
 531 670 l 1,33,34
 530 592 530 592 519 527.5 c 128,-1,35
 508 463 508 463 488 409 c 1,36,37
 450 312 450 312 350 182 c 1,38,39
 208 -5 208 -5 208 -102 c 0,40,41
 208 -141 208 -141 221 -173 c 128,-1,42
 234 -205 234 -205 257.5 -227.5 c 128,-1,43
 281 -250 281 -250 314 -262 c 128,-1,44
 347 -274 347 -274 387 -274 c 0,45,46
 532 -274 532 -274 626 -144 c 0,47,48
 710 -29 710 -29 716 122 c 1,49,-1
 782 122 l 1,50,-1
 782 -180 l 1,17,18
EndSplineSet
EndChar

StartChar: Agrave
Encoding: 192 192 131
Width: 1392
GlyphClass: 2
Flags: W
LayerCount: 2
Fore
SplineSet
753 1542 m 1,0,-1
 468 1602 l 1,1,2
 343 1627 343 1627 341 1704 c 1,3,4
 341 1761 341 1761 390 1776 c 1,5,-1
 413 1780 l 1,6,7
 477 1780 477 1780 568 1710 c 1,8,-1
 763 1571 l 1,9,-1
 753 1542 l 1,0,-1
759 1395 m 1,10,-1
 1193 297 l 2,11,12
 1212 249 1212 249 1226.5 215.5 c 128,-1,13
 1241 182 1241 182 1252 162 c 0,14,15
 1291 94 1291 94 1363 76 c 1,16,-1
 1365 76 l 1,17,18
 1376 73 1376 73 1390.5 70 c 128,-1,19
 1405 67 1405 67 1424 63 c 1,20,-1
 1424 0 l 1,21,-1
 849 0 l 1,22,-1
 849 63 l 1,23,-1
 908 74 l 2,24,25
 953 82 953 82 968 94 c 1,26,27
 1009 119 1009 119 1011 166 c 1,28,29
 1011 191 1011 191 992 244 c 1,30,-1
 988 254 l 1,31,-1
 886 518 l 1,32,-1
 357 518 l 1,33,-1
 292 342 l 1,34,35
 253 244 253 244 253 190 c 0,36,37
 253 130 253 130 304 96 c 1,38,39
 329 83 329 83 386 72 c 2,40,-1
 435 63 l 1,41,-1
 435 0 l 1,42,-1
 -114 0 l 1,43,-1
 -114 63 l 1,44,-1
 -91 68 l 1,45,46
 5 86 5 86 54 147 c 1,47,-1
 62 158 l 1,48,49
 88 192 88 192 126.5 275 c 128,-1,50
 165 358 165 358 216 492 c 1,51,-1
 568 1395 l 1,52,-1
 759 1395 l 1,10,-1
388 606 m 1,53,-1
 849 606 l 1,54,-1
 615 1221 l 1,55,-1
 388 606 l 1,53,-1
EndSplineSet
EndChar

StartChar: multiply
Encoding: 215 215 132
Width: 1228
GlyphClass: 2
Flags: W
LayerCount: 2
Fore
SplineSet
1024 1237 m 1,0,-1
 1137 1124 l 1,1,-1
 733 721 l 1,2,-1
 1137 317 l 1,3,-1
 1024 205 l 1,4,-1
 621 608 l 1,5,-1
 217 205 l 1,6,-1
 104 317 l 1,7,-1
 508 721 l 1,8,-1
 104 1124 l 1,9,-1
 217 1237 l 1,10,-1
 621 834 l 1,11,-1
 1024 1237 l 1,0,-1
EndSplineSet
EndChar

StartChar: agrave
Encoding: 224 224 133
Width: 960
GlyphClass: 2
Flags: W
LayerCount: 2
Fore
SplineSet
948 249 m 1,0,1
 796 100 796 100 700 100 c 0,2,3
 614 100 614 100 614 196 c 2,4,-1
 614 344 l 1,5,6
 376 100 376 100 239 100 c 0,7,8
 161 100 161 100 108 162 c 0,9,10
 58 221 58 221 58 301 c 0,11,12
 58 519 58 519 614 769 c 1,13,-1
 614 889 l 2,14,15
 614 946 614 946 580.5 981 c 128,-1,16
 547 1016 547 1016 490 1016 c 0,17,18
 377 1016 377 1016 299 901 c 0,19,20
 235 806 235 806 222 681 c 1,21,-1
 155 681 l 1,22,-1
 155 921 l 1,23,24
 385 1073 385 1073 588 1073 c 0,25,26
 636 1073 636 1073 670 1062.5 c 128,-1,27
 704 1052 704 1052 725.5 1030 c 128,-1,28
 747 1008 747 1008 756.5 973 c 128,-1,29
 766 938 766 938 766 889 c 2,30,-1
 766 264 l 2,31,32
 766 219 766 219 807 219 c 0,33,34
 847 219 847 219 948 311 c 1,35,-1
 948 249 l 1,0,1
625 688 m 1,36,37
 478 658 478 658 364 585 c 1,38,39
 210 489 210 489 210 368 c 0,40,41
 210 305 210 305 248 268.5 c 128,-1,42
 286 232 286 232 349 232 c 0,43,44
 493 232 493 232 568 398 c 0,45,46
 624 523 624 523 625 688 c 1,36,37
595 1214 m 1,47,-1
 559 1193 l 1,48,-1
 420 1349 l 2,49,50
 354 1422 354 1422 354 1446 c 0,51,52
 354 1508 354 1508 414 1508 c 0,53,54
 449 1508 449 1508 481 1445 c 2,55,-1
 595 1214 l 1,47,-1
EndSplineSet
EndChar

StartChar: acircumflex
Encoding: 226 226 134
Width: 960
GlyphClass: 2
Flags: W
LayerCount: 2
Fore
SplineSet
948 249 m 1,0,1
 796 100 796 100 700 100 c 0,2,3
 614 100 614 100 614 196 c 2,4,-1
 614 344 l 1,5,6
 376 100 376 100 239 100 c 0,7,8
 161 100 161 100 108 162 c 0,9,10
 58 221 58 221 58 301 c 0,11,12
 58 519 58 519 614 769 c 1,13,-1
 614 889 l 2,14,15
 614 946 614 946 580.5 981 c 128,-1,16
 547 1016 547 1016 490 1016 c 0,17,18
 377 1016 377 1016 299 901 c 0,19,20
 235 806 235 806 222 681 c 1,21,-1
 155 681 l 1,22,-1
 155 921 l 1,23,24
 385 1073 385 1073 588 1073 c 0,25,26
 636 1073 636 1073 670 1062.5 c 128,-1,27
 704 1052 704 1052 725.5 1030 c 128,-1,28
 747 1008 747 1008 756.5 973 c 128,-1,29
 766 938 766 938 766 889 c 2,30,-1
 766 264 l 2,31,32
 766 219 766 219 807 219 c 0,33,34
 847 219 847 219 948 311 c 1,35,-1
 948 249 l 1,0,1
625 688 m 1,36,37
 478 658 478 658 364 585 c 1,38,39
 210 489 210 489 210 368 c 0,40,41
 210 305 210 305 248 268.5 c 128,-1,42
 286 232 286 232 349 232 c 0,43,44
 493 232 493 232 568 398 c 0,45,46
 624 523 624 523 625 688 c 1,36,37
754 1234 m 1,47,-1
 688 1234 l 1,48,-1
 474 1360 l 1,49,-1
 263 1234 l 1,50,-1
 195 1234 l 1,51,-1
 474 1476 l 1,52,-1
 754 1234 l 1,47,-1
EndSplineSet
EndChar

StartChar: ccedilla
Encoding: 231 231 135
Width: 1515
GlyphClass: 2
Flags: W
LayerCount: 2
Fore
SplineSet
857 0 m 1,0,-1
 830 -88 l 1,1,-1
 855 -86 l 1,2,-1
 880 -84 l 1,3,4
 1019 -84 1019 -84 1052 -184 c 1,5,-1
 1060 -236 l 1,6,7
 1060 -353 1060 -353 957 -393 c 0,8,9
 915 -410 915 -410 871 -410 c 0,10,11
 751 -410 751 -410 693 -344 c 0,12,13
 673 -321 673 -321 673 -295 c 0,14,15
 673 -257 673 -257 712 -246 c 0,16,17
 722 -244 722 -244 724 -244 c 0,18,19
 768 -244 768 -244 787 -293 c 2,20,-1
 791 -303 l 1,21,22
 811 -342 811 -342 839 -350 c 1,23,-1
 841 -350 l 1,24,-1
 841 -352 l 1,25,-1
 843 -352 l 1,26,-1
 867 -354 l 1,27,28
 930 -354 930 -354 953 -289 c 1,29,-1
 961 -246 l 1,30,-1
 961 -244 l 2,31,32
 961 -139 961 -139 839 -139 c 0,33,34
 803 -139 803 -139 742 -160 c 1,35,-1
 794 0 l 1,36,-1
 857 0 l 1,0,-1
1342 1376 m 1,37,-1
 1441 883 l 1,38,-1
 1375 883 l 1,39,-1
 1277 1053 l 1,40,-1
 1267 1069 l 1,41,-1
 1265 1071 l 1,42,-1
 1265 1073 l 1,43,-1
 1248 1098 l 1,44,45
 1127 1272 1127 1272 937 1313 c 1,46,47
 898 1323 898 1323 849 1323 c 0,48,49
 636 1323 636 1323 501 1128 c 0,50,51
 378 952 378 952 378 692 c 0,52,53
 378 402 378 402 523 242 c 1,54,-1
 527 238 l 1,55,56
 630 123 630 123 789 84 c 0,57,58
 841 72 841 72 890 72 c 0,59,60
 959 72 959 72 1037 96 c 0,61,62
 1147 131 1147 131 1228 193 c 1,63,-1
 1244 205 l 1,64,65
 1267 224 1267 224 1288 243.5 c 128,-1,66
 1309 263 1309 263 1328 285 c 0,67,68
 1344 302 1344 302 1360.5 324.5 c 128,-1,69
 1377 347 1377 347 1396 375 c 1,70,-1
 1484 326 l 1,71,72
 1258 -25 1258 -25 859 -27 c 1,73,74
 544 -27 544 -27 337 184 c 1,75,76
 136 386 136 386 136 690 c 0,77,78
 136 991 136 991 329 1196 c 1,79,80
 464 1342 464 1342 810 1421 c 1,81,-1
 660 1399 l 1,82,83
 735 1421 735 1421 810 1421 c 0,84,85
 1060 1421 1060 1421 1226 1294 c 1,86,-1
 1232 1290 l 1,87,-1
 1275 1376 l 1,88,-1
 1342 1376 l 1,37,-1
EndSplineSet
EndChar

StartChar: egrave
Encoding: 232 232 136
Width: 1064
GlyphClass: 2
Flags: W
LayerCount: 2
Fore
SplineSet
732 1155 m 1,0,-1
 448 1214 l 2,1,2
 322 1241 322 1241 321 1317 c 0,3,4
 321 1374 321 1374 370 1389 c 1,5,-1
 392 1393 l 1,6,7
 457 1393 457 1393 548 1323 c 1,8,-1
 743 1184 l 1,9,-1
 732 1155 l 1,0,-1
976 270 m 1,10,-1
 1044 238 l 1,11,12
 908 9 908 9 683 -14 c 0,13,14
 667 -16 667 -16 651.5 -17 c 128,-1,15
 636 -18 636 -18 620 -18 c 0,16,17
 386 -18 386 -18 249 137 c 0,18,19
 120 282 120 282 114 506 c 1,20,21
 114 758 114 758 286 903 c 0,22,23
 416 1012 416 1012 597 1012 c 0,24,25
 818 1012 818 1012 947 862 c 1,26,-1
 964 844 l 1,27,28
 1042 745 1042 745 1044 592 c 1,29,-1
 333 592 l 1,30,31
 333 384 333 384 374 285 c 1,32,33
 459 74 459 74 681 74 c 0,34,35
 867 74 867 74 976 270 c 1,10,-1
339 674 m 1,36,-1
 831 674 l 1,37,-1
 831 680 l 1,38,-1
 826 729 l 1,39,-1
 818 766 l 1,40,-1
 814 778 l 1,41,42
 755 930 755 930 589 930 c 0,43,44
 464 930 464 930 398 840 c 1,45,-1
 388 825 l 1,46,47
 374 802 374 802 364 780 c 1,48,49
 359 766 359 766 354 747 c 128,-1,50
 349 728 349 728 345 705 c 1,51,-1
 343 702 l 1,52,-1
 343 700 l 1,53,-1
 343 696 l 1,54,-1
 339 674 l 1,36,-1
EndSplineSet
EndChar

StartChar: eacute
Encoding: 233 233 137
Width: 1064
GlyphClass: 2
Flags: W
LayerCount: 2
Fore
SplineSet
482 1155 m 1,0,-1
 472 1184 l 1,1,-1
 667 1323 l 1,2,3
 758 1393 758 1393 822 1393 c 0,4,5
 876 1393 876 1393 890 1339 c 1,6,-1
 894 1317 l 1,7,8
 894 1241 894 1241 771 1214 c 1,9,-1
 767 1214 l 1,10,-1
 482 1155 l 1,0,-1
976 270 m 1,11,-1
 1044 238 l 1,12,13
 908 9 908 9 683 -14 c 0,14,15
 667 -16 667 -16 651.5 -17 c 128,-1,16
 636 -18 636 -18 620 -18 c 0,17,18
 386 -18 386 -18 249 137 c 0,19,20
 120 282 120 282 114 506 c 1,21,22
 114 758 114 758 286 903 c 0,23,24
 416 1012 416 1012 597 1012 c 0,25,26
 818 1012 818 1012 947 862 c 1,27,-1
 964 844 l 1,28,29
 1042 745 1042 745 1044 592 c 1,30,-1
 333 592 l 1,31,32
 333 384 333 384 374 285 c 1,33,34
 459 74 459 74 681 74 c 0,35,36
 867 74 867 74 976 270 c 1,11,-1
339 674 m 1,37,-1
 831 674 l 1,38,-1
 831 680 l 1,39,-1
 826 729 l 1,40,-1
 818 766 l 1,41,-1
 814 778 l 1,42,43
 755 930 755 930 589 930 c 0,44,45
 464 930 464 930 398 840 c 1,46,-1
 388 825 l 1,47,48
 374 802 374 802 364 780 c 1,49,50
 359 766 359 766 354 747 c 128,-1,51
 349 728 349 728 345 705 c 1,52,-1
 343 702 l 1,53,-1
 343 700 l 1,54,-1
 343 696 l 1,55,-1
 339 674 l 1,37,-1
EndSplineSet
EndChar

StartChar: ecircumflex
Encoding: 234 234 138
Width: 1064
GlyphClass: 2
Flags: W
LayerCount: 2
Fore
SplineSet
593 1395 m 1,0,-1
 884 1204 l 1,1,-1
 855 1153 l 1,2,-1
 593 1245 l 1,3,-1
 329 1153 l 1,4,-1
 302 1204 l 1,5,-1
 593 1395 l 1,0,-1
976 270 m 1,6,-1
 1044 238 l 1,7,8
 908 9 908 9 683 -14 c 0,9,10
 667 -16 667 -16 651.5 -17 c 128,-1,11
 636 -18 636 -18 620 -18 c 0,12,13
 386 -18 386 -18 249 137 c 0,14,15
 120 282 120 282 114 506 c 1,16,17
 114 758 114 758 286 903 c 0,18,19
 416 1012 416 1012 597 1012 c 0,20,21
 818 1012 818 1012 947 862 c 1,22,-1
 964 844 l 1,23,24
 1042 745 1042 745 1044 592 c 1,25,-1
 333 592 l 1,26,27
 333 384 333 384 374 285 c 1,28,29
 459 74 459 74 681 74 c 0,30,31
 867 74 867 74 976 270 c 1,6,-1
339 674 m 1,32,-1
 831 674 l 1,33,-1
 831 680 l 1,34,-1
 826 729 l 1,35,-1
 818 766 l 1,36,-1
 814 778 l 1,37,38
 755 930 755 930 589 930 c 0,39,40
 464 930 464 930 398 840 c 1,41,-1
 388 825 l 1,42,43
 374 802 374 802 364 780 c 1,44,45
 359 766 359 766 354 747 c 128,-1,46
 349 728 349 728 345 705 c 1,47,-1
 343 702 l 1,48,-1
 343 700 l 1,49,-1
 343 696 l 1,50,-1
 339 674 l 1,32,-1
EndSplineSet
EndChar

StartChar: edieresis
Encoding: 235 235 139
Width: 1064
GlyphClass: 2
Flags: W
LayerCount: 2
Fore
SplineSet
429 1395 m 0,0,1
 497 1395 497 1395 532 1333 c 1,2,3
 548 1308 548 1308 548 1274 c 0,4,5
 548 1201 548 1201 482 1167 c 0,6,7
 456 1153 456 1153 427 1153 c 0,8,9
 355 1153 355 1153 321 1219 c 1,10,-1
 319 1221 l 1,11,12
 306 1243 306 1243 306 1274 c 0,13,14
 306 1351 306 1351 376 1382 c 1,15,16
 398 1395 398 1395 429 1395 c 0,0,1
763 1395 m 0,17,18
 830 1395 830 1395 865 1333 c 1,19,20
 882 1307 882 1307 882 1274 c 0,21,22
 882 1201 882 1201 816 1167 c 0,23,24
 790 1153 790 1153 761 1153 c 0,25,26
 688 1153 688 1153 654 1219 c 1,27,-1
 652 1221 l 1,28,29
 640 1245 640 1245 640 1274 c 0,30,31
 640 1351 640 1351 710 1382 c 1,32,33
 732 1395 732 1395 763 1395 c 0,17,18
976 270 m 1,34,-1
 1044 238 l 1,35,36
 908 9 908 9 683 -14 c 0,37,38
 667 -16 667 -16 651.5 -17 c 128,-1,39
 636 -18 636 -18 620 -18 c 0,40,41
 386 -18 386 -18 249 137 c 0,42,43
 120 282 120 282 114 506 c 1,44,45
 114 758 114 758 286 903 c 0,46,47
 416 1012 416 1012 597 1012 c 0,48,49
 818 1012 818 1012 947 862 c 1,50,-1
 964 844 l 1,51,52
 1042 745 1042 745 1044 592 c 1,53,-1
 333 592 l 1,54,55
 333 384 333 384 374 285 c 1,56,57
 459 74 459 74 681 74 c 0,58,59
 867 74 867 74 976 270 c 1,34,-1
339 674 m 1,60,-1
 831 674 l 1,61,-1
 831 680 l 1,62,-1
 826 729 l 1,63,-1
 818 766 l 1,64,-1
 814 778 l 1,65,66
 755 930 755 930 589 930 c 0,67,68
 464 930 464 930 398 840 c 1,69,-1
 388 825 l 1,70,71
 374 802 374 802 364 780 c 1,72,73
 359 766 359 766 354 747 c 128,-1,74
 349 728 349 728 345 705 c 1,75,-1
 343 702 l 1,76,-1
 343 700 l 1,77,-1
 343 696 l 1,78,-1
 339 674 l 1,60,-1
EndSplineSet
EndChar

StartChar: icircumflex
Encoding: 238 238 140
Width: 614
GlyphClass: 2
Flags: W
LayerCount: 2
Fore
SplineSet
315 1395 m 1,0,-1
 606 1204 l 1,1,-1
 577 1153 l 1,2,-1
 315 1245 l 1,3,-1
 51 1153 l 1,4,-1
 24 1204 l 1,5,-1
 315 1395 l 1,0,-1
422 993 m 1,6,-1
 422 236 l 2,7,8
 422 106 422 106 500 76 c 1,9,-1
 502 76 l 1,10,11
 512 72 512 72 523.5 69.5 c 128,-1,12
 535 67 535 67 549 66 c 2,13,-1
 598 61 l 1,14,-1
 598 0 l 1,15,-1
 49 0 l 1,16,-1
 49 61 l 1,17,-1
 100 66 l 1,18,19
 203 78 203 78 221 172 c 1,20,-1
 227 236 l 1,21,-1
 227 717 l 2,22,23
 227 834 227 834 176 864 c 0,24,25
 151 879 151 879 108 885 c 0,26,27
 103 886 103 886 99 886.5 c 128,-1,28
 95 887 95 887 92 887 c 2,29,-1
 51 891 l 1,30,-1
 51 952 l 1,31,-1
 172 965 l 2,32,33
 206 969 206 969 250.5 976 c 128,-1,34
 295 983 295 983 352 993 c 1,35,-1
 422 993 l 1,6,-1
EndSplineSet
EndChar

StartChar: idieresis
Encoding: 239 239 141
Width: 614
GlyphClass: 2
Flags: W
LayerCount: 2
Fore
SplineSet
147 1395 m 0,0,1
 215 1395 215 1395 250 1333 c 1,2,3
 266 1308 266 1308 266 1274 c 0,4,5
 266 1202 266 1202 201 1167 c 1,6,7
 171 1153 171 1153 145 1153 c 0,8,9
 73 1153 73 1153 39 1219 c 1,10,-1
 37 1221 l 1,11,12
 24 1243 24 1243 24 1274 c 0,13,14
 24 1351 24 1351 94 1382 c 1,15,16
 119 1395 119 1395 147 1395 c 0,0,1
481 1395 m 0,17,18
 548 1395 548 1395 583 1333 c 1,19,20
 600 1307 600 1307 600 1274 c 0,21,22
 600 1201 600 1201 534 1167 c 0,23,24
 508 1153 508 1153 479 1153 c 0,25,26
 407 1153 407 1153 373 1219 c 1,27,-1
 370 1221 l 1,28,29
 358 1245 358 1245 358 1274 c 0,30,31
 358 1351 358 1351 428 1382 c 1,32,33
 450 1395 450 1395 481 1395 c 0,17,18
422 993 m 1,34,-1
 422 236 l 2,35,36
 422 106 422 106 500 76 c 1,37,-1
 502 76 l 1,38,39
 512 72 512 72 523.5 69.5 c 128,-1,40
 535 67 535 67 549 66 c 2,41,-1
 598 61 l 1,42,-1
 598 0 l 1,43,-1
 49 0 l 1,44,-1
 49 61 l 1,45,-1
 100 66 l 1,46,47
 203 78 203 78 221 172 c 1,48,-1
 227 236 l 1,49,-1
 227 717 l 2,50,51
 227 834 227 834 176 864 c 0,52,53
 151 879 151 879 108 885 c 0,54,55
 103 886 103 886 99 886.5 c 128,-1,56
 95 887 95 887 92 887 c 2,57,-1
 51 891 l 1,58,-1
 51 952 l 1,59,-1
 172 965 l 2,60,61
 206 969 206 969 250.5 976 c 128,-1,62
 295 983 295 983 352 993 c 1,63,-1
 422 993 l 1,34,-1
EndSplineSet
EndChar

StartChar: ocircumflex
Encoding: 244 244 142
Width: 1146
GlyphClass: 2
Flags: W
LayerCount: 2
Fore
SplineSet
613 1395 m 1,0,-1
 904 1204 l 1,1,-1
 876 1153 l 1,2,-1
 613 1245 l 1,3,-1
 349 1153 l 1,4,-1
 323 1204 l 1,5,-1
 613 1395 l 1,0,-1
609 1012 m 0,6,7
 857 1012 857 1012 992 852 c 1,8,9
 1109 709 1109 709 1115 508 c 1,10,-1
 1115 489 l 2,11,12
 1115 221 1115 221 931 80 c 1,13,14
 800 -18 800 -18 618 -18 c 0,15,16
 342 -18 342 -18 206 178 c 0,17,18
 114 309 114 309 114 494 c 1,19,-1
 116 545 l 1,20,21
 134 737 134 737 247 868 c 1,22,-1
 257 879 l 1,23,24
 386 1012 386 1012 609 1012 c 0,6,7
611 930 m 0,25,26
 448 930 448 930 370 754 c 0,27,28
 323 646 323 646 323 498 c 0,29,30
 323 172 323 172 503 88 c 1,31,32
 552 63 552 63 620 63 c 0,33,34
 805 63 805 63 876 264 c 1,35,36
 906 354 906 354 906 479 c 0,37,38
 906 790 906 790 747 891 c 0,39,40
 687 930 687 930 611 930 c 0,25,26
EndSplineSet
EndChar

StartChar: divide
Encoding: 247 247 143
Width: 1228
GlyphClass: 2
Flags: W
LayerCount: 2
Fore
SplineSet
676 440 m 0,0,1
 749 440 749 440 786 373 c 0,2,3
 801 346 801 346 801 313 c 0,4,5
 801 235 801 235 731 201 c 1,6,7
 704 186 704 186 674 186 c 0,8,9
 595 186 595 186 561 256 c 0,10,11
 547 286 547 286 547 315 c 0,12,13
 547 393 547 393 618 428 c 1,14,15
 645 440 645 440 676 440 c 0,0,1
676 1260 m 0,16,17
 748 1260 748 1260 786 1192 c 1,18,-1
 786 1190 l 1,19,20
 801 1163 801 1163 801 1133 c 0,21,22
 801 1054 801 1054 731 1020 c 0,23,24
 701 1006 701 1006 674 1006 c 0,25,26
 595 1006 595 1006 561 1075 c 1,27,-1
 561 1077 l 1,28,29
 547 1107 547 1107 547 1135 c 0,30,31
 547 1210 547 1210 616 1245 c 1,32,33
 643 1260 643 1260 676 1260 c 0,16,17
1190 803 m 1,34,-1
 1190 643 l 1,35,-1
 157 643 l 1,36,-1
 157 803 l 1,37,-1
 1190 803 l 1,34,-1
EndSplineSet
EndChar

StartChar: ugrave
Encoding: 249 249 144
Width: 1392
GlyphClass: 2
Flags: W
LayerCount: 2
Fore
SplineSet
583 1155 m 1,0,-1
 573 1184 l 1,1,-1
 768 1323 l 1,2,3
 859 1393 859 1393 923 1393 c 0,4,5
 976 1393 976 1393 991 1339 c 1,6,-1
 995 1317 l 1,7,8
 995 1241 995 1241 872 1214 c 1,9,-1
 868 1214 l 1,10,-1
 583 1155 l 1,0,-1
985 0 m 1,11,-1
 985 172 l 1,12,13
 823 40 823 40 702 2 c 1,14,15
 628 -18 628 -18 550 -18 c 0,16,17
 393 -18 393 -18 311 76 c 1,18,19
 245 149 245 149 245 289 c 2,20,-1
 245 717 l 2,21,22
 245 838 245 838 188 868 c 0,23,24
 159 883 159 883 110 887 c 2,25,-1
 61 891 l 1,26,-1
 61 952 l 1,27,-1
 137 958 l 2,28,29
 219 965 219 965 272 973 c 0,30,31
 292 976 292 976 316.5 981 c 128,-1,32
 341 986 341 986 370 993 c 1,33,-1
 440 993 l 1,34,-1
 440 305 l 2,35,36
 440 106 440 106 581 84 c 1,37,-1
 626 80 l 1,38,39
 779 80 779 80 985 260 c 1,40,-1
 985 717 l 2,41,42
 985 838 985 838 927 868 c 1,43,-1
 925 868 l 1,44,45
 899 883 899 883 849 887 c 2,46,-1
 800 891 l 1,47,-1
 800 952 l 1,48,-1
 913 961 l 1,49,-1
 1013 973 l 1,50,51
 1049 979 1049 979 1099 991 c 1,52,-1
 1101 991 l 1,53,-1
 1110 993 l 1,54,-1
 1179 993 l 1,55,-1
 1179 236 l 2,56,57
 1179 103 1179 103 1265 74 c 1,58,-1
 1306 66 l 1,59,-1
 1357 61 l 1,60,-1
 1357 0 l 1,61,-1
 985 0 l 1,11,-1
EndSplineSet
EndChar

StartChar: ucircumflex
Encoding: 251 251 145
Width: 1392
GlyphClass: 2
Flags: W
LayerCount: 2
Fore
SplineSet
704 1395 m 1,0,-1
 995 1204 l 1,1,-1
 966 1153 l 1,2,-1
 704 1245 l 1,3,-1
 440 1153 l 1,4,-1
 413 1204 l 1,5,-1
 704 1395 l 1,0,-1
985 0 m 1,6,-1
 985 172 l 1,7,8
 823 40 823 40 702 2 c 1,9,10
 628 -18 628 -18 550 -18 c 0,11,12
 393 -18 393 -18 311 76 c 1,13,14
 245 149 245 149 245 289 c 2,15,-1
 245 717 l 2,16,17
 245 838 245 838 188 868 c 0,18,19
 159 883 159 883 110 887 c 2,20,-1
 61 891 l 1,21,-1
 61 952 l 1,22,-1
 137 958 l 2,23,24
 219 965 219 965 272 973 c 0,25,26
 292 976 292 976 316.5 981 c 128,-1,27
 341 986 341 986 370 993 c 1,28,-1
 440 993 l 1,29,-1
 440 305 l 2,30,31
 440 106 440 106 581 84 c 1,32,-1
 626 80 l 1,33,34
 779 80 779 80 985 260 c 1,35,-1
 985 717 l 2,36,37
 985 838 985 838 927 868 c 1,38,-1
 925 868 l 1,39,40
 899 883 899 883 849 887 c 2,41,-1
 800 891 l 1,42,-1
 800 952 l 1,43,-1
 913 961 l 1,44,-1
 1013 973 l 1,45,46
 1049 979 1049 979 1099 991 c 1,47,-1
 1101 991 l 1,48,-1
 1110 993 l 1,49,-1
 1179 993 l 1,50,-1
 1179 236 l 2,51,52
 1179 103 1179 103 1265 74 c 1,53,-1
 1306 66 l 1,54,-1
 1357 61 l 1,55,-1
 1357 0 l 1,56,-1
 985 0 l 1,6,-1
EndSplineSet
EndChar

StartChar: udieresis
Encoding: 252 252 146
Width: 1392
GlyphClass: 2
Flags: W
LayerCount: 2
Fore
SplineSet
544 1395 m 0,0,1
 612 1395 612 1395 647 1333 c 1,2,3
 663 1308 663 1308 663 1274 c 0,4,5
 663 1202 663 1202 598 1167 c 1,6,7
 568 1153 568 1153 542 1153 c 0,8,9
 470 1153 470 1153 436 1219 c 1,10,-1
 434 1221 l 1,11,12
 421 1243 421 1243 421 1274 c 0,13,14
 421 1351 421 1351 491 1382 c 1,15,16
 516 1395 516 1395 544 1395 c 0,0,1
878 1395 m 0,17,18
 946 1395 946 1395 981 1333 c 1,19,20
 997 1308 997 1308 997 1274 c 0,21,22
 997 1201 997 1201 931 1167 c 0,23,24
 905 1153 905 1153 876 1153 c 0,25,26
 804 1153 804 1153 770 1219 c 1,27,-1
 768 1221 l 1,28,29
 755 1243 755 1243 755 1274 c 0,30,31
 755 1351 755 1351 825 1382 c 1,32,33
 847 1395 847 1395 878 1395 c 0,17,18
985 0 m 1,34,-1
 985 172 l 1,35,36
 823 40 823 40 702 2 c 1,37,38
 628 -18 628 -18 550 -18 c 0,39,40
 393 -18 393 -18 311 76 c 1,41,42
 245 149 245 149 245 289 c 2,43,-1
 245 717 l 2,44,45
 245 838 245 838 188 868 c 0,46,47
 159 883 159 883 110 887 c 2,48,-1
 61 891 l 1,49,-1
 61 952 l 1,50,-1
 137 958 l 2,51,52
 219 965 219 965 272 973 c 0,53,54
 292 976 292 976 316.5 981 c 128,-1,55
 341 986 341 986 370 993 c 1,56,-1
 440 993 l 1,57,-1
 440 305 l 2,58,59
 440 106 440 106 581 84 c 1,60,-1
 626 80 l 1,61,62
 779 80 779 80 985 260 c 1,63,-1
 985 717 l 2,64,65
 985 838 985 838 927 868 c 1,66,-1
 925 868 l 1,67,68
 899 883 899 883 849 887 c 2,69,-1
 800 891 l 1,70,-1
 800 952 l 1,71,-1
 913 961 l 1,72,-1
 1013 973 l 1,73,74
 1049 979 1049 979 1099 991 c 1,75,-1
 1101 991 l 1,76,-1
 1110 993 l 1,77,-1
 1179 993 l 1,78,-1
 1179 236 l 2,79,80
 1179 103 1179 103 1265 74 c 1,81,-1
 1306 66 l 1,82,-1
 1357 61 l 1,83,-1
 1357 0 l 1,84,-1
 985 0 l 1,34,-1
EndSplineSet
EndChar

StartChar: ydieresis
Encoding: 255 255 147
Width: 1105
GlyphClass: 2
Flags: W
LayerCount: 2
Fore
SplineSet
371 1397 m 0,0,1
 439 1397 439 1397 474 1335 c 1,2,3
 490 1310 490 1310 490 1276 c 0,4,5
 490 1204 490 1204 425 1169 c 1,6,7
 395 1155 395 1155 369 1155 c 0,8,9
 297 1155 297 1155 263 1221 c 1,10,-1
 261 1223 l 1,11,12
 248 1245 248 1245 248 1276 c 0,13,14
 248 1353 248 1353 318 1384 c 1,15,16
 343 1397 343 1397 371 1397 c 0,0,1
705 1397 m 0,17,18
 772 1397 772 1397 807 1335 c 1,19,20
 824 1309 824 1309 824 1276 c 0,21,22
 824 1203 824 1203 758 1169 c 0,23,24
 732 1155 732 1155 703 1155 c 0,25,26
 631 1155 631 1155 597 1221 c 1,27,-1
 594 1223 l 1,28,29
 582 1247 582 1247 582 1276 c 0,30,31
 582 1353 582 1353 652 1384 c 1,32,33
 674 1397 674 1397 705 1397 c 0,17,18
560 193 m 1,34,-1
 750 676 l 1,35,36
 789 772 789 772 789 831 c 0,37,38
 789 888 789 888 730 911 c 1,39,-1
 650 932 l 1,40,-1
 650 993 l 1,41,-1
 1100 993 l 1,42,-1
 1100 930 l 1,43,44
 984 901 984 901 930 819 c 1,45,-1
 891 743 l 1,46,-1
 537 -88 l 1,47,48
 484 -219 484 -219 441 -289 c 1,49,50
 410 -342 410 -342 363 -389 c 1,51,52
 262 -494 262 -494 140 -494 c 0,53,54
 15 -494 15 -494 -34 -416 c 1,55,56
 -53 -388 -53 -388 -53 -354 c 0,57,58
 -53 -293 -53 -293 9 -264 c 0,59,60
 29 -254 29 -254 56 -254 c 0,61,62
 77 -254 77 -254 99 -262 c 1,63,64
 123 -273 123 -273 169 -322 c 1,65,66
 207 -360 207 -360 236 -360 c 0,67,68
 266 -360 266 -360 304 -330 c 0,69,70
 365 -280 365 -280 408 -174 c 1,71,-1
 459 -55 l 1,72,-1
 93 801 l 1,73,-1
 74 840 l 2,74,75
 46 897 46 897 1 913 c 0,76,77
 -28 924 -28 924 -71 930 c 1,78,-1
 -71 993 l 1,79,-1
 406 993 l 1,80,-1
 406 932 l 1,81,82
 299 918 299 918 295 856 c 1,83,-1
 298 836 l 1,84,-1
 304 815 l 1,85,-1
 560 193 l 1,34,-1
EndSplineSet
EndChar

StartChar: dotlessi
Encoding: 305 305 148
Width: 761
GlyphClass: 2
Flags: W
LayerCount: 2
Fore
SplineSet
544 1395 m 1,0,-1
 544 735 l 2,1,2
 544 653 544 653 570 635 c 0,3,4
 583 627 583 627 615 618 c 0,5,6
 616 618 616 618 624 616 c 1,7,-1
 650 614 l 1,8,-1
 701 614 l 1,9,-1
 701 559 l 1,10,-1
 247 559 l 1,11,-1
 247 614 l 1,12,-1
 300 614 l 1,13,-1
 341 621 l 1,14,15
 378 633 378 633 392 647 c 1,16,17
 407 659 407 659 407 739 c 2,18,-1
 407 1198 l 2,19,20
 407 1275 407 1275 382 1288 c 1,21,22
 365 1300 365 1300 310 1303 c 1,23,-1
 251 1305 l 1,24,-1
 251 1358 l 1,25,-1
 372 1372 l 1,26,-1
 417 1380 l 2,27,28
 442 1384 442 1384 493 1395 c 1,29,-1
 544 1395 l 1,0,-1
EndSplineSet
EndChar

StartChar: OE
Encoding: 338 338 149
Width: 1771
GlyphClass: 2
Flags: W
LayerCount: 2
Fore
SplineSet
1735 463 m 1,0,-1
 1659 82 l 1,1,-1
 1608 82 l 1,2,-1
 1609 92 l 1,3,4
 1609 129 1609 129 1565 129 c 2,5,-1
 1053 129 l 2,6,7
 1036 129 1036 129 998 125.5 c 128,-1,8
 960 122 960 122 899 115 c 0,9,10
 770 100 770 100 711 100 c 0,11,12
 360 100 360 100 175 375 c 0,13,14
 79 517 79 517 79 703 c 0,15,16
 79 1018 79 1018 325 1243 c 0,17,18
 437 1345 437 1345 556 1387 c 1,19,20
 666 1427 666 1427 826 1427 c 0,21,22
 846 1427 846 1427 872 1425.5 c 128,-1,23
 898 1424 898 1424 930 1420 c 0,24,25
 1038 1408 1038 1408 1098 1408 c 2,26,-1
 1565 1408 l 2,27,28
 1622 1408 1622 1408 1622 1456 c 1,29,-1
 1671 1456 l 1,30,-1
 1671 1073 l 1,31,-1
 1598 1073 l 1,32,33
 1598 1360 1598 1360 1285 1360 c 2,34,-1
 1179 1360 l 1,35,36
 1167 1286 1167 1286 1167 1160 c 0,37,38
 1167 996 1167 996 1229 916 c 1,39,40
 1298 829 1298 829 1458 829 c 2,41,-1
 1547 829 l 1,42,-1
 1547 759 l 1,43,-1
 1179 751 l 1,44,-1
 1179 177 l 1,45,-1
 1291 177 l 2,46,47
 1602 177 1602 177 1659 463 c 1,48,-1
 1735 463 l 1,0,-1
997 177 m 1,49,-1
 997 1254 l 1,50,51
 872 1355 872 1355 703 1355 c 0,52,53
 492 1355 492 1355 366 1213 c 0,54,55
 245 1077 245 1077 245 863 c 0,56,57
 245 677 245 677 330 514 c 0,58,59
 419 343 419 343 575 254 c 1,60,61
 731 167 731 167 890 167 c 0,62,63
 960 167 960 167 997 177 c 1,49,-1
EndSplineSet
EndChar

StartChar: oe
Encoding: 339 339 150
Width: 2539
GlyphClass: 2
Flags: W
LayerCount: 2
Fore
SplineSet
1342 1395 m 1,0,-1
 2295 1395 l 1,1,-1
 2454 1040 l 1,2,-1
 2387 1014 l 1,3,4
 2347 1065 2347 1065 2313.5 1100.5 c 128,-1,5
 2280 1136 2280 1136 2254 1159 c 0,6,7
 2238 1172 2238 1172 2221 1184.5 c 128,-1,8
 2204 1197 2204 1197 2184 1208 c 0,9,10
 2017 1307 2017 1307 1777 1307 c 0,11,12
 1620 1307 1620 1307 1576 1272 c 1,13,14
 1539 1244 1539 1244 1533 1167 c 1,15,-1
 1531 1055 l 1,16,-1
 1531 815 l 1,17,-1
 1629 815 l 2,18,19
 1800 815 1800 815 1858 864 c 1,20,21
 1906 909 1906 909 1920 1004 c 1,22,23
 1921 1023 1921 1023 1921.5 1032.5 c 128,-1,24
 1922 1042 1922 1042 1922 1077 c 1,25,-1
 2000 1077 l 1,26,-1
 2000 449 l 1,27,-1
 1922 449 l 1,28,-1
 1922 479 l 1,29,-1
 1920 512 l 1,30,31
 1908 628 1908 628 1840 684 c 1,32,33
 1785 727 1785 727 1627 727 c 2,34,-1
 1531 727 l 1,35,-1
 1531 293 l 2,36,37
 1531 168 1531 168 1562 137 c 1,38,-1
 1592 117 l 1,39,40
 1653 88 1653 88 1793 88 c 0,41,42
 2044 88 2044 88 2229 223 c 1,43,-1
 2264 252 l 1,44,45
 2304 287 2304 287 2353.5 343 c 128,-1,46
 2403 399 2403 399 2463 477 c 1,47,-1
 2532 446 l 1,48,-1
 2354 0 l 1,49,-1
 1342 0 l 1,50,-1
 1342 176 l 1,51,52
 1136 -27 1136 -27 849 -27 c 0,53,54
 547 -27 547 -27 341 182 c 1,55,56
 136 387 136 387 136 698 c 0,57,58
 136 1004 136 1004 341 1212 c 0,59,60
 548 1421 548 1421 853 1421 c 0,61,62
 1127 1421 1127 1421 1342 1235 c 1,63,-1
 1342 1395 l 1,0,-1
851 1323 m 0,64,65
 605 1323 605 1323 476 1110 c 0,66,67
 378 949 378 949 378 715 c 0,68,69
 378 357 378 357 564 182 c 1,70,71
 686 72 686 72 853 72 c 0,72,73
 1096 72 1096 72 1230 287 c 0,74,75
 1334 454 1334 454 1334 705 c 0,76,77
 1334 1028 1334 1028 1154 1202 c 1,78,-1
 1152 1204 l 1,79,-1
 1152 1206 l 1,80,81
 1024 1323 1024 1323 851 1323 c 0,64,65
EndSplineSet
EndChar

StartChar: Scaron
Encoding: 352 352 151
Width: 1064
GlyphClass: 2
Flags: W
LayerCount: 2
Fore
SplineSet
557 1151 m 1,0,-1
 266 1341 l 1,1,-1
 293 1393 l 1,2,-1
 557 1298 l 1,3,-1
 819 1393 l 1,4,-1
 848 1341 l 1,5,-1
 557 1151 l 1,0,-1
899 985 m 1,6,-1
 965 670 l 1,7,-1
 899 670 l 1,8,9
 821 856 821 856 653 911 c 1,10,11
 600 930 600 930 541 930 c 0,12,13
 408 930 408 930 354 846 c 0,14,15
 334 814 334 814 334 776 c 0,16,17
 334 712 334 712 397 678 c 1,18,-1
 422 668 l 1,19,-1
 494 647 l 1,20,-1
 778 578 l 1,21,22
 1010 523 1010 523 1034 360 c 0,23,24
 1036 350 1036 350 1037 338.5 c 128,-1,25
 1038 327 1038 327 1038 313 c 0,26,27
 1038 147 1038 147 883 51 c 0,28,29
 770 -18 770 -18 612 -18 c 0,30,31
 482 -18 482 -18 391 27 c 0,32,33
 337 53 337 53 283 94 c 1,34,-1
 260 8 l 1,35,-1
 193 8 l 1,36,-1
 123 373 l 1,37,-1
 193 373 l 1,38,-1
 219 305 l 1,39,40
 230 280 230 280 243.5 258.5 c 128,-1,41
 257 237 257 237 272 217 c 1,42,-1
 279 211 l 1,43,44
 382 84 382 84 563 66 c 0,45,46
 585 63 585 63 606 63 c 0,47,48
 759 63 759 63 836 156 c 1,49,50
 870 199 870 199 870 252 c 0,51,52
 870 348 870 348 721 387 c 1,53,-1
 459 453 l 2,54,55
 211 516 211 516 166 637 c 0,56,57
 154 670 154 670 154 713 c 0,58,59
 154 858 154 858 295 948 c 0,60,61
 395 1012 395 1012 528 1012 c 0,62,63
 693 1012 693 1012 821 911 c 1,64,-1
 842 985 l 1,65,-1
 899 985 l 1,6,-1
EndSplineSet
EndChar

StartChar: scaron
Encoding: 353 353 152
Width: 1064
GlyphClass: 2
Flags: W
LayerCount: 2
Fore
SplineSet
557 1151 m 1,0,-1
 266 1341 l 1,1,-1
 293 1393 l 1,2,-1
 557 1298 l 1,3,-1
 819 1393 l 1,4,-1
 848 1341 l 1,5,-1
 557 1151 l 1,0,-1
899 985 m 1,6,-1
 965 670 l 1,7,-1
 899 670 l 1,8,9
 821 856 821 856 653 911 c 1,10,11
 600 930 600 930 541 930 c 0,12,13
 408 930 408 930 354 846 c 0,14,15
 334 814 334 814 334 776 c 0,16,17
 334 712 334 712 397 678 c 1,18,-1
 422 668 l 1,19,-1
 494 647 l 1,20,-1
 778 578 l 1,21,22
 1010 523 1010 523 1034 360 c 0,23,24
 1036 350 1036 350 1037 338.5 c 128,-1,25
 1038 327 1038 327 1038 313 c 0,26,27
 1038 147 1038 147 883 51 c 0,28,29
 770 -18 770 -18 612 -18 c 0,30,31
 482 -18 482 -18 391 27 c 0,32,33
 337 53 337 53 283 94 c 1,34,-1
 260 8 l 1,35,-1
 193 8 l 1,36,-1
 123 373 l 1,37,-1
 193 373 l 1,38,-1
 219 305 l 1,39,40
 230 280 230 280 243.5 258.5 c 128,-1,41
 257 237 257 237 272 217 c 1,42,-1
 279 211 l 1,43,44
 382 84 382 84 563 66 c 0,45,46
 585 63 585 63 606 63 c 0,47,48
 759 63 759 63 836 156 c 1,49,50
 870 199 870 199 870 252 c 0,51,52
 870 348 870 348 721 387 c 1,53,-1
 459 453 l 2,54,55
 211 516 211 516 166 637 c 0,56,57
 154 670 154 670 154 713 c 0,58,59
 154 858 154 858 295 948 c 0,60,61
 395 1012 395 1012 528 1012 c 0,62,63
 693 1012 693 1012 821 911 c 1,64,-1
 842 985 l 1,65,-1
 899 985 l 1,6,-1
EndSplineSet
EndChar

StartChar: Ydieresis
Encoding: 376 376 153
Width: 1195
GlyphClass: 2
Flags: W
LayerCount: 2
Fore
SplineSet
1236 1360 m 1,0,1
 1127 1358 1127 1358 997 1136 c 2,2,-1
 694 620 l 1,3,-1
 694 336 l 2,4,5
 694 182 694 182 846 177 c 1,6,-1
 846 129 l 1,7,-1
 357 129 l 1,8,-1
 357 177 l 1,9,10
 445 178 445 178 477 212 c 0,11,12
 509 247 509 247 509 336 c 2,13,-1
 509 620 l 1,14,-1
 259 1122 l 2,15,16
 233 1174 233 1174 211 1211 c 128,-1,17
 189 1248 189 1248 172 1271 c 0,18,19
 107 1358 107 1358 35 1360 c 1,20,-1
 35 1408 l 1,21,-1
 398 1408 l 1,22,-1
 398 1360 l 1,23,24
 360 1358 360 1358 360 1333 c 0,25,26
 360 1322 360 1322 364 1315 c 2,27,-1
 678 691 l 1,28,29
 921 1070 921 1070 921 1245 c 0,30,31
 921 1316 921 1316 872 1341 c 0,32,33
 855 1349 855 1349 826.5 1354 c 128,-1,34
 798 1359 798 1359 758 1360 c 1,35,-1
 758 1408 l 1,36,-1
 1236 1408 l 1,37,-1
 1236 1360 l 1,0,1
919 1675 m 0,38,39
 919 1654 919 1654 911 1635.5 c 128,-1,40
 903 1617 903 1617 889.5 1603.5 c 128,-1,41
 876 1590 876 1590 857.5 1582 c 128,-1,42
 839 1574 839 1574 818 1574 c 256,43,44
 797 1574 797 1574 778.5 1582 c 128,-1,45
 760 1590 760 1590 746.5 1603.5 c 128,-1,46
 733 1617 733 1617 725 1635.5 c 128,-1,47
 717 1654 717 1654 717 1675 c 256,48,49
 717 1696 717 1696 724.5 1714 c 128,-1,50
 732 1732 732 1732 745.5 1746 c 128,-1,51
 759 1760 759 1760 777 1768 c 128,-1,52
 795 1776 795 1776 816 1776 c 0,53,54
 859 1776 859 1776 889 1747 c 128,-1,55
 919 1718 919 1718 919 1675 c 0,38,39
555 1676 m 0,56,57
 555 1655 555 1655 547 1636.5 c 128,-1,58
 539 1618 539 1618 525.5 1604.5 c 128,-1,59
 512 1591 512 1591 493.5 1583 c 128,-1,60
 475 1575 475 1575 454 1575 c 256,61,62
 433 1575 433 1575 414.5 1583 c 128,-1,63
 396 1591 396 1591 382.5 1604.5 c 128,-1,64
 369 1618 369 1618 361.5 1636.5 c 128,-1,65
 354 1655 354 1655 354 1676 c 0,66,67
 354 1718 354 1718 382.5 1747 c 128,-1,68
 411 1776 411 1776 453 1776 c 0,69,70
 496 1776 496 1776 525.5 1747.5 c 128,-1,71
 555 1719 555 1719 555 1676 c 0,56,57
EndSplineSet
EndChar

StartChar: florin
Encoding: 402 402 154
Width: 1269
GlyphClass: 2
Flags: W
LayerCount: 2
Fore
SplineSet
752 948 m 1,0,-1
 634 262 l 1,1,2
 586 -1 586 -1 494 -127 c 1,3,-1
 447 -184 l 1,4,5
 430 -201 430 -201 413 -216 c 128,-1,6
 396 -231 396 -231 380 -244 c 0,7,8
 283 -317 283 -317 171 -317 c 0,9,10
 42 -317 42 -317 -42 -231 c 0,11,12
 -87 -186 -87 -186 -89 -129 c 1,13,14
 -89 -71 -89 -71 -32 -51 c 0,15,16
 -16 -45 -16 -45 1 -45 c 0,17,18
 66 -45 66 -45 95 -137 c 1,19,-1
 107 -178 l 1,20,21
 132 -244 132 -244 173 -250 c 1,22,-1
 175 -250 l 1,23,-1
 193 -252 l 1,24,25
 270 -252 270 -252 335 -139 c 0,26,27
 337 -137 337 -137 339 -133 c 0,28,29
 350 -113 350 -113 361 -86 c 128,-1,30
 372 -59 372 -59 382 -25 c 0,31,32
 394 20 394 20 409 90 c 128,-1,33
 424 160 424 160 441 260 c 2,34,-1
 562 948 l 1,35,-1
 363 948 l 1,36,-1
 378 1016 l 1,37,-1
 574 1016 l 1,38,-1
 584 1071 l 1,39,-1
 613 1217 l 1,40,-1
 615 1221 l 1,41,-1
 615 1223 l 1,42,43
 642 1336 642 1336 697 1391 c 2,44,-1
 701 1395 l 1,45,-1
 703 1397 l 1,46,-1
 726 1417 l 1,47,48
 859 1534 859 1534 1031 1534 c 0,49,50
 1193 1534 1193 1534 1250 1462 c 1,51,-1
 1250 1460 l 1,52,53
 1266 1444 1266 1444 1266 1417 c 0,54,55
 1266 1360 1266 1360 1209 1339 c 1,56,-1
 1174 1333 l 1,57,58
 1113 1333 1113 1333 1072 1395 c 1,59,-1
 1039 1440 l 1,60,61
 1035 1443 1035 1443 1031.5 1446 c 128,-1,62
 1028 1449 1028 1449 1025 1452 c 0,63,64
 1003 1468 1003 1468 961 1468 c 0,65,66
 877 1468 877 1468 844 1393 c 1,67,-1
 828 1343 l 1,68,-1
 799 1202 l 1,69,-1
 767 1016 l 1,70,-1
 986 1016 l 1,71,-1
 971 948 l 1,72,-1
 752 948 l 1,0,-1
EndSplineSet
EndChar

StartChar: circumflex
Encoding: 710 710 155
Width: 860
GlyphClass: 2
Flags: W
LayerCount: 2
Fore
SplineSet
430 1395 m 1,0,-1
 721 1204 l 1,1,-1
 692 1153 l 1,2,-1
 430 1245 l 1,3,-1
 166 1153 l 1,4,-1
 139 1204 l 1,5,-1
 430 1395 l 1,0,-1
EndSplineSet
EndChar

StartChar: caron
Encoding: 711 711 156
Width: 860
GlyphClass: 2
Flags: W
LayerCount: 2
Fore
SplineSet
430 1151 m 1,0,-1
 139 1341 l 1,1,-1
 166 1393 l 1,2,-1
 430 1298 l 1,3,-1
 692 1393 l 1,4,-1
 721 1341 l 1,5,-1
 430 1151 l 1,0,-1
EndSplineSet
EndChar

StartChar: afii57388
Encoding: 1548 1548 157
Width: 891
GlyphClass: 2
Flags: W
LayerCount: 2
Fore
SplineSet
618 98 m 0,0,1
 618 52 618 52 587.5 20 c 128,-1,2
 557 -12 557 -12 500 -12 c 0,3,4
 433 -12 433 -12 380 59 c 0,5,6
 322 135 322 135 322 236 c 0,7,8
 322 333 322 333 377 409 c 0,9,10
 417 463 417 463 472 493 c 1,11,-1
 502 502 l 1,12,13
 462 477 462 477 433 416 c 0,14,15
 403 354 403 354 403 297 c 1,16,-1
 404 267 l 2,17,18
 404 255 404 255 411.5 233.5 c 128,-1,19
 419 212 419 212 436 184 c 1,20,-1
 472 205 l 1,21,-1
 489 211 l 1,22,-1
 510 213 l 1,23,24
 554 213 554 213 587 179 c 1,25,26
 618 145 618 145 618 98 c 0,0,1
EndSplineSet
EndChar

StartChar: afii57403
Encoding: 1563 1563 158
Width: 852
GlyphClass: 2
Flags: W
LayerCount: 2
Fore
SplineSet
580 371 m 0,0,1
 580 350 580 350 572.5 330.5 c 128,-1,2
 565 311 565 311 550.5 296.5 c 128,-1,3
 536 282 536 282 515 273 c 128,-1,4
 494 264 494 264 467 264 c 0,5,6
 405 264 405 264 349 335 c 256,7,8
 293 406 293 406 293 500 c 0,9,10
 293 597 293 597 346 668 c 1,11,12
 384 721 384 721 438 749 c 1,13,-1
 469 758 l 1,14,15
 429 732 429 732 398 674 c 1,16,17
 373 618 373 618 373 561 c 0,18,19
 373 506 373 506 406 451 c 1,20,-1
 438 471 l 1,21,22
 448 475 448 475 457.5 477.5 c 128,-1,23
 467 480 467 480 475 481 c 1,24,25
 497 481 497 481 516.5 472 c 128,-1,26
 536 463 536 463 550 448 c 128,-1,27
 564 433 564 433 572 413 c 128,-1,28
 580 393 580 393 580 371 c 0,0,1
539 74 m 0,29,30
 539 56 539 56 532 40.5 c 128,-1,31
 525 25 525 25 513.5 13.5 c 128,-1,32
 502 2 502 2 486.5 -5 c 128,-1,33
 471 -12 471 -12 453 -12 c 0,34,35
 421 -12 421 -12 396 15 c 1,36,37
 371 40 371 40 371 74 c 0,38,39
 371 106 371 106 396 131 c 1,40,41
 421 158 421 158 453 158 c 0,42,43
 486 158 486 158 512 132 c 1,44,45
 539 108 539 108 539 74 c 0,29,30
EndSplineSet
EndChar

StartChar: afii57407
Encoding: 1567 1567 159
Width: 578
GlyphClass: 2
Flags: W
LayerCount: 2
Fore
SplineSet
567 896 m 0,0,1
 567 830 567 830 532 786 c 256,2,3
 497 742 497 742 447 742 c 0,4,5
 410 742 410 742 385 768 c 128,-1,6
 360 794 360 794 360 830 c 0,7,8
 360 883 360 883 404 909 c 1,9,-1
 445 932 l 1,10,11
 470 951 470 951 470 982 c 0,12,13
 470 1022 470 1022 437 1048 c 128,-1,14
 404 1074 404 1074 355 1074 c 0,15,16
 292 1074 292 1074 251 1033 c 0,17,18
 211 993 211 993 211 932 c 0,19,20
 211 876 211 876 239 830 c 1,21,-1
 301 706 l 1,22,23
 378 541 378 541 378 416 c 0,24,25
 378 387 378 387 366 305 c 1,26,-1
 336 305 l 1,27,28
 337 317 337 317 337.5 329 c 128,-1,29
 338 341 338 341 340 353 c 0,30,31
 341 364 341 364 341.5 370.5 c 128,-1,32
 342 377 342 377 342 380 c 0,33,34
 342 462 342 462 300 500 c 2,35,-1
 205 585 l 2,36,37
 79 699 79 699 79 842 c 0,38,39
 79 954 79 954 156 1034 c 256,40,41
 233 1114 233 1114 342 1114 c 0,42,43
 437 1114 437 1114 502 1051 c 256,44,45
 567 988 567 988 567 896 c 0,0,1
439 97 m 2,46,47
 439 87 439 87 396 44 c 0,48,49
 352 0 352 0 345 0 c 2,50,-1
 329 0 l 2,51,52
 320 0 320 0 277 43 c 256,53,54
 234 86 234 86 234 94 c 2,55,-1
 234 110 l 2,56,57
 234 118 234 118 279 163 c 0,58,59
 324 209 324 209 332 209 c 2,60,-1
 348 209 l 2,61,62
 355 209 355 209 397 165 c 256,63,64
 439 121 439 121 439 113 c 2,65,-1
 439 97 l 2,46,47
EndSplineSet
EndChar

StartChar: afii57409
Encoding: 1569 1569 160
Width: 886
GlyphClass: 2
Flags: W
LayerCount: 2
Fore
SplineSet
463 230 m 1,0,1
 479 237 479 237 511.5 248 c 128,-1,2
 544 259 544 259 598 276 c 1,3,4
 592 253 592 253 584 230 c 128,-1,5
 576 207 576 207 566 182 c 1,6,7
 409 148 409 148 262 51 c 0,8,9
 212 19 212 19 210 19 c 0,10,11
 186 19 186 19 186 25 c 0,12,13
 186 26 186 26 185 25 c 1,14,15
 214 83 214 83 314 158 c 1,16,-1
 315 181 l 1,17,18
 217 280 217 280 207 331 c 1,19,20
 224 380 224 380 242 412.5 c 128,-1,21
 260 445 260 445 277 462 c 0,22,23
 321 509 321 509 413 509 c 0,24,25
 470 509 470 509 498 498 c 1,26,-1
 498 408 l 1,27,28
 441 432 441 432 386 432 c 0,29,30
 322 432 322 432 275 403 c 1,31,-1
 269 384 l 1,32,33
 279 361 279 361 298.5 339 c 128,-1,34
 318 317 318 317 347 292 c 0,35,36
 375 269 375 269 401 253.5 c 128,-1,37
 427 238 427 238 451 230 c 1,38,-1
 463 230 l 1,0,1
EndSplineSet
EndChar

StartChar: afii57410
Encoding: 1570 1570 161
Width: 652
GlyphClass: 2
Flags: W
LayerCount: 2
Fore
SplineSet
692 1501 m 1,0,1
 649 1371 649 1371 570 1371 c 0,2,3
 499 1371 499 1371 415 1393 c 1,4,5
 292 1417 292 1417 253 1417 c 0,6,7
 206 1417 206 1417 148 1362 c 1,8,9
 157 1403 157 1403 186 1442 c 1,10,11
 229 1494 229 1494 294 1494 c 0,12,13
 311 1494 311 1494 341 1488 c 128,-1,14
 371 1482 371 1482 419 1471 c 1,15,16
 458 1459 458 1459 490.5 1453.5 c 128,-1,17
 523 1448 523 1448 552 1448 c 0,18,19
 643 1448 643 1448 692 1503 c 1,20,-1
 692 1501 l 1,0,1
564 270 m 1,21,22
 564 244 564 244 550 210.5 c 128,-1,23
 536 177 536 177 506 135 c 1,24,25
 480 92 480 92 455 62 c 128,-1,26
 430 32 430 32 407 10 c 0,27,28
 405 8 405 8 403.5 7 c 128,-1,29
 402 6 402 6 401 4 c 1,30,-1
 401 15 l 1,31,32
 403 81 403 81 404.5 127 c 128,-1,33
 406 173 406 173 406 201 c 2,34,-1
 406 220 l 1,35,36
 404 299 404 299 399 400.5 c 128,-1,37
 394 502 394 502 384 635 c 0,38,39
 373 791 373 791 366.5 889 c 128,-1,40
 360 987 360 987 357 1042 c 1,41,-1
 518 1239 l 1,42,-1
 519 1241 l 2,43,44
 519 1239 519 1239 518.5 1236.5 c 128,-1,45
 518 1234 518 1234 519 1232 c 2,46,-1
 564 270 l 1,21,22
EndSplineSet
EndChar

StartChar: afii57411
Encoding: 1571 1571 162
Width: 499
GlyphClass: 2
Flags: W
LayerCount: 2
Fore
SplineSet
365 1445 m 1,0,1
 379 1451 379 1451 407 1460.5 c 128,-1,2
 435 1470 435 1470 480 1484 c 1,3,4
 469 1444 469 1444 453 1404 c 1,5,6
 319 1375 319 1375 194 1292 c 0,7,8
 152 1265 152 1265 149 1265 c 0,9,10
 129 1265 129 1265 129 1270 c 0,11,12
 129 1271 129 1271 128 1270 c 1,13,14
 141 1296 141 1296 168 1323.5 c 128,-1,15
 195 1351 195 1351 238 1384 c 1,16,-1
 239 1403 l 1,17,18
 156 1489 156 1489 147 1531 c 1,19,20
 177 1614 177 1614 206 1643 c 1,21,22
 243 1683 243 1683 322 1683 c 0,23,24
 348 1683 348 1683 366 1680.5 c 128,-1,25
 384 1678 384 1678 395 1674 c 1,26,-1
 395 1597 l 1,27,28
 343 1617 343 1617 299 1617 c 0,29,30
 245 1617 245 1617 205 1593 c 1,31,-1
 200 1576 l 1,32,33
 208 1557 208 1557 224.5 1538 c 128,-1,34
 241 1519 241 1519 266 1498 c 0,35,36
 314 1459 314 1459 355 1445 c 1,37,-1
 365 1445 l 1,0,1
437 270 m 2,38,39
 437 244 437 244 423 210.5 c 128,-1,40
 409 177 409 177 379 135 c 1,41,42
 352 92 352 92 327.5 62 c 128,-1,43
 303 32 303 32 280 10 c 0,44,45
 278 8 278 8 276.5 7 c 128,-1,46
 275 6 275 6 274 4 c 1,47,-1
 274 15 l 1,48,49
 276 81 276 81 277.5 127 c 128,-1,50
 279 173 279 173 279 201 c 2,51,-1
 279 220 l 1,52,53
 277 299 277 299 272 400.5 c 128,-1,54
 267 502 267 502 257 635 c 0,55,56
 245 791 245 791 238.5 889 c 128,-1,57
 232 987 232 987 230 1042 c 1,58,-1
 391 1239 l 1,59,-1
 392 1241 l 2,60,61
 392 1239 392 1239 391.5 1236.5 c 128,-1,62
 391 1234 391 1234 392 1232 c 2,63,-1
 437 272 l 1,64,-1
 437 270 l 2,38,39
EndSplineSet
EndChar

StartChar: afii57412
Encoding: 1572 1572 163
Width: 1045
GlyphClass: 2
Flags: W
LayerCount: 2
Fore
SplineSet
880 252 m 1,0,1
 868 278 868 278 850 305.5 c 128,-1,2
 832 333 832 333 809 362 c 0,3,4
 748 438 748 438 702 438 c 0,5,6
 640 438 640 438 594 323 c 1,7,-1
 599 307 l 1,8,9
 714 232 714 232 868 232 c 1,10,-1
 880 252 l 1,0,1
685 1012 m 1,11,12
 699 1019 699 1019 727.5 1028 c 128,-1,13
 756 1037 756 1037 801 1051 c 1,14,15
 796 1031 796 1031 789 1011.5 c 128,-1,16
 782 992 782 992 774 972 c 1,17,18
 705 957 705 957 641.5 929.5 c 128,-1,19
 578 902 578 902 514 860 c 1,20,21
 474 832 474 832 470 832 c 0,22,23
 450 832 450 832 450 837 c 0,24,25
 450 838 450 838 449 837 c 1,26,27
 461 863 461 863 488.5 890.5 c 128,-1,28
 516 918 516 918 559 951 c 1,29,-1
 560 971 l 1,30,31
 477 1055 477 1055 467 1098 c 1,32,33
 498 1183 498 1183 527 1210 c 1,34,35
 564 1250 564 1250 643 1250 c 0,36,37
 687 1250 687 1250 716 1242 c 1,38,-1
 716 1164 l 1,39,40
 662 1184 662 1184 620 1184 c 0,41,42
 566 1184 566 1184 526 1160 c 1,43,-1
 520 1143 l 1,44,45
 536 1110 536 1110 587 1065 c 1,46,47
 632 1029 632 1029 676 1012 c 1,48,-1
 685 1012 l 1,11,12
1014 109 m 2,49,50
 1014 -6 1014 -6 980 -118.5 c 128,-1,51
 946 -231 946 -231 877 -340 c 0,52,53
 731 -573 731 -573 536 -573 c 0,54,55
 426 -573 426 -573 299 -479 c 1,56,57
 245 -437 245 -437 200.5 -390.5 c 128,-1,58
 156 -344 156 -344 114 -287 c 1,59,-1
 113 -287 l 1,60,61
 108 -279 108 -279 104.5 -273 c 128,-1,62
 101 -267 101 -267 100 -263 c 1,63,64
 107 -263 107 -263 130 -277 c 0,65,66
 250 -352 250 -352 408 -352 c 0,67,68
 565 -352 565 -352 699 -263 c 1,69,70
 829 -175 829 -175 891 -29 c 1,71,-1
 880 -10 l 1,72,73
 491 16 491 16 491 216 c 0,74,75
 491 327 491 327 568 508 c 1,76,77
 655 699 655 699 753 699 c 0,78,79
 815 699 815 699 904 574 c 1,80,81
 1014 425 1014 425 1014 245 c 2,82,-1
 1014 109 l 2,49,50
EndSplineSet
EndChar

StartChar: afii57413
Encoding: 1573 1573 164
Width: 484
GlyphClass: 2
Flags: W
LayerCount: 2
Fore
SplineSet
390 -368 m 1,0,1
 404 -362 404 -362 432 -352 c 128,-1,2
 460 -342 460 -342 505 -328 c 1,3,4
 500 -347 500 -347 493.5 -366.5 c 128,-1,5
 487 -386 487 -386 479 -408 c 1,6,7
 410 -423 410 -423 346.5 -450.5 c 128,-1,8
 283 -478 283 -478 219 -520 c 1,9,10
 179 -548 179 -548 174 -548 c 0,11,12
 155 -548 155 -548 155 -543 c 0,13,14
 155 -541 155 -541 154 -542 c 1,15,16
 177 -495 177 -495 264 -429 c 1,17,-1
 265 -409 l 1,18,19
 181 -324 181 -324 172 -282 c 1,20,21
 202 -199 202 -199 231 -170 c 0,22,23
 271 -130 271 -130 347 -130 c 0,24,25
 397 -130 397 -130 421 -139 c 1,26,-1
 421 -216 l 1,27,28
 367 -196 367 -196 325 -196 c 0,29,30
 272 -196 272 -196 230 -220 c 1,31,-1
 225 -237 l 1,32,33
 233 -256 233 -256 250 -275 c 128,-1,34
 267 -294 267 -294 291 -315 c 0,35,36
 334 -351 334 -351 381 -368 c 1,37,-1
 390 -368 l 1,0,1
422 270 m 2,38,39
 422 217 422 217 364 135 c 1,40,41
 337 92 337 92 312.5 62 c 128,-1,42
 288 32 288 32 265 10 c 2,43,-1
 262 7 l 1,44,-1
 262 118 l 2,45,46
 262 132 262 132 262.5 146 c 128,-1,47
 263 160 263 160 263 171 c 2,48,-1
 263 203 l 1,49,-1
 263 213 l 1,50,-1
 263 226 l 2,51,52
 263 232 263 232 263 240 c 256,53,54
 263 248 263 248 262 258 c 1,55,56
 262 300 262 300 256 401 c 0,57,58
 251 501 251 501 241 635 c 0,59,60
 230 791 230 791 223.5 889 c 128,-1,61
 217 987 217 987 215 1042 c 1,62,-1
 377 1235 l 1,63,-1
 377 1232 l 1,64,-1
 422 272 l 1,65,-1
 422 270 l 2,38,39
EndSplineSet
EndChar

StartChar: afii57414
Encoding: 1574 1574 165
Width: 1412
GlyphClass: 2
Flags: W
LayerCount: 2
Fore
SplineSet
459 818 m 1,0,1
 473 824 473 824 501 833.5 c 128,-1,2
 529 843 529 843 574 857 c 1,3,4
 569 837 569 837 562.5 817 c 128,-1,5
 556 797 556 797 548 777 c 1,6,7
 479 763 479 763 415.5 735 c 128,-1,8
 352 707 352 707 288 665 c 0,9,10
 247 638 247 638 243 638 c 0,11,12
 223 638 223 638 223 642 c 1,13,14
 234 665 234 665 261 694 c 128,-1,15
 288 723 288 723 333 757 c 1,16,-1
 334 776 l 1,17,18
 250 862 250 862 241 903 c 1,19,20
 273 988 273 988 300 1015 c 0,21,22
 339 1055 339 1055 417 1055 c 0,23,24
 461 1055 461 1055 490 1047 c 1,25,-1
 490 970 l 1,26,27
 436 990 436 990 394 990 c 0,28,29
 341 990 341 990 299 966 c 1,30,-1
 294 948 l 1,31,32
 314 909 314 909 361 871 c 1,33,34
 403 835 403 835 450 818 c 1,35,-1
 459 818 l 1,0,1
1383 692 m 0,36,37
 1383 678 1383 678 1366 615 c 0,38,39
 1364 607 1364 607 1361.5 599.5 c 128,-1,40
 1359 592 1359 592 1357 584 c 0,41,42
 1352 564 1352 564 1346 547.5 c 128,-1,43
 1340 531 1340 531 1335 520 c 1,44,45
 1330 525 1330 525 1323 530 c 128,-1,46
 1316 535 1316 535 1308 540 c 0,47,48
 1244 577 1244 577 1212 577 c 0,49,50
 1099 577 1099 577 987 483 c 1,51,52
 909 421 909 421 861 340 c 1,53,-1
 864 323 l 1,54,55
 905 291 905 291 1124 230 c 1,56,57
 1314 180 1314 180 1315 167 c 1,58,59
 1315 141 1315 141 1312 111.5 c 128,-1,60
 1309 82 1309 82 1302 39 c 0,61,62
 1284 -64 1284 -64 1273 -75 c 0,63,64
 1213 -136 1213 -136 1144.5 -187.5 c 128,-1,65
 1076 -239 1076 -239 998 -287 c 1,66,67
 767 -425 767 -425 565 -425 c 0,68,69
 376 -425 376 -425 277 -301 c 1,70,71
 184 -189 184 -189 184 7 c 0,72,73
 184 156 184 156 239 297 c 1,74,-1
 239 298 l 1,75,76
 282 421 282 421 341 498 c 0,77,78
 353 515 353 515 362.5 525.5 c 128,-1,79
 372 536 372 536 377 541 c 1,80,81
 375 532 375 532 370 518.5 c 128,-1,82
 365 505 365 505 354 488 c 1,83,-1
 353 488 l 1,84,85
 249 288 249 288 249 135 c 0,86,87
 249 -22 249 -22 363 -110 c 1,88,89
 466 -191 466 -191 624 -191 c 0,90,91
 910 -191 910 -191 1156 -20 c 1,92,-1
 1155 3 l 1,93,94
 1153 4 1153 4 1112.5 17.5 c 128,-1,95
 1072 31 1072 31 991 57 c 0,96,97
 974 62 974 62 956 68 c 128,-1,98
 938 74 938 74 918 81 c 0,99,100
 743 139 743 139 743 181 c 0,101,102
 743 347 743 347 928 553 c 1,103,104
 1115 764 1115 764 1277 764 c 0,105,106
 1383 764 1383 764 1383 692 c 0,36,37
EndSplineSet
EndChar

StartChar: afii57415
Encoding: 1575 1575 166
Width: 420
GlyphClass: 2
Flags: W
LayerCount: 2
Fore
SplineSet
228 2 m 2,0,1
 228 -4 228 -4 223.5 -4 c 128,-1,2
 219 -4 219 -4 221 -2 c 128,-1,3
 223 0 223 0 228 4 c 1,4,-1
 228 2 l 2,0,1
391 270 m 2,5,6
 391 244 391 244 377 210.5 c 128,-1,7
 363 177 363 177 333 135 c 1,8,9
 306 92 306 92 281.5 62 c 128,-1,10
 257 32 257 32 234 10 c 0,11,12
 232 8 232 8 230.5 7 c 128,-1,13
 229 6 229 6 228 4 c 1,14,-1
 228 15 l 1,15,16
 230 81 230 81 231.5 127 c 128,-1,17
 233 173 233 173 233 201 c 2,18,-1
 233 220 l 1,19,20
 231 299 231 299 226 400.5 c 128,-1,21
 221 502 221 502 211 635 c 0,22,23
 200 791 200 791 193 889 c 128,-1,24
 186 987 186 987 184 1042 c 1,25,-1
 345 1239 l 1,26,-1
 346 1241 l 2,27,28
 346 1239 346 1239 345.5 1236.5 c 128,-1,29
 345 1234 345 1234 346 1232 c 2,30,-1
 391 272 l 1,31,-1
 391 270 l 2,5,6
EndSplineSet
EndChar

StartChar: afii57416
Encoding: 1576 1576 167
Width: 1489
GlyphClass: 2
Flags: W
LayerCount: 2
Fore
SplineSet
957 -614 m 1,0,-1
 737 -527 l 1,1,-1
 812 -355 l 1,2,-1
 1034 -439 l 1,3,-1
 957 -614 l 1,0,-1
1460 326 m 0,4,5
 1460 229 1460 229 1456.5 165 c 128,-1,6
 1453 101 1453 101 1446 65 c 0,7,8
 1443 51 1443 51 1180 18 c 0,9,10
 1071 5 1071 5 982.5 0.5 c 128,-1,11
 894 -4 894 -4 825 -4 c 0,12,13
 774 -4 774 -4 735 -3 c 128,-1,14
 696 -2 696 -2 667 0 c 0,15,16
 650 1 650 1 635.5 1.5 c 128,-1,17
 621 2 621 2 611 2 c 0,18,19
 430 2 430 2 318 77 c 1,20,21
 185 162 185 162 185 331 c 0,22,23
 185 450 185 450 287 606 c 0,24,25
 306 636 306 636 317 648 c 1,26,27
 316 639 316 639 314 629 c 128,-1,28
 312 619 312 619 311 611 c 0,29,30
 310 606 310 606 309.5 604 c 128,-1,31
 309 602 309 602 309 604 c 1,32,33
 295 559 295 559 295 501 c 0,34,35
 295 433 295 433 316.5 382.5 c 128,-1,36
 338 332 338 332 384.5 298 c 128,-1,37
 431 264 431 264 504.5 247 c 128,-1,38
 578 230 578 230 683 230 c 2,39,-1
 739 230 l 1,40,-1
 768 230 l 1,41,-1
 783 230 l 2,42,43
 793 230 793 230 798 229 c 0,44,45
 833 228 833 228 869 227.5 c 128,-1,46
 905 227 905 227 943 227 c 0,47,48
 1031 227 1031 227 1123 232 c 128,-1,49
 1215 237 1215 237 1315 253 c 1,50,-1
 1326 269 l 1,51,52
 1311 324 1311 324 1276 381.5 c 128,-1,53
 1241 439 1241 439 1174 508 c 1,54,-1
 1313 693 l 1,55,-1
 1314 694 l 2,56,57
 1314 695 1314 695 1315.5 694 c 128,-1,58
 1317 693 1317 693 1319 691 c 0,59,60
 1460 544 1460 544 1460 326 c 0,4,5
EndSplineSet
EndChar

StartChar: afii57417
Encoding: 1577 1577 168
Width: 923
GlyphClass: 2
Flags: W
LayerCount: 2
Fore
SplineSet
616 936 m 1,0,-1
 484 1053 l 1,1,-1
 464 1051 l 1,2,-1
 368 936 l 1,3,-1
 226 1061 l 1,4,-1
 336 1196 l 1,5,-1
 474 1080 l 1,6,-1
 492 1082 l 1,7,-1
 585 1196 l 1,8,-1
 731 1071 l 1,9,-1
 616 936 l 1,0,-1
729 319 m 1,10,11
 706 331 706 331 660 368 c 128,-1,12
 614 405 614 405 536 471 c 0,13,14
 513 490 513 490 488.5 510.5 c 128,-1,15
 464 531 464 531 435 555 c 1,16,-1
 416 552 l 1,17,18
 297 382 297 382 297 315 c 0,19,20
 297 265 297 265 355 234 c 1,21,22
 398 214 398 214 451 214 c 0,23,24
 514 214 514 214 601 235 c 0,25,26
 653 248 653 248 682.5 262.5 c 128,-1,27
 712 277 712 277 732 296 c 1,28,-1
 729 319 l 1,10,11
893 434 m 0,29,30
 893 412 893 412 883.5 379 c 128,-1,31
 874 346 874 346 855 298 c 1,32,33
 822 221 822 221 766 164 c 128,-1,34
 710 107 710 107 642.5 69.5 c 128,-1,35
 575 32 575 32 501 14 c 128,-1,36
 427 -4 427 -4 357 -4 c 0,37,38
 282 -4 282 -4 233 44 c 1,39,40
 184 90 184 90 184 166 c 0,41,42
 184 313 184 313 317 494 c 1,43,44
 313 490 313 490 320 499.5 c 128,-1,45
 327 509 327 509 343 529.5 c 128,-1,46
 359 550 359 550 383.5 581 c 128,-1,47
 408 612 408 612 440 653 c 0,48,49
 462 681 462 681 483.5 708.5 c 128,-1,50
 505 736 505 736 535 775 c 1,51,52
 591 710 591 710 726 615 c 1,53,-1
 727 615 l 1,54,55
 808 562 808 562 845 522 c 1,56,57
 893 475 893 475 893 434 c 0,29,30
EndSplineSet
EndChar

StartChar: afii57418
Encoding: 1578 1578 169
Width: 1489
GlyphClass: 2
Flags: W
LayerCount: 2
Fore
SplineSet
608 639 m 1,0,-1
 414 762 l 1,1,-1
 503 895 l 1,2,-1
 701 772 l 1,3,-1
 608 639 l 1,0,-1
932 651 m 1,4,-1
 737 774 l 1,5,-1
 827 907 l 1,6,-1
 1025 784 l 1,7,-1
 932 651 l 1,4,-1
1369 328 m 0,8,9
 1369 231 1369 231 1365.5 167 c 128,-1,10
 1362 103 1362 103 1355 67 c 0,11,12
 1352 53 1352 53 1089 20 c 1,13,14
 977 7 977 7 889.5 2.5 c 128,-1,15
 802 -2 802 -2 733 -2 c 0,16,17
 682 -2 682 -2 643 -1 c 128,-1,18
 604 0 604 0 575 2 c 0,19,20
 558 3 558 3 544 3.5 c 128,-1,21
 530 4 530 4 519 4 c 0,22,23
 340 4 340 4 226 79 c 1,24,25
 94 164 94 164 94 333 c 0,26,27
 94 453 94 453 196 608 c 0,28,29
 206 623 206 623 213 633.5 c 128,-1,30
 220 644 220 644 225 650 c 1,31,32
 224 641 224 641 222 631 c 128,-1,33
 220 621 220 621 219 613 c 0,34,35
 218 608 218 608 217.5 606 c 128,-1,36
 217 604 217 604 217 606 c 1,37,38
 204 568 204 568 204 503 c 0,39,40
 204 435 204 435 225.5 384.5 c 128,-1,41
 247 334 247 334 293.5 300 c 128,-1,42
 340 266 340 266 413.5 249 c 128,-1,43
 487 232 487 232 592 232 c 2,44,-1
 646 232 l 1,45,-1
 674 232 l 1,46,-1
 689 232 l 2,47,48
 698 232 698 232 703 231 c 256,49,50
 708 230 708 230 718 230 c 2,51,-1
 733 230 l 1,52,-1
 765 230 l 1,53,-1
 830 230 l 2,54,55
 918 230 918 230 1012.5 234.5 c 128,-1,56
 1107 239 1107 239 1210 256 c 1,57,-1
 1221 272 l 1,58,59
 1213 299 1213 299 1203 326.5 c 128,-1,60
 1193 354 1193 354 1177 383 c 128,-1,61
 1161 412 1161 412 1138.5 443.5 c 128,-1,62
 1116 475 1116 475 1083 510 c 1,63,-1
 1221 695 l 1,64,-1
 1222 696 l 2,65,66
 1222 697 1222 697 1223.5 696 c 128,-1,67
 1225 695 1225 695 1227 693 c 0,68,69
 1369 545 1369 545 1369 328 c 0,8,9
EndSplineSet
EndChar

StartChar: afii57419
Encoding: 1579 1579 170
Width: 1634
GlyphClass: 2
Flags: W
LayerCount: 2
Fore
SplineSet
645 837 m 1,0,-1
 470 941 l 1,1,-1
 552 1068 l 1,2,-1
 724 970 l 1,3,-1
 645 837 l 1,0,-1
861 596 m 1,4,-1
 693 693 l 1,5,-1
 674 688 l 1,6,-1
 605 584 l 1,7,-1
 406 692 l 1,8,-1
 493 822 l 1,9,-1
 676 718 l 1,10,-1
 694 722 l 1,11,-1
 762 831 l 1,12,-1
 944 728 l 1,13,-1
 861 596 l 1,4,-1
1307 332 m 0,14,15
 1307 143 1307 143 1292 71 c 0,16,17
 1289 57 1289 57 1027 24 c 1,18,19
 915 11 915 11 827.5 6.5 c 128,-1,20
 740 2 740 2 671 2 c 0,21,22
 620 2 620 2 581 3 c 128,-1,23
 542 4 542 4 513 6 c 0,24,25
 496 7 496 7 482 7.5 c 128,-1,26
 468 8 468 8 457 8 c 0,27,28
 276 8 276 8 164 84 c 1,29,30
 32 169 32 169 32 337 c 0,31,32
 32 457 32 457 133 612 c 1,33,34
 144 627 144 627 151 637.5 c 128,-1,35
 158 648 158 648 163 654 c 1,36,37
 162 645 162 645 160 635 c 128,-1,38
 158 625 158 625 157 617 c 0,39,40
 156 612 156 612 155.5 610 c 128,-1,41
 155 608 155 608 155 610 c 1,42,43
 142 574 142 574 142 507 c 0,44,45
 142 439 142 439 163.5 388.5 c 128,-1,46
 185 338 185 338 231.5 304 c 128,-1,47
 278 270 278 270 351.5 253 c 128,-1,48
 425 236 425 236 530 236 c 2,49,-1
 584 236 l 1,50,-1
 612 236 l 1,51,-1
 627 236 l 2,52,53
 636 236 636 236 641 235 c 256,54,55
 646 234 646 234 656 234 c 2,56,-1
 671 234 l 1,57,-1
 703 234 l 1,58,-1
 768 234 l 2,59,60
 856 234 856 234 950.5 238.5 c 128,-1,61
 1045 243 1045 243 1148 260 c 1,62,-1
 1159 276 l 1,63,64
 1151 303 1151 303 1141 330.5 c 128,-1,65
 1131 358 1131 358 1115 387 c 128,-1,66
 1099 416 1099 416 1076.5 447.5 c 128,-1,67
 1054 479 1054 479 1021 514 c 1,68,-1
 1159 699 l 1,69,-1
 1160 700 l 2,70,71
 1160 701 1160 701 1161.5 700 c 128,-1,72
 1163 699 1163 699 1165 697 c 0,73,74
 1307 549 1307 549 1307 332 c 0,14,15
EndSplineSet
EndChar

StartChar: afii57420
Encoding: 1580 1580 171
Width: 1222
GlyphClass: 2
Flags: W
LayerCount: 2
Fore
SplineSet
1191 630 m 1,0,1
 1192 628 1192 628 1190 626 c 1,2,3
 1190 627 1190 627 1190.5 627.5 c 128,-1,4
 1191 628 1191 628 1191 630 c 1,0,1
858 -263 m 1,5,-1
 638 -175 l 1,6,-1
 712 -4 l 1,7,-1
 934 -88 l 1,8,-1
 858 -263 l 1,5,-1
1270 -452 m 1,9,10
 1182 -530 1182 -530 1125 -576.5 c 128,-1,11
 1068 -623 1068 -623 1039 -643 c 1,12,13
 894 -734 894 -734 722 -734 c 0,14,15
 531 -734 531 -734 406 -609 c 0,16,17
 261 -464 261 -464 261 -206 c 0,18,19
 261 126 261 126 532 418 c 1,20,-1
 521 440 l 1,21,-1
 511 440 l 1,22,23
 491 441 491 441 472.5 441.5 c 128,-1,24
 454 442 454 442 438 442 c 0,25,26
 412 442 412 442 392 441 c 128,-1,27
 372 440 372 440 359 438 c 0,28,29
 314 431 314 431 277 413.5 c 128,-1,30
 240 396 240 396 208 368 c 1,31,32
 192 352 192 352 184 352 c 1,33,-1
 184 360 l 2,34,35
 184 366 184 366 192 396 c 1,36,37
 291 679 291 679 484 679 c 0,38,39
 527 679 527 679 589.5 672.5 c 128,-1,40
 652 666 652 666 740 653 c 256,41,42
 828 640 828 640 892.5 633 c 128,-1,43
 957 626 957 626 1002 626 c 2,44,-1
 1184 626 l 1,45,-1
 1190 626 l 2,46,47
 1189 626 1189 626 1189 625 c 2,48,-1
 1188 624 l 1,49,-1
 1078 401 l 1,50,51
 1004 398 1004 398 928 392.5 c 128,-1,52
 852 387 852 387 759 379 c 1,53,-1
 756 379 l 1,54,55
 622 340 622 340 495 205 c 1,56,57
 354 53 354 53 354 -106 c 0,58,59
 354 -499 354 -499 811 -499 c 0,60,61
 980 -499 980 -499 1252 -424 c 1,62,63
 1271 -420 1271 -420 1281 -418 c 128,-1,64
 1291 -416 1291 -416 1293 -416 c 0,65,66
 1301 -416 1301 -416 1302 -415 c 1,67,68
 1301 -420 1301 -420 1292.5 -429 c 128,-1,69
 1284 -438 1284 -438 1270 -452 c 1,9,10
EndSplineSet
EndChar

StartChar: afii57421
Encoding: 1581 1581 172
Width: 1222
GlyphClass: 2
Flags: W
LayerCount: 2
Fore
SplineSet
1270 -452 m 1,0,1
 1182 -530 1182 -530 1125 -576.5 c 128,-1,2
 1068 -623 1068 -623 1039 -643 c 1,3,4
 894 -734 894 -734 722 -734 c 0,5,6
 531 -734 531 -734 406 -609 c 0,7,8
 261 -464 261 -464 261 -206 c 0,9,10
 261 126 261 126 532 418 c 1,11,-1
 521 440 l 1,12,-1
 511 440 l 1,13,14
 491 441 491 441 472.5 441.5 c 128,-1,15
 454 442 454 442 438 442 c 0,16,17
 412 442 412 442 392 441 c 128,-1,18
 372 440 372 440 359 438 c 0,19,20
 314 431 314 431 277 413.5 c 128,-1,21
 240 396 240 396 208 368 c 1,22,23
 192 352 192 352 184 352 c 1,24,-1
 184 360 l 2,25,26
 184 366 184 366 192 396 c 1,27,28
 291 679 291 679 484 679 c 0,29,30
 527 679 527 679 589.5 672.5 c 128,-1,31
 652 666 652 666 740 653 c 256,32,33
 828 640 828 640 892.5 633 c 128,-1,34
 957 626 957 626 1002 626 c 2,35,-1
 1184 626 l 1,36,-1
 1189 626 l 1,37,-1
 1078 401 l 1,38,39
 1004 398 1004 398 928 392.5 c 128,-1,40
 852 387 852 387 759 379 c 1,41,-1
 756 379 l 1,42,43
 622 340 622 340 495 205 c 1,44,45
 354 53 354 53 354 -106 c 0,46,47
 354 -499 354 -499 811 -499 c 0,48,49
 980 -499 980 -499 1252 -424 c 1,50,51
 1271 -420 1271 -420 1281 -418 c 128,-1,52
 1291 -416 1291 -416 1293 -416 c 0,53,54
 1301 -416 1301 -416 1302 -415 c 1,55,56
 1301 -420 1301 -420 1292.5 -429 c 128,-1,57
 1284 -438 1284 -438 1270 -452 c 1,0,1
EndSplineSet
EndChar

StartChar: afii57422
Encoding: 1582 1582 173
Width: 1222
GlyphClass: 2
Flags: W
LayerCount: 2
Fore
SplineSet
786 883 m 1,0,-1
 566 971 l 1,1,-1
 641 1142 l 1,2,-1
 863 1058 l 1,3,-1
 786 883 l 1,0,-1
1270 -452 m 1,4,5
 1182 -530 1182 -530 1125 -576.5 c 128,-1,6
 1068 -623 1068 -623 1039 -643 c 1,7,8
 894 -734 894 -734 722 -734 c 0,9,10
 531 -734 531 -734 406 -609 c 0,11,12
 261 -464 261 -464 261 -206 c 0,13,14
 261 126 261 126 532 418 c 1,15,-1
 521 440 l 1,16,-1
 511 440 l 1,17,18
 491 441 491 441 472.5 441.5 c 128,-1,19
 454 442 454 442 438 442 c 0,20,21
 412 442 412 442 392 441 c 128,-1,22
 372 440 372 440 359 438 c 0,23,24
 314 431 314 431 277 413.5 c 128,-1,25
 240 396 240 396 208 368 c 1,26,27
 192 352 192 352 184 352 c 1,28,-1
 184 360 l 2,29,30
 184 366 184 366 192 396 c 1,31,32
 291 679 291 679 484 679 c 0,33,34
 527 679 527 679 589.5 672.5 c 128,-1,35
 652 666 652 666 740 653 c 256,36,37
 828 640 828 640 892.5 633 c 128,-1,38
 957 626 957 626 1002 626 c 2,39,-1
 1184 626 l 1,40,-1
 1189 626 l 1,41,-1
 1078 401 l 1,42,43
 1004 398 1004 398 928 392.5 c 128,-1,44
 852 387 852 387 759 379 c 1,45,-1
 756 379 l 1,46,47
 622 340 622 340 495 205 c 1,48,49
 354 53 354 53 354 -106 c 0,50,51
 354 -499 354 -499 811 -499 c 0,52,53
 980 -499 980 -499 1252 -424 c 1,54,55
 1271 -420 1271 -420 1281 -418 c 128,-1,56
 1291 -416 1291 -416 1293 -416 c 0,57,58
 1301 -416 1301 -416 1302 -415 c 1,59,60
 1301 -420 1301 -420 1292.5 -429 c 128,-1,61
 1284 -438 1284 -438 1270 -452 c 1,4,5
EndSplineSet
EndChar

StartChar: afii57423
Encoding: 1583 1583 174
Width: 843
GlyphClass: 2
Flags: W
LayerCount: 2
Fore
SplineSet
666 831 m 2,0,1
 666 832 666 832 667 832 c 2,2,-1
 666 831 l 2,0,1
729 41 m 1,3,4
 728 22 728 22 683 13 c 0,5,6
 666 10 666 10 633 8 c 128,-1,7
 600 6 600 6 549 4 c 0,8,9
 494 2 494 2 449 0.5 c 128,-1,10
 404 -1 404 -1 368 -1 c 0,11,12
 330 -1 330 -1 302.5 0.5 c 128,-1,13
 275 2 275 2 258 4 c 0,14,15
 115 24 115 24 115 164 c 0,16,17
 115 175 115 175 116 188 c 128,-1,18
 117 201 117 201 119 215 c 0,19,20
 125 264 125 264 152 350 c 0,21,22
 182 448 182 448 192 451 c 1,23,-1
 192 446 l 2,24,25
 192 438 192 438 189 425 c 1,26,-1
 189 424 l 1,27,28
 187 409 187 409 185.5 396.5 c 128,-1,29
 184 384 184 384 184 373 c 0,30,31
 184 253 184 253 315 235 c 0,32,33
 344 231 344 231 382 228.5 c 128,-1,34
 420 226 420 226 471 226 c 0,35,36
 602 226 602 226 635 244 c 1,37,-1
 641 257 l 1,38,39
 626 475 626 475 530 652 c 1,40,-1
 664 828 l 1,41,-1
 665 829 l 2,42,43
 665 830 665 830 665.5 830.5 c 128,-1,44
 666 831 666 831 666.5 830.5 c 128,-1,45
 667 830 667 830 668 828 c 0,46,47
 700 771 700 771 720.5 692 c 128,-1,48
 741 613 741 613 753 507 c 0,49,50
 758 455 758 455 760.5 411.5 c 128,-1,51
 763 368 763 368 763 331 c 0,52,53
 763 306 763 306 762 285 c 128,-1,54
 761 264 761 264 758 243 c 2,55,-1
 729 42 l 1,56,-1
 729 41 l 1,3,4
EndSplineSet
EndChar

StartChar: afii57424
Encoding: 1584 1584 175
Width: 843
GlyphClass: 2
Flags: W
LayerCount: 2
Fore
SplineSet
626 830 m 2,0,1
 626 831 626 831 627 831 c 2,2,-1
 626 830 l 2,0,1
546 903 m 1,3,-1
 355 979 l 1,4,-1
 423 1142 l 1,5,-1
 616 1070 l 1,6,-1
 546 903 l 1,3,-1
690 40 m 1,7,8
 687 21 687 21 644 12 c 0,9,10
 627 9 627 9 593.5 7 c 128,-1,11
 560 5 560 5 509 3 c 0,12,13
 454 1 454 1 409 -0.5 c 128,-1,14
 364 -2 364 -2 328 -2 c 0,15,16
 290 -2 290 -2 262.5 -0.5 c 128,-1,17
 235 1 235 1 218 3 c 0,18,19
 75 23 75 23 75 163 c 0,20,21
 75 174 75 174 76 187 c 128,-1,22
 77 200 77 200 79 214 c 0,23,24
 86 263 86 263 112 349 c 0,25,26
 127 400 127 400 137.5 424 c 128,-1,27
 148 448 148 448 153 450 c 1,28,-1
 153 445 l 2,29,30
 153 437 153 437 150 424 c 1,31,-1
 150 423 l 1,32,33
 148 408 148 408 146.5 395.5 c 128,-1,34
 145 383 145 383 145 372 c 0,35,36
 145 252 145 252 275 234 c 0,37,38
 305 230 305 230 342.5 227.5 c 128,-1,39
 380 225 380 225 431 225 c 0,40,41
 562 225 562 225 595 243 c 1,42,-1
 601 256 l 1,43,44
 594 365 594 365 566 462.5 c 128,-1,45
 538 560 538 560 490 651 c 1,46,-1
 624 827 l 1,47,-1
 625 828 l 2,48,49
 625 829 625 829 625.5 829.5 c 128,-1,50
 626 830 626 830 626.5 829.5 c 128,-1,51
 627 829 627 829 628 827 c 0,52,53
 691 714 691 714 713 506 c 0,54,55
 718 454 718 454 720.5 410.5 c 128,-1,56
 723 367 723 367 723 330 c 0,57,58
 723 305 723 305 722 284 c 128,-1,59
 721 263 721 263 718 242 c 2,60,-1
 690 41 l 1,61,-1
 690 40 l 1,7,8
EndSplineSet
EndChar

